<svg xmlns="http://www.w3.org/2000/svg" xmlns:xlink="http://www.w3.org/1999/xlink" width="500" zoomAndPan="magnify" viewBox="0 0 375 374.999991" height="500" preserveAspectRatio="xMidYMid meet" version="1.0"><defs><g/><clipPath id="2c0ae83837"><path d="M 240 11 L 359 11 L 359 109 L 240 109 Z M 240 11 " clip-rule="nonzero"/></clipPath><clipPath id="1e9311e35f"><path d="M 180.03125 -49.730469 L 361.050781 49.117188 L 243.511719 264.367188 L 62.492188 165.515625 Z M 180.03125 -49.730469 " clip-rule="nonzero"/></clipPath><clipPath id="0cf4b3e415"><path d="M 180.03125 -49.730469 L 361.050781 49.117188 L 243.511719 264.367188 L 62.492188 165.515625 Z M 180.03125 -49.730469 " clip-rule="nonzero"/></clipPath><clipPath id="d685208ef2"><path d="M 358.367188 50.640625 C 358.003906 47.476562 342.441406 46.933594 340.574219 46.867188 C 330.945312 46.53125 322.90625 47.828125 317.207031 49.152344 C 314.65625 45.410156 312.109375 41.667969 309.558594 37.925781 C 310.6875 37.75 311.8125 37.574219 312.9375 37.394531 C 312.808594 36.566406 312.523438 35.359375 311.832031 34.046875 C 311.015625 32.492188 309.984375 31.464844 309.296875 30.875 C 308.230469 31.121094 307.164062 31.367188 306.101562 31.613281 C 301.511719 25.234375 296.925781 18.855469 292.339844 12.476562 C 292.308594 12.457031 292.277344 12.4375 292.242188 12.421875 C 287.941406 11.667969 283.546875 11.730469 279.1875 11.5 C 284.421875 20.441406 289.65625 29.382812 294.890625 38.324219 L 292.824219 38.875 C 293.078125 39.351562 293.335938 39.828125 293.59375 40.304688 C 294.4375 40.347656 295.28125 40.390625 296.125 40.4375 C 298 43.636719 299.871094 46.835938 301.746094 50.03125 L 257.527344 59.175781 C 255.019531 55.789062 252.511719 52.402344 250.007812 49.015625 C 246.84375 48.554688 243.679688 48.09375 240.515625 47.632812 L 248.878906 62.445312 C 247.542969 62.921875 246.203125 63.398438 244.867188 63.875 C 244.914062 64.246094 244.960938 64.617188 245.007812 64.988281 C 246.34375 65.199219 247.675781 65.410156 249.007812 65.621094 C 247.0625 70.558594 245.117188 75.496094 243.171875 80.433594 C 246.199219 79.578125 249.226562 78.722656 252.253906 77.867188 C 254.292969 73.964844 256.332031 70.058594 258.371094 66.15625 L 303.371094 64.539062 L 300.277344 74.011719 L 298.234375 74.578125 L 297.988281 75.554688 C 298.328125 75.785156 298.667969 76.015625 299.007812 76.246094 C 295.019531 86.945312 291.03125 97.648438 287.042969 108.347656 C 288.628906 107.996094 289.917969 107.660156 290.789062 107.402344 C 293.628906 106.5625 296.441406 105.585938 299.324219 104.894531 C 299.730469 104.796875 300.140625 104.707031 300.546875 104.621094 C 304.289062 96.863281 308.027344 89.105469 311.765625 81.347656 C 312.867188 81.324219 313.964844 81.304688 315.0625 81.28125 C 315.625 80.597656 316.433594 79.4375 316.953125 77.816406 C 317.371094 76.511719 317.457031 75.359375 317.453125 74.558594 C 316.347656 74.378906 315.242188 74.203125 314.136719 74.027344 C 315.789062 70.023438 317.441406 66.019531 319.097656 62.015625 C 325.585938 61.769531 334.511719 60.8125 344.632812 57.621094 C 348.878906 56.28125 358.660156 53.199219 358.367188 50.640625 Z M 358.367188 50.640625 " clip-rule="nonzero"/></clipPath><linearGradient x1="828.472615" gradientTransform="matrix(0.0846812, 0.0462416, -0.0462416, 0.0846812, 181.85579, -47.859159)" y1="449.21799" x2="2384.224652" gradientUnits="userSpaceOnUse" y2="449.21799" id="980ede4dc2"><stop stop-opacity="1" stop-color="rgb(55.299377%, 41.19873%, 7.798767%)" offset="0"/><stop stop-opacity="1" stop-color="rgb(55.477905%, 41.360474%, 7.846069%)" offset="0.125"/><stop stop-opacity="1" stop-color="rgb(55.799866%, 41.654968%, 7.933044%)" offset="0.132812"/><stop stop-opacity="1" stop-color="rgb(56.089783%, 41.918945%, 8.009338%)" offset="0.140625"/><stop stop-opacity="1" stop-color="rgb(56.3797%, 42.182922%, 8.087158%)" offset="0.148438"/><stop stop-opacity="1" stop-color="rgb(56.669617%, 42.446899%, 8.163452%)" offset="0.15625"/><stop stop-opacity="1" stop-color="rgb(56.958008%, 42.710876%, 8.241272%)" offset="0.164062"/><stop stop-opacity="1" stop-color="rgb(57.247925%, 42.974854%, 8.319092%)" offset="0.171875"/><stop stop-opacity="1" stop-color="rgb(57.537842%, 43.237305%, 8.395386%)" offset="0.179688"/><stop stop-opacity="1" stop-color="rgb(57.826233%, 43.501282%, 8.473206%)" offset="0.1875"/><stop stop-opacity="1" stop-color="rgb(58.11615%, 43.765259%, 8.5495%)" offset="0.195312"/><stop stop-opacity="1" stop-color="rgb(58.406067%, 44.029236%, 8.627319%)" offset="0.203125"/><stop stop-opacity="1" stop-color="rgb(58.694458%, 44.293213%, 8.705139%)" offset="0.210938"/><stop stop-opacity="1" stop-color="rgb(58.984375%, 44.55719%, 8.781433%)" offset="0.21875"/><stop stop-opacity="1" stop-color="rgb(59.274292%, 44.819641%, 8.859253%)" offset="0.226563"/><stop stop-opacity="1" stop-color="rgb(59.564209%, 45.083618%, 8.935547%)" offset="0.234375"/><stop stop-opacity="1" stop-color="rgb(59.8526%, 45.347595%, 9.013367%)" offset="0.242188"/><stop stop-opacity="1" stop-color="rgb(60.142517%, 45.611572%, 9.089661%)" offset="0.25"/><stop stop-opacity="1" stop-color="rgb(60.432434%, 45.875549%, 9.16748%)" offset="0.257812"/><stop stop-opacity="1" stop-color="rgb(60.720825%, 46.139526%, 9.2453%)" offset="0.265625"/><stop stop-opacity="1" stop-color="rgb(61.010742%, 46.403503%, 9.321594%)" offset="0.273438"/><stop stop-opacity="1" stop-color="rgb(61.300659%, 46.665955%, 9.399414%)" offset="0.28125"/><stop stop-opacity="1" stop-color="rgb(61.590576%, 46.929932%, 9.475708%)" offset="0.289062"/><stop stop-opacity="1" stop-color="rgb(61.878967%, 47.193909%, 9.553528%)" offset="0.296875"/><stop stop-opacity="1" stop-color="rgb(62.168884%, 47.457886%, 9.631348%)" offset="0.304688"/><stop stop-opacity="1" stop-color="rgb(62.458801%, 47.721863%, 9.707642%)" offset="0.3125"/><stop stop-opacity="1" stop-color="rgb(62.747192%, 47.98584%, 9.785461%)" offset="0.320313"/><stop stop-opacity="1" stop-color="rgb(63.037109%, 48.248291%, 9.861755%)" offset="0.328125"/><stop stop-opacity="1" stop-color="rgb(63.327026%, 48.512268%, 9.939575%)" offset="0.335938"/><stop stop-opacity="1" stop-color="rgb(63.615417%, 48.776245%, 10.017395%)" offset="0.34375"/><stop stop-opacity="1" stop-color="rgb(63.905334%, 49.040222%, 10.093689%)" offset="0.351563"/><stop stop-opacity="1" stop-color="rgb(64.234924%, 49.345398%, 10.185242%)" offset="0.359375"/><stop stop-opacity="1" stop-color="rgb(64.845276%, 49.938965%, 10.372925%)" offset="0.363281"/><stop stop-opacity="1" stop-color="rgb(65.272522%, 50.361633%, 10.510254%)" offset="0.367188"/><stop stop-opacity="1" stop-color="rgb(65.698242%, 50.782776%, 10.646057%)" offset="0.371094"/><stop stop-opacity="1" stop-color="rgb(66.125488%, 51.205444%, 10.78186%)" offset="0.375"/><stop stop-opacity="1" stop-color="rgb(66.551208%, 51.626587%, 10.917664%)" offset="0.378906"/><stop stop-opacity="1" stop-color="rgb(66.978455%, 52.049255%, 11.054993%)" offset="0.382813"/><stop stop-opacity="1" stop-color="rgb(67.404175%, 52.470398%, 11.190796%)" offset="0.386719"/><stop stop-opacity="1" stop-color="rgb(67.831421%, 52.893066%, 11.326599%)" offset="0.390625"/><stop stop-opacity="1" stop-color="rgb(68.257141%, 53.314209%, 11.462402%)" offset="0.394531"/><stop stop-opacity="1" stop-color="rgb(68.684387%, 53.736877%, 11.598206%)" offset="0.398438"/><stop stop-opacity="1" stop-color="rgb(69.110107%, 54.15802%, 11.734009%)" offset="0.402344"/><stop stop-opacity="1" stop-color="rgb(69.537354%, 54.580688%, 11.871338%)" offset="0.40625"/><stop stop-opacity="1" stop-color="rgb(69.963074%, 55.001831%, 12.007141%)" offset="0.410156"/><stop stop-opacity="1" stop-color="rgb(70.39032%, 55.4245%, 12.142944%)" offset="0.414063"/><stop stop-opacity="1" stop-color="rgb(70.81604%, 55.847168%, 12.278748%)" offset="0.417969"/><stop stop-opacity="1" stop-color="rgb(71.243286%, 56.269836%, 12.416077%)" offset="0.421875"/><stop stop-opacity="1" stop-color="rgb(71.669006%, 56.690979%, 12.55188%)" offset="0.425781"/><stop stop-opacity="1" stop-color="rgb(72.096252%, 57.113647%, 12.687683%)" offset="0.429688"/><stop stop-opacity="1" stop-color="rgb(72.521973%, 57.53479%, 12.823486%)" offset="0.433594"/><stop stop-opacity="1" stop-color="rgb(72.949219%, 57.957458%, 12.95929%)" offset="0.4375"/><stop stop-opacity="1" stop-color="rgb(73.374939%, 58.378601%, 13.095093%)" offset="0.441406"/><stop stop-opacity="1" stop-color="rgb(73.802185%, 58.80127%, 13.232422%)" offset="0.445313"/><stop stop-opacity="1" stop-color="rgb(74.227905%, 59.222412%, 13.368225%)" offset="0.449219"/><stop stop-opacity="1" stop-color="rgb(74.655151%, 59.645081%, 13.504028%)" offset="0.453125"/><stop stop-opacity="1" stop-color="rgb(75.080872%, 60.066223%, 13.639832%)" offset="0.457031"/><stop stop-opacity="1" stop-color="rgb(75.508118%, 60.488892%, 13.775635%)" offset="0.460938"/><stop stop-opacity="1" stop-color="rgb(75.933838%, 60.910034%, 13.911438%)" offset="0.464844"/><stop stop-opacity="1" stop-color="rgb(76.361084%, 61.332703%, 14.048767%)" offset="0.46875"/><stop stop-opacity="1" stop-color="rgb(76.786804%, 61.753845%, 14.18457%)" offset="0.472656"/><stop stop-opacity="1" stop-color="rgb(77.21405%, 62.176514%, 14.320374%)" offset="0.476563"/><stop stop-opacity="1" stop-color="rgb(77.639771%, 62.597656%, 14.456177%)" offset="0.480469"/><stop stop-opacity="1" stop-color="rgb(78.067017%, 63.020325%, 14.593506%)" offset="0.484375"/><stop stop-opacity="1" stop-color="rgb(78.492737%, 63.441467%, 14.729309%)" offset="0.488281"/><stop stop-opacity="1" stop-color="rgb(78.919983%, 63.864136%, 14.865112%)" offset="0.492188"/><stop stop-opacity="1" stop-color="rgb(79.345703%, 64.285278%, 15.000916%)" offset="0.496094"/><stop stop-opacity="1" stop-color="rgb(79.772949%, 64.707947%, 15.136719%)" offset="0.5"/><stop stop-opacity="1" stop-color="rgb(80.198669%, 65.129089%, 15.272522%)" offset="0.503906"/><stop stop-opacity="1" stop-color="rgb(80.62439%, 65.551758%, 15.409851%)" offset="0.507812"/><stop stop-opacity="1" stop-color="rgb(81.05011%, 65.9729%, 15.545654%)" offset="0.511719"/><stop stop-opacity="1" stop-color="rgb(81.477356%, 66.395569%, 15.681458%)" offset="0.515625"/><stop stop-opacity="1" stop-color="rgb(81.903076%, 66.816711%, 15.817261%)" offset="0.519531"/><stop stop-opacity="1" stop-color="rgb(82.330322%, 67.23938%, 15.95459%)" offset="0.523438"/><stop stop-opacity="1" stop-color="rgb(82.756042%, 67.660522%, 16.090393%)" offset="0.527344"/><stop stop-opacity="1" stop-color="rgb(83.183289%, 68.083191%, 16.226196%)" offset="0.53125"/><stop stop-opacity="1" stop-color="rgb(83.609009%, 68.504333%, 16.362%)" offset="0.535156"/><stop stop-opacity="1" stop-color="rgb(84.036255%, 68.927002%, 16.497803%)" offset="0.539063"/><stop stop-opacity="1" stop-color="rgb(84.461975%, 69.348145%, 16.633606%)" offset="0.542969"/><stop stop-opacity="1" stop-color="rgb(84.889221%, 69.770813%, 16.770935%)" offset="0.546875"/><stop stop-opacity="1" stop-color="rgb(85.314941%, 70.191956%, 16.906738%)" offset="0.550781"/><stop stop-opacity="1" stop-color="rgb(85.742188%, 70.614624%, 17.042542%)" offset="0.554688"/><stop stop-opacity="1" stop-color="rgb(86.167908%, 71.035767%, 17.178345%)" offset="0.558594"/><stop stop-opacity="1" stop-color="rgb(86.595154%, 71.458435%, 17.315674%)" offset="0.5625"/><stop stop-opacity="1" stop-color="rgb(87.020874%, 71.879578%, 17.451477%)" offset="0.566406"/><stop stop-opacity="1" stop-color="rgb(87.44812%, 72.302246%, 17.58728%)" offset="0.570312"/><stop stop-opacity="1" stop-color="rgb(87.87384%, 72.723389%, 17.723083%)" offset="0.574219"/><stop stop-opacity="1" stop-color="rgb(88.301086%, 73.146057%, 17.858887%)" offset="0.578125"/><stop stop-opacity="1" stop-color="rgb(88.726807%, 73.5672%, 17.99469%)" offset="0.582031"/><stop stop-opacity="1" stop-color="rgb(89.154053%, 73.989868%, 18.132019%)" offset="0.585938"/><stop stop-opacity="1" stop-color="rgb(89.579773%, 74.411011%, 18.267822%)" offset="0.589844"/><stop stop-opacity="1" stop-color="rgb(90.007019%, 74.833679%, 18.403625%)" offset="0.59375"/><stop stop-opacity="1" stop-color="rgb(90.432739%, 75.254822%, 18.539429%)" offset="0.597656"/><stop stop-opacity="1" stop-color="rgb(90.859985%, 75.67749%, 18.676758%)" offset="0.601562"/><stop stop-opacity="1" stop-color="rgb(91.285706%, 76.098633%, 18.812561%)" offset="0.605469"/><stop stop-opacity="1" stop-color="rgb(91.712952%, 76.521301%, 18.948364%)" offset="0.609375"/><stop stop-opacity="1" stop-color="rgb(92.105103%, 76.9104%, 19.073486%)" offset="0.613281"/><stop stop-opacity="1" stop-color="rgb(92.498779%, 77.2995%, 19.198608%)" offset="0.617188"/><stop stop-opacity="1" stop-color="rgb(92.498779%, 77.2995%, 19.198608%)" offset="0.625"/><stop stop-opacity="1" stop-color="rgb(92.498779%, 77.2995%, 19.198608%)" offset="0.75"/><stop stop-opacity="1" stop-color="rgb(92.498779%, 77.2995%, 19.198608%)" offset="1"/></linearGradient><clipPath id="76f9248e37"><path d="M 75 64 L 240 64 L 240 182 L 75 182 Z M 75 64 " clip-rule="nonzero"/></clipPath><clipPath id="b64a6c48bb"><path d="M 180.03125 -49.730469 L 361.050781 49.117188 L 243.511719 264.367188 L 62.492188 165.515625 Z M 180.03125 -49.730469 " clip-rule="nonzero"/></clipPath><clipPath id="ecfbe70ed2"><path d="M 180.03125 -49.730469 L 361.050781 49.117188 L 243.511719 264.367188 L 62.492188 165.515625 Z M 180.03125 -49.730469 " clip-rule="nonzero"/></clipPath><clipPath id="e3c2c971ec"><path d="M 108.914062 105.410156 C 95.984375 115.582031 81.894531 129.976562 77.285156 146.136719 C 75.0625 153.363281 74.542969 161.714844 78.183594 168.59375 C 81.632812 175.332031 88.359375 179.785156 95.472656 181.832031 C 86.894531 177.839844 79.707031 170.753906 79.171875 160.894531 C 78.878906 156.324219 79.980469 151.800781 81.570312 147.539062 C 87.5 131.136719 104.652344 116.304688 118.726562 106.53125 C 133.375 96.40625 149.402344 88.328125 166.019531 81.925781 C 181.089844 76.132812 196.648438 71.789062 212.53125 68.757812 C 221.394531 67.054688 230.371094 65.8125 239.347656 64.84375 C 193.964844 62.894531 144.921875 77.496094 108.914062 105.410156 Z M 108.914062 105.410156 " clip-rule="nonzero"/></clipPath><linearGradient x1="-426.022285" gradientTransform="matrix(0.0846812, 0.0462416, -0.0462416, 0.0846812, 181.85579, -47.859159)" y1="1633.19897" x2="1663.900832" gradientUnits="userSpaceOnUse" y2="1633.19897" id="c29d835b24"><stop stop-opacity="1" stop-color="rgb(55.299377%, 41.19873%, 7.798767%)" offset="0"/><stop stop-opacity="1" stop-color="rgb(55.299377%, 41.19873%, 7.798767%)" offset="0.125"/><stop stop-opacity="1" stop-color="rgb(55.299377%, 41.19873%, 7.798767%)" offset="0.1875"/><stop stop-opacity="1" stop-color="rgb(55.299377%, 41.19873%, 7.798767%)" offset="0.203125"/><stop stop-opacity="1" stop-color="rgb(55.476379%, 41.360474%, 7.846069%)" offset="0.210937"/><stop stop-opacity="1" stop-color="rgb(55.85022%, 41.700745%, 7.945251%)" offset="0.21875"/><stop stop-opacity="1" stop-color="rgb(56.240845%, 42.056274%, 8.050537%)" offset="0.226562"/><stop stop-opacity="1" stop-color="rgb(56.63147%, 42.41333%, 8.154297%)" offset="0.230469"/><stop stop-opacity="1" stop-color="rgb(56.828308%, 42.591858%, 8.206177%)" offset="0.234375"/><stop stop-opacity="1" stop-color="rgb(57.023621%, 42.76886%, 8.258057%)" offset="0.242187"/><stop stop-opacity="1" stop-color="rgb(57.414246%, 43.125916%, 8.363342%)" offset="0.25"/><stop stop-opacity="1" stop-color="rgb(57.804871%, 43.481445%, 8.467102%)" offset="0.257812"/><stop stop-opacity="1" stop-color="rgb(58.195496%, 43.838501%, 8.570862%)" offset="0.261719"/><stop stop-opacity="1" stop-color="rgb(58.392334%, 44.017029%, 8.624268%)" offset="0.265625"/><stop stop-opacity="1" stop-color="rgb(58.587646%, 44.195557%, 8.676147%)" offset="0.273437"/><stop stop-opacity="1" stop-color="rgb(58.978271%, 44.551086%, 8.779907%)" offset="0.28125"/><stop stop-opacity="1" stop-color="rgb(59.368896%, 44.908142%, 8.885193%)" offset="0.285156"/><stop stop-opacity="1" stop-color="rgb(59.565735%, 45.08667%, 8.937073%)" offset="0.289062"/><stop stop-opacity="1" stop-color="rgb(59.761047%, 45.263672%, 8.988953%)" offset="0.296875"/><stop stop-opacity="1" stop-color="rgb(60.151672%, 45.620728%, 9.092712%)" offset="0.304687"/><stop stop-opacity="1" stop-color="rgb(60.542297%, 45.976257%, 9.197998%)" offset="0.308594"/><stop stop-opacity="1" stop-color="rgb(60.739136%, 46.154785%, 9.249878%)" offset="0.3125"/><stop stop-opacity="1" stop-color="rgb(60.934448%, 46.333313%, 9.301758%)" offset="0.320312"/><stop stop-opacity="1" stop-color="rgb(61.325073%, 46.688843%, 9.405518%)" offset="0.328125"/><stop stop-opacity="1" stop-color="rgb(61.715698%, 47.045898%, 9.510803%)" offset="0.332031"/><stop stop-opacity="1" stop-color="rgb(61.912537%, 47.224426%, 9.562683%)" offset="0.335937"/><stop stop-opacity="1" stop-color="rgb(62.107849%, 47.401428%, 9.614563%)" offset="0.34375"/><stop stop-opacity="1" stop-color="rgb(62.498474%, 47.758484%, 9.718323%)" offset="0.351562"/><stop stop-opacity="1" stop-color="rgb(62.889099%, 48.114014%, 9.823608%)" offset="0.355469"/><stop stop-opacity="1" stop-color="rgb(63.085938%, 48.292542%, 9.875488%)" offset="0.359375"/><stop stop-opacity="1" stop-color="rgb(63.28125%, 48.471069%, 9.927368%)" offset="0.367187"/><stop stop-opacity="1" stop-color="rgb(63.671875%, 48.826599%, 10.031128%)" offset="0.375"/><stop stop-opacity="1" stop-color="rgb(64.0625%, 49.183655%, 10.136414%)" offset="0.382812"/><stop stop-opacity="1" stop-color="rgb(64.794922%, 49.891663%, 10.357666%)" offset="0.386719"/><stop stop-opacity="1" stop-color="rgb(65.332031%, 50.421143%, 10.528564%)" offset="0.390625"/><stop stop-opacity="1" stop-color="rgb(65.907288%, 50.990295%, 10.71167%)" offset="0.394531"/><stop stop-opacity="1" stop-color="rgb(66.48407%, 51.560974%, 10.896301%)" offset="0.398437"/><stop stop-opacity="1" stop-color="rgb(67.059326%, 52.130127%, 11.079407%)" offset="0.402344"/><stop stop-opacity="1" stop-color="rgb(67.636108%, 52.700806%, 11.264038%)" offset="0.40625"/><stop stop-opacity="1" stop-color="rgb(68.211365%, 53.269958%, 11.447144%)" offset="0.410156"/><stop stop-opacity="1" stop-color="rgb(68.788147%, 53.840637%, 11.631775%)" offset="0.414062"/><stop stop-opacity="1" stop-color="rgb(69.364929%, 54.40979%, 11.81488%)" offset="0.417969"/><stop stop-opacity="1" stop-color="rgb(69.941711%, 54.980469%, 11.999512%)" offset="0.421875"/><stop stop-opacity="1" stop-color="rgb(70.516968%, 55.551147%, 12.182617%)" offset="0.425781"/><stop stop-opacity="1" stop-color="rgb(71.09375%, 56.121826%, 12.367249%)" offset="0.429687"/><stop stop-opacity="1" stop-color="rgb(71.669006%, 56.690979%, 12.550354%)" offset="0.433594"/><stop stop-opacity="1" stop-color="rgb(72.245789%, 57.261658%, 12.734985%)" offset="0.4375"/><stop stop-opacity="1" stop-color="rgb(72.821045%, 57.830811%, 12.918091%)" offset="0.441406"/><stop stop-opacity="1" stop-color="rgb(73.397827%, 58.401489%, 13.102722%)" offset="0.445312"/><stop stop-opacity="1" stop-color="rgb(73.974609%, 58.970642%, 13.285828%)" offset="0.449219"/><stop stop-opacity="1" stop-color="rgb(74.551392%, 59.541321%, 13.470459%)" offset="0.453125"/><stop stop-opacity="1" stop-color="rgb(75.126648%, 60.110474%, 13.653564%)" offset="0.457031"/><stop stop-opacity="1" stop-color="rgb(75.70343%, 60.681152%, 13.838196%)" offset="0.460937"/><stop stop-opacity="1" stop-color="rgb(76.278687%, 61.251831%, 14.021301%)" offset="0.464844"/><stop stop-opacity="1" stop-color="rgb(76.855469%, 61.82251%, 14.205933%)" offset="0.46875"/><stop stop-opacity="1" stop-color="rgb(77.430725%, 62.391663%, 14.389038%)" offset="0.472656"/><stop stop-opacity="1" stop-color="rgb(78.007507%, 62.962341%, 14.573669%)" offset="0.476562"/><stop stop-opacity="1" stop-color="rgb(78.58429%, 63.531494%, 14.756775%)" offset="0.480469"/><stop stop-opacity="1" stop-color="rgb(79.161072%, 64.102173%, 14.941406%)" offset="0.484375"/><stop stop-opacity="1" stop-color="rgb(79.736328%, 64.671326%, 15.126038%)" offset="0.488281"/><stop stop-opacity="1" stop-color="rgb(80.31311%, 65.242004%, 15.310669%)" offset="0.492187"/><stop stop-opacity="1" stop-color="rgb(80.888367%, 65.811157%, 15.493774%)" offset="0.496094"/><stop stop-opacity="1" stop-color="rgb(81.465149%, 66.381836%, 15.678406%)" offset="0.5"/><stop stop-opacity="1" stop-color="rgb(82.040405%, 66.952515%, 15.861511%)" offset="0.503906"/><stop stop-opacity="1" stop-color="rgb(82.617188%, 67.523193%, 16.046143%)" offset="0.507812"/><stop stop-opacity="1" stop-color="rgb(83.192444%, 68.092346%, 16.229248%)" offset="0.511719"/><stop stop-opacity="1" stop-color="rgb(83.769226%, 68.663025%, 16.413879%)" offset="0.515625"/><stop stop-opacity="1" stop-color="rgb(84.346008%, 69.232178%, 16.596985%)" offset="0.519531"/><stop stop-opacity="1" stop-color="rgb(84.922791%, 69.802856%, 16.781616%)" offset="0.523437"/><stop stop-opacity="1" stop-color="rgb(85.498047%, 70.372009%, 16.964722%)" offset="0.527344"/><stop stop-opacity="1" stop-color="rgb(86.074829%, 70.942688%, 17.149353%)" offset="0.53125"/><stop stop-opacity="1" stop-color="rgb(86.650085%, 71.511841%, 17.332458%)" offset="0.535156"/><stop stop-opacity="1" stop-color="rgb(87.226868%, 72.08252%, 17.51709%)" offset="0.539062"/><stop stop-opacity="1" stop-color="rgb(87.802124%, 72.653198%, 17.700195%)" offset="0.542969"/><stop stop-opacity="1" stop-color="rgb(88.378906%, 73.223877%, 17.884827%)" offset="0.546875"/><stop stop-opacity="1" stop-color="rgb(88.955688%, 73.79303%, 18.067932%)" offset="0.550781"/><stop stop-opacity="1" stop-color="rgb(89.532471%, 74.363708%, 18.252563%)" offset="0.554688"/><stop stop-opacity="1" stop-color="rgb(90.107727%, 74.932861%, 18.435669%)" offset="0.558594"/><stop stop-opacity="1" stop-color="rgb(90.684509%, 75.50354%, 18.6203%)" offset="0.5625"/><stop stop-opacity="1" stop-color="rgb(91.259766%, 76.072693%, 18.803406%)" offset="0.566406"/><stop stop-opacity="1" stop-color="rgb(91.836548%, 76.643372%, 18.988037%)" offset="0.570312"/><stop stop-opacity="1" stop-color="rgb(92.167664%, 76.971436%, 19.093323%)" offset="0.574219"/><stop stop-opacity="1" stop-color="rgb(92.498779%, 77.2995%, 19.198608%)" offset="0.578125"/><stop stop-opacity="1" stop-color="rgb(92.498779%, 77.2995%, 19.198608%)" offset="0.59375"/><stop stop-opacity="1" stop-color="rgb(92.498779%, 77.2995%, 19.198608%)" offset="0.625"/><stop stop-opacity="1" stop-color="rgb(92.498779%, 77.2995%, 19.198608%)" offset="0.75"/><stop stop-opacity="1" stop-color="rgb(92.498779%, 77.2995%, 19.198608%)" offset="1"/></linearGradient><clipPath id="1e1081478b"><path d="M 146.207031 192.441406 L 333.679688 192.441406 L 333.679688 211.761719 L 146.207031 211.761719 Z M 146.207031 192.441406 " clip-rule="nonzero"/></clipPath></defs><g clip-path="url(#2c0ae83837)"><g clip-path="url(#1e9311e35f)"><g clip-path="url(#0cf4b3e415)"><g clip-path="url(#d685208ef2)"><path fill="url(#980ede4dc2)" d="M 267.652344 -38.195312 L 199.78125 86.101562 L 331.523438 158.042969 L 399.398438 33.746094 Z M 267.652344 -38.195312 " fill-rule="nonzero"/></g></g></g></g><g clip-path="url(#76f9248e37)"><g clip-path="url(#b64a6c48bb)"><g clip-path="url(#ecfbe70ed2)"><g clip-path="url(#e3c2c971ec)"><path fill="url(#c29d835b24)" d="M 112.398438 -6.429688 L 24.515625 154.511719 L 201.492188 251.152344 L 289.375 90.210938 Z M 112.398438 -6.429688 " fill-rule="nonzero"/></g></g></g></g><g fill="#ecc531" fill-opacity="1"><g transform="translate(109.100932, 178.133983)"><g><path d="M 1.828125 -48.5 L 32.25 -48.5 C 35.082031 -48.5 37.664062 -47.804688 40 -46.421875 C 42.332031 -45.046875 44.1875 -43.191406 45.5625 -40.859375 C 46.945312 -38.523438 47.640625 -35.9375 47.640625 -33.09375 L 47.640625 0 L 34.375 0 L 34.375 -29.328125 C 34.375 -30.867188 33.976562 -32.253906 33.1875 -33.484375 C 32.394531 -34.722656 31.347656 -35.707031 30.046875 -36.4375 C 28.753906 -37.175781 27.296875 -37.546875 25.671875 -37.546875 L 15.09375 -37.546875 L 15.09375 0 L 1.828125 0 Z M 1.828125 -48.5 "/></g></g></g><g fill="#ecc531" fill-opacity="1"><g transform="translate(158.195021, 178.133983)"><g><path d="M 28.90625 -38.8125 C 26.0625 -38.8125 23.582031 -38.171875 21.46875 -36.890625 C 19.363281 -35.617188 17.734375 -33.878906 16.578125 -31.671875 C 15.421875 -29.460938 14.84375 -26.957031 14.84375 -24.15625 C 14.84375 -21.5625 15.421875 -19.15625 16.578125 -16.9375 C 17.734375 -14.726562 19.363281 -12.960938 21.46875 -11.640625 C 23.582031 -10.328125 26.0625 -9.671875 28.90625 -9.671875 C 31.78125 -9.671875 34.257812 -10.257812 36.34375 -11.4375 C 38.4375 -12.613281 40.0625 -14.285156 41.21875 -16.453125 C 42.375 -18.628906 42.953125 -21.195312 42.953125 -24.15625 C 42.953125 -26.988281 42.375 -29.507812 41.21875 -31.71875 C 40.0625 -33.9375 38.425781 -35.671875 36.3125 -36.921875 C 34.207031 -38.179688 31.738281 -38.8125 28.90625 -38.8125 Z M 28.90625 1.28125 C 25.207031 1.28125 21.675781 0.742188 18.3125 -0.328125 C 14.945312 -1.410156 11.957031 -3.023438 9.34375 -5.171875 C 6.726562 -7.316406 4.660156 -9.972656 3.140625 -13.140625 C 1.617188 -16.304688 0.859375 -19.976562 0.859375 -24.15625 C 0.859375 -28.25 1.617188 -31.890625 3.140625 -35.078125 C 4.660156 -38.265625 6.726562 -40.953125 9.34375 -43.140625 C 11.957031 -45.328125 14.945312 -46.976562 18.3125 -48.09375 C 21.675781 -49.207031 25.207031 -49.765625 28.90625 -49.765625 C 32.632812 -49.765625 36.179688 -49.207031 39.546875 -48.09375 C 42.910156 -46.976562 45.898438 -45.328125 48.515625 -43.140625 C 51.140625 -40.953125 53.203125 -38.265625 54.703125 -35.078125 C 56.203125 -31.890625 56.953125 -28.25 56.953125 -24.15625 C 56.953125 -19.976562 56.203125 -16.296875 54.703125 -13.109375 C 53.203125 -9.921875 51.128906 -7.265625 48.484375 -5.140625 C 45.847656 -3.015625 42.859375 -1.410156 39.515625 -0.328125 C 36.171875 0.742188 32.632812 1.28125 28.90625 1.28125 Z M 28.90625 1.28125 "/></g></g></g><g fill="#ecc531" fill-opacity="1"><g transform="translate(215.988554, 178.133983)"><g><path d="M 15.09375 -37.546875 L 15.09375 0 L 1.828125 0 L 1.828125 -48.5 L 32.546875 -48.5 C 35.347656 -48.5 37.914062 -47.835938 40.25 -46.515625 C 42.582031 -45.191406 44.4375 -43.40625 45.8125 -41.15625 C 47.195312 -38.90625 47.890625 -36.398438 47.890625 -33.640625 C 47.890625 -31.328125 47.335938 -29.144531 46.234375 -27.09375 C 45.140625 -25.050781 43.273438 -23.34375 40.640625 -21.96875 C 42.910156 -21.238281 44.765625 -20.09375 46.203125 -18.53125 C 47.648438 -16.96875 48.71875 -15.210938 49.40625 -13.265625 C 50.09375 -11.316406 50.4375 -9.390625 50.4375 -7.484375 C 50.4375 -5.085938 49.867188 -2.785156 48.734375 -0.578125 C 47.597656 1.628906 46.054688 3.59375 44.109375 5.3125 C 42.160156 7.039062 40 8.410156 37.625 9.421875 C 35.257812 10.441406 32.816406 10.953125 30.296875 10.953125 L 15.09375 10.953125 L 15.09375 0 L 28.234375 0 C 30.503906 0 32.441406 -0.65625 34.046875 -1.96875 C 35.648438 -3.289062 36.453125 -5.191406 36.453125 -7.671875 C 36.453125 -9.210938 36.082031 -10.578125 35.34375 -11.765625 C 34.613281 -12.960938 33.628906 -13.90625 32.390625 -14.59375 C 31.160156 -15.289062 29.816406 -15.640625 28.359375 -15.640625 L 18.015625 -15.640625 L 18.015625 -26.59375 L 28.40625 -26.59375 C 30.15625 -26.59375 31.492188 -27.097656 32.421875 -28.109375 C 33.359375 -29.117188 33.828125 -30.457031 33.828125 -32.125 C 33.828125 -33.625 33.441406 -34.898438 32.671875 -35.953125 C 31.898438 -37.015625 30.5 -37.546875 28.46875 -37.546875 Z M 15.09375 -37.546875 "/></g></g></g><g fill="#ecc531" fill-opacity="1"><g transform="translate(267.272703, 178.133983)"><g><path d="M 1.828125 0 L 1.828125 -48.5 L 29.140625 -48.5 C 32.390625 -48.5 35.398438 -47.859375 38.171875 -46.578125 C 40.953125 -45.296875 43.382812 -43.550781 45.46875 -41.34375 C 47.5625 -39.132812 49.1875 -36.585938 50.34375 -33.703125 C 51.5 -30.828125 52.078125 -27.785156 52.078125 -24.578125 C 52.078125 -21.335938 51.476562 -18.242188 50.28125 -15.296875 C 49.09375 -12.359375 47.441406 -9.734375 45.328125 -7.421875 C 43.222656 -5.109375 40.800781 -3.289062 38.0625 -1.96875 C 35.320312 -0.65625 32.410156 0 29.328125 0 L 18.015625 0 L 18.015625 -10.953125 L 24.953125 -10.953125 C 27.378906 -10.953125 29.585938 -11.566406 31.578125 -12.796875 C 33.566406 -14.035156 35.148438 -15.679688 36.328125 -17.734375 C 37.503906 -19.785156 38.09375 -22.003906 38.09375 -24.390625 C 38.09375 -26.222656 37.695312 -27.9375 36.90625 -29.53125 C 36.113281 -31.132812 35.054688 -32.535156 33.734375 -33.734375 C 32.421875 -34.929688 30.953125 -35.863281 29.328125 -36.53125 C 27.703125 -37.207031 26.054688 -37.546875 24.390625 -37.546875 L 15.09375 -37.546875 L 15.09375 0 Z M 1.828125 0 "/></g></g></g><g fill="#ecc531" fill-opacity="1"><g transform="translate(320.199416, 178.133983)"><g><path d="M 32.546875 -10.953125 L 0.859375 -10.953125 L 0.859375 -26.65625 C 0.859375 -29.851562 1.472656 -32.851562 2.703125 -35.65625 C 3.941406 -38.457031 5.664062 -40.910156 7.875 -43.015625 C 10.082031 -45.128906 12.632812 -46.78125 15.53125 -47.96875 C 18.4375 -49.164062 21.554688 -49.765625 24.890625 -49.765625 C 28.171875 -49.765625 31.25 -49.164062 34.125 -47.96875 C 37.007812 -46.78125 39.546875 -45.117188 41.734375 -42.984375 C 43.929688 -40.859375 45.644531 -38.394531 46.875 -35.59375 C 48.113281 -32.789062 48.734375 -29.789062 48.734375 -26.59375 L 48.734375 10.953125 L 35.46875 10.953125 L 35.46875 -27.265625 C 35.46875 -29.410156 34.988281 -31.351562 34.03125 -33.09375 C 33.082031 -34.84375 31.816406 -36.234375 30.234375 -37.265625 C 28.648438 -38.296875 26.890625 -38.8125 24.953125 -38.8125 C 22.960938 -38.8125 21.144531 -38.304688 19.5 -37.296875 C 17.851562 -36.285156 16.539062 -34.925781 15.5625 -33.21875 C 14.59375 -31.519531 14.109375 -29.632812 14.109375 -27.5625 L 14.109375 -21.90625 L 32.546875 -21.90625 Z M 32.546875 -10.953125 "/></g></g></g><g clip-path="url(#1e1081478b)"><path fill="#ecc531" d="M 146.207031 192.441406 L 333.65625 192.441406 L 333.65625 211.761719 L 146.207031 211.761719 Z M 146.207031 192.441406 " fill-opacity="1" fill-rule="nonzero"/></g><g fill="#000000" fill-opacity="1"><g transform="translate(203.777927, 206.299384)"><g><path d="M 0.59375 0 L 0.59375 -0.359375 L 1.84375 -0.453125 L 1.84375 -11.125 L 0.59375 -11.203125 L 0.59375 -11.578125 L 8.25 -11.578125 L 8.34375 -8.265625 L 7.890625 -8.265625 C 7.847656 -8.722656 7.78125 -9.113281 7.6875 -9.4375 C 7.59375 -9.757812 7.453125 -10.050781 7.265625 -10.3125 C 7.078125 -10.582031 6.820312 -10.785156 6.5 -10.921875 C 6.175781 -11.054688 5.78125 -11.125 5.3125 -11.125 C 4.695312 -11.125 4.234375 -11.097656 3.921875 -11.046875 L 3.921875 -6.046875 C 4.054688 -6.046875 4.132812 -6.046875 4.15625 -6.046875 C 4.539062 -6.046875 4.84375 -6.0625 5.0625 -6.09375 C 5.28125 -6.132812 5.476562 -6.222656 5.65625 -6.359375 C 5.832031 -6.492188 5.957031 -6.691406 6.03125 -6.953125 C 6.101562 -7.210938 6.140625 -7.554688 6.140625 -7.984375 L 6.578125 -7.984375 L 6.578125 -3.640625 L 6.140625 -3.640625 C 6.140625 -4.378906 6.015625 -4.890625 5.765625 -5.171875 C 5.523438 -5.460938 5.125 -5.609375 4.5625 -5.609375 L 3.921875 -5.59375 L 3.921875 -0.453125 L 5.484375 -0.359375 L 5.484375 0 Z M 0.59375 0 "/></g></g></g><g fill="#000000" fill-opacity="1"><g transform="translate(215.481464, 206.299384)"><g><path d="M 0.78125 -5.75 C 0.78125 -6.863281 0.976562 -7.878906 1.375 -8.796875 C 1.78125 -9.710938 2.367188 -10.453125 3.140625 -11.015625 C 3.921875 -11.578125 4.816406 -11.859375 5.828125 -11.859375 C 7.347656 -11.859375 8.570312 -11.316406 9.5 -10.234375 C 10.4375 -9.160156 10.90625 -7.753906 10.90625 -6.015625 C 10.90625 -5.367188 10.84375 -4.742188 10.71875 -4.140625 C 10.59375 -3.546875 10.394531 -2.976562 10.125 -2.4375 C 9.851562 -1.90625 9.523438 -1.4375 9.140625 -1.03125 C 8.753906 -0.632812 8.28125 -0.316406 7.71875 -0.078125 C 7.15625 0.160156 6.539062 0.28125 5.875 0.28125 C 4.289062 0.28125 3.046875 -0.269531 2.140625 -1.375 C 1.234375 -2.476562 0.78125 -3.9375 0.78125 -5.75 Z M 2.953125 -5.921875 C 2.953125 -4.859375 3.054688 -3.898438 3.265625 -3.046875 C 3.472656 -2.191406 3.796875 -1.492188 4.234375 -0.953125 C 4.679688 -0.421875 5.210938 -0.15625 5.828125 -0.15625 C 6.734375 -0.15625 7.441406 -0.679688 7.953125 -1.734375 C 8.472656 -2.796875 8.734375 -4.195312 8.734375 -5.9375 C 8.734375 -7.757812 8.476562 -9.125 7.96875 -10.03125 C 7.46875 -10.945312 6.769531 -11.40625 5.875 -11.40625 C 5.5625 -11.40625 5.257812 -11.335938 4.96875 -11.203125 C 4.6875 -11.078125 4.421875 -10.867188 4.171875 -10.578125 C 3.921875 -10.296875 3.707031 -9.945312 3.53125 -9.53125 C 3.351562 -9.113281 3.210938 -8.597656 3.109375 -7.984375 C 3.003906 -7.367188 2.953125 -6.679688 2.953125 -5.921875 Z M 2.953125 -5.921875 "/></g></g></g><g fill="#000000" fill-opacity="1"><g transform="translate(230.113755, 206.299384)"><g><path d="M 0.59375 0 L 0.59375 -0.359375 L 1.84375 -0.453125 L 1.84375 -11.125 L 0.59375 -11.203125 L 0.59375 -11.578125 L 4.921875 -11.578125 C 5.515625 -11.578125 6.050781 -11.523438 6.53125 -11.421875 C 7.019531 -11.316406 7.453125 -11.148438 7.828125 -10.921875 C 8.210938 -10.703125 8.507812 -10.40625 8.71875 -10.03125 C 8.925781 -9.65625 9.03125 -9.210938 9.03125 -8.703125 C 9.03125 -7.773438 8.71875 -7.050781 8.09375 -6.53125 C 7.476562 -6.019531 6.640625 -5.691406 5.578125 -5.546875 L 5.578125 -5.515625 C 6.035156 -5.515625 6.429688 -5.441406 6.765625 -5.296875 C 7.097656 -5.160156 7.359375 -4.984375 7.546875 -4.765625 C 7.742188 -4.546875 7.9375 -4.265625 8.125 -3.921875 C 8.238281 -3.679688 8.40625 -3.316406 8.625 -2.828125 C 8.84375 -2.335938 9.0625 -1.90625 9.28125 -1.53125 C 9.445312 -1.21875 9.625 -0.976562 9.8125 -0.8125 C 10.007812 -0.644531 10.171875 -0.539062 10.296875 -0.5 C 10.429688 -0.46875 10.582031 -0.453125 10.75 -0.453125 L 10.75 0 L 9.40625 0 C 8.988281 0 8.660156 -0.0234375 8.421875 -0.078125 C 8.179688 -0.128906 7.941406 -0.25 7.703125 -0.4375 C 7.472656 -0.632812 7.265625 -0.90625 7.078125 -1.25 C 6.898438 -1.59375 6.585938 -2.3125 6.140625 -3.40625 C 6.078125 -3.570312 5.984375 -3.78125 5.859375 -4.03125 C 5.742188 -4.289062 5.640625 -4.484375 5.546875 -4.609375 C 5.460938 -4.742188 5.359375 -4.882812 5.234375 -5.03125 C 5.109375 -5.175781 4.984375 -5.28125 4.859375 -5.34375 C 4.734375 -5.40625 4.597656 -5.4375 4.453125 -5.4375 C 4.222656 -5.4375 4.046875 -5.4375 3.921875 -5.4375 L 3.921875 -0.453125 L 5.171875 -0.359375 L 5.171875 0 Z M 3.921875 -5.890625 C 3.972656 -5.890625 4.082031 -5.890625 4.25 -5.890625 C 5.207031 -5.890625 5.882812 -6.125 6.28125 -6.59375 C 6.675781 -7.0625 6.875 -7.757812 6.875 -8.6875 C 6.875 -9.15625 6.816406 -9.550781 6.703125 -9.875 C 6.585938 -10.195312 6.425781 -10.445312 6.21875 -10.625 C 6.019531 -10.800781 5.796875 -10.925781 5.546875 -11 C 5.296875 -11.082031 5.015625 -11.125 4.703125 -11.125 C 4.484375 -11.125 4.222656 -11.097656 3.921875 -11.046875 Z M 3.921875 -5.890625 "/></g></g></g><g fill="#000000" fill-opacity="1"><g transform="translate(243.512891, 206.299384)"><g/></g></g><g fill="#000000" fill-opacity="1"><g transform="translate(250.210792, 206.299384)"><g><path d="M -0.296875 -11.203125 L -0.296875 -11.578125 L 4.453125 -11.578125 L 4.453125 -11.203125 L 3.203125 -11.125 L 5.9375 -6.203125 L 5.984375 -6.203125 L 8.265625 -11.125 L 7.125 -11.203125 L 7.125 -11.578125 L 9.828125 -11.578125 L 9.828125 -11.203125 L 8.8125 -11.125 L 6.28125 -5.703125 L 6.28125 -0.453125 L 7.53125 -0.359375 L 7.53125 0 L 2.96875 0 L 2.96875 -0.359375 L 4.203125 -0.453125 L 4.203125 -5.21875 L 0.796875 -11.125 Z M -0.296875 -11.203125 "/></g></g></g><g fill="#000000" fill-opacity="1"><g transform="translate(263.042023, 206.299384)"><g><path d="M 0.78125 -5.75 C 0.78125 -6.863281 0.976562 -7.878906 1.375 -8.796875 C 1.78125 -9.710938 2.367188 -10.453125 3.140625 -11.015625 C 3.921875 -11.578125 4.816406 -11.859375 5.828125 -11.859375 C 7.347656 -11.859375 8.570312 -11.316406 9.5 -10.234375 C 10.4375 -9.160156 10.90625 -7.753906 10.90625 -6.015625 C 10.90625 -5.367188 10.84375 -4.742188 10.71875 -4.140625 C 10.59375 -3.546875 10.394531 -2.976562 10.125 -2.4375 C 9.851562 -1.90625 9.523438 -1.4375 9.140625 -1.03125 C 8.753906 -0.632812 8.28125 -0.316406 7.71875 -0.078125 C 7.15625 0.160156 6.539062 0.28125 5.875 0.28125 C 4.289062 0.28125 3.046875 -0.269531 2.140625 -1.375 C 1.234375 -2.476562 0.78125 -3.9375 0.78125 -5.75 Z M 2.953125 -5.921875 C 2.953125 -4.859375 3.054688 -3.898438 3.265625 -3.046875 C 3.472656 -2.191406 3.796875 -1.492188 4.234375 -0.953125 C 4.679688 -0.421875 5.210938 -0.15625 5.828125 -0.15625 C 6.734375 -0.15625 7.441406 -0.679688 7.953125 -1.734375 C 8.472656 -2.796875 8.734375 -4.195312 8.734375 -5.9375 C 8.734375 -7.757812 8.476562 -9.125 7.96875 -10.03125 C 7.46875 -10.945312 6.769531 -11.40625 5.875 -11.40625 C 5.5625 -11.40625 5.257812 -11.335938 4.96875 -11.203125 C 4.6875 -11.078125 4.421875 -10.867188 4.171875 -10.578125 C 3.921875 -10.296875 3.707031 -9.945312 3.53125 -9.53125 C 3.351562 -9.113281 3.210938 -8.597656 3.109375 -7.984375 C 3.003906 -7.367188 2.953125 -6.679688 2.953125 -5.921875 Z M 2.953125 -5.921875 "/></g></g></g><g fill="#000000" fill-opacity="1"><g transform="translate(277.674312, 206.299384)"><g><path d="M 0.390625 -11.203125 L 0.390625 -11.578125 L 4.96875 -11.578125 L 4.96875 -11.203125 L 3.71875 -11.125 L 3.71875 -3.546875 C 3.71875 -3.328125 3.722656 -3.128906 3.734375 -2.953125 C 3.742188 -2.785156 3.769531 -2.582031 3.8125 -2.34375 C 3.851562 -2.101562 3.910156 -1.890625 3.984375 -1.703125 C 4.054688 -1.523438 4.160156 -1.34375 4.296875 -1.15625 C 4.441406 -0.96875 4.609375 -0.8125 4.796875 -0.6875 C 4.992188 -0.570312 5.238281 -0.472656 5.53125 -0.390625 C 5.832031 -0.316406 6.164062 -0.28125 6.53125 -0.28125 C 6.976562 -0.28125 7.375 -0.347656 7.71875 -0.484375 C 8.0625 -0.617188 8.335938 -0.796875 8.546875 -1.015625 C 8.765625 -1.242188 8.941406 -1.515625 9.078125 -1.828125 C 9.210938 -2.148438 9.304688 -2.472656 9.359375 -2.796875 C 9.421875 -3.128906 9.453125 -3.488281 9.453125 -3.875 L 9.453125 -11.125 L 8.203125 -11.203125 L 8.203125 -11.578125 L 11.203125 -11.578125 L 11.203125 -11.203125 L 9.96875 -11.125 L 9.96875 -3.703125 C 9.96875 -3.304688 9.9375 -2.929688 9.875 -2.578125 C 9.8125 -2.234375 9.695312 -1.878906 9.53125 -1.515625 C 9.363281 -1.160156 9.144531 -0.851562 8.875 -0.59375 C 8.613281 -0.332031 8.257812 -0.125 7.8125 0.03125 C 7.363281 0.195312 6.851562 0.28125 6.28125 0.28125 C 5.675781 0.28125 5.132812 0.238281 4.65625 0.15625 C 4.1875 0.0703125 3.789062 -0.0351562 3.46875 -0.171875 C 3.15625 -0.316406 2.878906 -0.5 2.640625 -0.71875 C 2.410156 -0.945312 2.226562 -1.171875 2.09375 -1.390625 C 1.96875 -1.617188 1.867188 -1.882812 1.796875 -2.1875 C 1.722656 -2.488281 1.675781 -2.765625 1.65625 -3.015625 C 1.644531 -3.265625 1.640625 -3.554688 1.640625 -3.890625 L 1.640625 -11.125 Z M 0.390625 -11.203125 "/></g></g></g></svg>