<svg xmlns="http://www.w3.org/2000/svg" xmlns:xlink="http://www.w3.org/1999/xlink" width="50" zoomAndPan="magnify" viewBox="0 0 37.5 37.499999" height="50" preserveAspectRatio="xMidYMid meet" version="1.0"><defs><g/><clipPath id="eca4e163cc"><path d="M 17 13 L 24 13 L 24 19 L 17 19 Z M 17 13 " clip-rule="nonzero"/></clipPath><clipPath id="7169774bb0"><path d="M 13.8125 9.535156 L 24.207031 15.210938 L 17.464844 27.550781 L 7.074219 21.875 Z M 13.8125 9.535156 " clip-rule="nonzero"/></clipPath><clipPath id="4df6c25144"><path d="M 13.8125 9.535156 L 24.207031 15.210938 L 17.464844 27.550781 L 7.074219 21.875 Z M 13.8125 9.535156 " clip-rule="nonzero"/></clipPath><clipPath id="612c8933dc"><path d="M 23.988281 15.261719 C 23.96875 15.082031 23.078125 15.050781 22.972656 15.046875 C 22.425781 15.027344 21.964844 15.101562 21.640625 15.175781 C 21.496094 14.964844 21.347656 14.75 21.203125 14.539062 C 21.269531 14.527344 21.332031 14.515625 21.394531 14.507812 C 21.390625 14.460938 21.371094 14.390625 21.332031 14.316406 C 21.285156 14.226562 21.226562 14.167969 21.1875 14.136719 C 21.128906 14.148438 21.066406 14.164062 21.007812 14.175781 C 20.746094 13.8125 20.484375 13.449219 20.222656 13.085938 C 20.21875 13.082031 20.21875 13.082031 20.214844 13.082031 C 19.96875 13.039062 19.71875 13.042969 19.46875 13.027344 C 19.769531 13.539062 20.066406 14.050781 20.367188 14.558594 L 20.25 14.589844 C 20.261719 14.617188 20.277344 14.644531 20.292969 14.671875 C 20.339844 14.675781 20.390625 14.679688 20.4375 14.679688 C 20.542969 14.863281 20.652344 15.046875 20.757812 15.226562 L 18.234375 15.75 C 18.089844 15.554688 17.949219 15.363281 17.804688 15.167969 C 17.625 15.144531 17.445312 15.117188 17.265625 15.089844 L 17.742188 15.9375 C 17.664062 15.964844 17.589844 15.992188 17.511719 16.019531 C 17.515625 16.039062 17.515625 16.058594 17.519531 16.082031 C 17.597656 16.09375 17.671875 16.105469 17.75 16.117188 C 17.636719 16.398438 17.527344 16.679688 17.414062 16.960938 C 17.589844 16.914062 17.761719 16.863281 17.933594 16.816406 C 18.050781 16.59375 18.167969 16.371094 18.28125 16.148438 L 20.851562 16.054688 L 20.675781 16.597656 L 20.558594 16.628906 L 20.542969 16.683594 C 20.5625 16.699219 20.582031 16.710938 20.601562 16.722656 C 20.375 17.335938 20.144531 17.945312 19.917969 18.554688 C 20.007812 18.535156 20.082031 18.515625 20.132812 18.5 C 20.292969 18.453125 20.457031 18.398438 20.621094 18.359375 C 20.644531 18.351562 20.667969 18.347656 20.6875 18.34375 C 20.902344 17.898438 21.117188 17.457031 21.328125 17.015625 C 21.390625 17.011719 21.453125 17.011719 21.515625 17.011719 C 21.550781 16.972656 21.597656 16.90625 21.625 16.8125 C 21.648438 16.738281 21.652344 16.671875 21.652344 16.628906 C 21.589844 16.617188 21.527344 16.605469 21.464844 16.597656 C 21.558594 16.367188 21.652344 16.140625 21.746094 15.910156 C 22.117188 15.898438 22.628906 15.84375 23.203125 15.660156 C 23.445312 15.585938 24.003906 15.410156 23.988281 15.261719 Z M 23.988281 15.261719 " clip-rule="nonzero"/></clipPath><linearGradient x1="828.472643" gradientTransform="matrix(0.00483213, 0.00263867, -0.00263867, 0.00483213, 13.916465, 9.641955)" y1="449.21799" x2="2384.224632" gradientUnits="userSpaceOnUse" y2="449.21799" id="2d4b4c88ee"><stop stop-opacity="1" stop-color="rgb(55.299377%, 41.19873%, 7.798767%)" offset="0"/><stop stop-opacity="1" stop-color="rgb(55.477905%, 41.360474%, 7.846069%)" offset="0.125"/><stop stop-opacity="1" stop-color="rgb(55.799866%, 41.654968%, 7.933044%)" offset="0.132812"/><stop stop-opacity="1" stop-color="rgb(56.089783%, 41.918945%, 8.009338%)" offset="0.140625"/><stop stop-opacity="1" stop-color="rgb(56.3797%, 42.182922%, 8.087158%)" offset="0.148437"/><stop stop-opacity="1" stop-color="rgb(56.669617%, 42.446899%, 8.163452%)" offset="0.15625"/><stop stop-opacity="1" stop-color="rgb(56.958008%, 42.710876%, 8.241272%)" offset="0.164062"/><stop stop-opacity="1" stop-color="rgb(57.247925%, 42.974854%, 8.319092%)" offset="0.171875"/><stop stop-opacity="1" stop-color="rgb(57.537842%, 43.237305%, 8.395386%)" offset="0.179687"/><stop stop-opacity="1" stop-color="rgb(57.826233%, 43.501282%, 8.473206%)" offset="0.1875"/><stop stop-opacity="1" stop-color="rgb(58.11615%, 43.765259%, 8.5495%)" offset="0.195312"/><stop stop-opacity="1" stop-color="rgb(58.406067%, 44.029236%, 8.627319%)" offset="0.203125"/><stop stop-opacity="1" stop-color="rgb(58.694458%, 44.293213%, 8.705139%)" offset="0.210937"/><stop stop-opacity="1" stop-color="rgb(58.984375%, 44.55719%, 8.781433%)" offset="0.21875"/><stop stop-opacity="1" stop-color="rgb(59.274292%, 44.819641%, 8.859253%)" offset="0.226562"/><stop stop-opacity="1" stop-color="rgb(59.564209%, 45.083618%, 8.935547%)" offset="0.234375"/><stop stop-opacity="1" stop-color="rgb(59.8526%, 45.347595%, 9.013367%)" offset="0.242188"/><stop stop-opacity="1" stop-color="rgb(60.142517%, 45.611572%, 9.089661%)" offset="0.25"/><stop stop-opacity="1" stop-color="rgb(60.432434%, 45.875549%, 9.16748%)" offset="0.257812"/><stop stop-opacity="1" stop-color="rgb(60.720825%, 46.139526%, 9.2453%)" offset="0.265625"/><stop stop-opacity="1" stop-color="rgb(61.010742%, 46.403503%, 9.321594%)" offset="0.273438"/><stop stop-opacity="1" stop-color="rgb(61.300659%, 46.665955%, 9.399414%)" offset="0.28125"/><stop stop-opacity="1" stop-color="rgb(61.590576%, 46.929932%, 9.475708%)" offset="0.289062"/><stop stop-opacity="1" stop-color="rgb(61.878967%, 47.193909%, 9.553528%)" offset="0.296875"/><stop stop-opacity="1" stop-color="rgb(62.168884%, 47.457886%, 9.631348%)" offset="0.304687"/><stop stop-opacity="1" stop-color="rgb(62.458801%, 47.721863%, 9.707642%)" offset="0.3125"/><stop stop-opacity="1" stop-color="rgb(62.747192%, 47.98584%, 9.785461%)" offset="0.320312"/><stop stop-opacity="1" stop-color="rgb(63.037109%, 48.248291%, 9.861755%)" offset="0.328125"/><stop stop-opacity="1" stop-color="rgb(63.327026%, 48.512268%, 9.939575%)" offset="0.335938"/><stop stop-opacity="1" stop-color="rgb(63.615417%, 48.776245%, 10.017395%)" offset="0.34375"/><stop stop-opacity="1" stop-color="rgb(63.905334%, 49.040222%, 10.093689%)" offset="0.351562"/><stop stop-opacity="1" stop-color="rgb(64.234924%, 49.345398%, 10.185242%)" offset="0.359375"/><stop stop-opacity="1" stop-color="rgb(64.845276%, 49.938965%, 10.372925%)" offset="0.363281"/><stop stop-opacity="1" stop-color="rgb(65.272522%, 50.361633%, 10.510254%)" offset="0.367187"/><stop stop-opacity="1" stop-color="rgb(65.698242%, 50.782776%, 10.646057%)" offset="0.371094"/><stop stop-opacity="1" stop-color="rgb(66.125488%, 51.205444%, 10.78186%)" offset="0.375"/><stop stop-opacity="1" stop-color="rgb(66.551208%, 51.626587%, 10.917664%)" offset="0.378906"/><stop stop-opacity="1" stop-color="rgb(66.978455%, 52.049255%, 11.054993%)" offset="0.382812"/><stop stop-opacity="1" stop-color="rgb(67.404175%, 52.470398%, 11.190796%)" offset="0.386719"/><stop stop-opacity="1" stop-color="rgb(67.831421%, 52.893066%, 11.326599%)" offset="0.390625"/><stop stop-opacity="1" stop-color="rgb(68.257141%, 53.314209%, 11.462402%)" offset="0.394531"/><stop stop-opacity="1" stop-color="rgb(68.684387%, 53.736877%, 11.598206%)" offset="0.398437"/><stop stop-opacity="1" stop-color="rgb(69.110107%, 54.15802%, 11.734009%)" offset="0.402344"/><stop stop-opacity="1" stop-color="rgb(69.537354%, 54.580688%, 11.871338%)" offset="0.40625"/><stop stop-opacity="1" stop-color="rgb(69.963074%, 55.001831%, 12.007141%)" offset="0.410156"/><stop stop-opacity="1" stop-color="rgb(70.39032%, 55.4245%, 12.142944%)" offset="0.414062"/><stop stop-opacity="1" stop-color="rgb(70.81604%, 55.847168%, 12.278748%)" offset="0.417969"/><stop stop-opacity="1" stop-color="rgb(71.243286%, 56.269836%, 12.416077%)" offset="0.421875"/><stop stop-opacity="1" stop-color="rgb(71.669006%, 56.690979%, 12.55188%)" offset="0.425781"/><stop stop-opacity="1" stop-color="rgb(72.096252%, 57.113647%, 12.687683%)" offset="0.429687"/><stop stop-opacity="1" stop-color="rgb(72.521973%, 57.53479%, 12.823486%)" offset="0.433594"/><stop stop-opacity="1" stop-color="rgb(72.949219%, 57.957458%, 12.95929%)" offset="0.4375"/><stop stop-opacity="1" stop-color="rgb(73.374939%, 58.378601%, 13.095093%)" offset="0.441406"/><stop stop-opacity="1" stop-color="rgb(73.802185%, 58.80127%, 13.232422%)" offset="0.445312"/><stop stop-opacity="1" stop-color="rgb(74.227905%, 59.222412%, 13.368225%)" offset="0.449219"/><stop stop-opacity="1" stop-color="rgb(74.655151%, 59.645081%, 13.504028%)" offset="0.453125"/><stop stop-opacity="1" stop-color="rgb(75.080872%, 60.066223%, 13.639832%)" offset="0.457031"/><stop stop-opacity="1" stop-color="rgb(75.508118%, 60.488892%, 13.775635%)" offset="0.460937"/><stop stop-opacity="1" stop-color="rgb(75.933838%, 60.910034%, 13.911438%)" offset="0.464844"/><stop stop-opacity="1" stop-color="rgb(76.361084%, 61.332703%, 14.048767%)" offset="0.46875"/><stop stop-opacity="1" stop-color="rgb(76.786804%, 61.753845%, 14.18457%)" offset="0.472656"/><stop stop-opacity="1" stop-color="rgb(77.21405%, 62.176514%, 14.320374%)" offset="0.476562"/><stop stop-opacity="1" stop-color="rgb(77.639771%, 62.597656%, 14.456177%)" offset="0.480469"/><stop stop-opacity="1" stop-color="rgb(78.067017%, 63.020325%, 14.593506%)" offset="0.484375"/><stop stop-opacity="1" stop-color="rgb(78.492737%, 63.441467%, 14.729309%)" offset="0.488281"/><stop stop-opacity="1" stop-color="rgb(78.919983%, 63.864136%, 14.865112%)" offset="0.492187"/><stop stop-opacity="1" stop-color="rgb(79.345703%, 64.285278%, 15.000916%)" offset="0.496094"/><stop stop-opacity="1" stop-color="rgb(79.772949%, 64.707947%, 15.136719%)" offset="0.5"/><stop stop-opacity="1" stop-color="rgb(80.198669%, 65.129089%, 15.272522%)" offset="0.503906"/><stop stop-opacity="1" stop-color="rgb(80.62439%, 65.551758%, 15.409851%)" offset="0.507812"/><stop stop-opacity="1" stop-color="rgb(81.05011%, 65.9729%, 15.545654%)" offset="0.511719"/><stop stop-opacity="1" stop-color="rgb(81.477356%, 66.395569%, 15.681458%)" offset="0.515625"/><stop stop-opacity="1" stop-color="rgb(81.903076%, 66.816711%, 15.817261%)" offset="0.519531"/><stop stop-opacity="1" stop-color="rgb(82.330322%, 67.23938%, 15.95459%)" offset="0.523437"/><stop stop-opacity="1" stop-color="rgb(82.756042%, 67.660522%, 16.090393%)" offset="0.527344"/><stop stop-opacity="1" stop-color="rgb(83.183289%, 68.083191%, 16.226196%)" offset="0.53125"/><stop stop-opacity="1" stop-color="rgb(83.609009%, 68.504333%, 16.362%)" offset="0.535156"/><stop stop-opacity="1" stop-color="rgb(84.036255%, 68.927002%, 16.497803%)" offset="0.539062"/><stop stop-opacity="1" stop-color="rgb(84.461975%, 69.348145%, 16.633606%)" offset="0.542969"/><stop stop-opacity="1" stop-color="rgb(84.889221%, 69.770813%, 16.770935%)" offset="0.546875"/><stop stop-opacity="1" stop-color="rgb(85.314941%, 70.191956%, 16.906738%)" offset="0.550781"/><stop stop-opacity="1" stop-color="rgb(85.742188%, 70.614624%, 17.042542%)" offset="0.554688"/><stop stop-opacity="1" stop-color="rgb(86.167908%, 71.035767%, 17.178345%)" offset="0.558594"/><stop stop-opacity="1" stop-color="rgb(86.595154%, 71.458435%, 17.315674%)" offset="0.5625"/><stop stop-opacity="1" stop-color="rgb(87.020874%, 71.879578%, 17.451477%)" offset="0.566406"/><stop stop-opacity="1" stop-color="rgb(87.44812%, 72.302246%, 17.58728%)" offset="0.570312"/><stop stop-opacity="1" stop-color="rgb(87.87384%, 72.723389%, 17.723083%)" offset="0.574219"/><stop stop-opacity="1" stop-color="rgb(88.301086%, 73.146057%, 17.858887%)" offset="0.578125"/><stop stop-opacity="1" stop-color="rgb(88.726807%, 73.5672%, 17.99469%)" offset="0.582031"/><stop stop-opacity="1" stop-color="rgb(89.154053%, 73.989868%, 18.132019%)" offset="0.585938"/><stop stop-opacity="1" stop-color="rgb(89.579773%, 74.411011%, 18.267822%)" offset="0.589844"/><stop stop-opacity="1" stop-color="rgb(90.007019%, 74.833679%, 18.403625%)" offset="0.59375"/><stop stop-opacity="1" stop-color="rgb(90.432739%, 75.254822%, 18.539429%)" offset="0.597656"/><stop stop-opacity="1" stop-color="rgb(90.859985%, 75.67749%, 18.676758%)" offset="0.601562"/><stop stop-opacity="1" stop-color="rgb(91.285706%, 76.098633%, 18.812561%)" offset="0.605469"/><stop stop-opacity="1" stop-color="rgb(91.712952%, 76.521301%, 18.948364%)" offset="0.609375"/><stop stop-opacity="1" stop-color="rgb(92.105103%, 76.9104%, 19.073486%)" offset="0.613281"/><stop stop-opacity="1" stop-color="rgb(92.498779%, 77.2995%, 19.198608%)" offset="0.617188"/><stop stop-opacity="1" stop-color="rgb(92.498779%, 77.2995%, 19.198608%)" offset="0.625"/><stop stop-opacity="1" stop-color="rgb(92.498779%, 77.2995%, 19.198608%)" offset="0.75"/><stop stop-opacity="1" stop-color="rgb(92.498779%, 77.2995%, 19.198608%)" offset="1"/></linearGradient><clipPath id="4a42ad62f0"><path d="M 7 16 L 18 16 L 18 23 L 7 23 Z M 7 16 " clip-rule="nonzero"/></clipPath><clipPath id="d248ad6e5d"><path d="M 13.8125 9.535156 L 24.207031 15.210938 L 17.464844 27.550781 L 7.074219 21.875 Z M 13.8125 9.535156 " clip-rule="nonzero"/></clipPath><clipPath id="645fca078b"><path d="M 13.8125 9.535156 L 24.207031 15.210938 L 17.464844 27.550781 L 7.074219 21.875 Z M 13.8125 9.535156 " clip-rule="nonzero"/></clipPath><clipPath id="0b8fc9bd4e"><path d="M 9.753906 18.386719 C 9.015625 18.96875 8.210938 19.789062 7.949219 20.710938 C 7.824219 21.125 7.792969 21.601562 8 21.992188 C 8.199219 22.378906 8.582031 22.632812 8.988281 22.75 C 8.496094 22.519531 8.085938 22.117188 8.058594 21.554688 C 8.039062 21.292969 8.101562 21.035156 8.195312 20.792969 C 8.53125 19.855469 9.511719 19.007812 10.3125 18.453125 C 11.148438 17.875 12.066406 17.414062 13.011719 17.046875 C 13.871094 16.71875 14.761719 16.46875 15.667969 16.296875 C 16.171875 16.199219 16.683594 16.128906 17.195312 16.074219 C 14.609375 15.960938 11.808594 16.796875 9.753906 18.386719 Z M 9.753906 18.386719 " clip-rule="nonzero"/></clipPath><linearGradient x1="-426.022268" gradientTransform="matrix(0.00483213, 0.00263867, -0.00263867, 0.00483213, 13.916465, 9.641955)" y1="1633.19897" x2="1663.90079" gradientUnits="userSpaceOnUse" y2="1633.19897" id="1cad20141e"><stop stop-opacity="1" stop-color="rgb(55.299377%, 41.19873%, 7.798767%)" offset="0"/><stop stop-opacity="1" stop-color="rgb(55.299377%, 41.19873%, 7.798767%)" offset="0.125"/><stop stop-opacity="1" stop-color="rgb(55.299377%, 41.19873%, 7.798767%)" offset="0.1875"/><stop stop-opacity="1" stop-color="rgb(55.299377%, 41.19873%, 7.798767%)" offset="0.203125"/><stop stop-opacity="1" stop-color="rgb(55.476379%, 41.360474%, 7.846069%)" offset="0.210938"/><stop stop-opacity="1" stop-color="rgb(55.85022%, 41.700745%, 7.945251%)" offset="0.21875"/><stop stop-opacity="1" stop-color="rgb(56.240845%, 42.056274%, 8.050537%)" offset="0.226562"/><stop stop-opacity="1" stop-color="rgb(56.63147%, 42.41333%, 8.154297%)" offset="0.230469"/><stop stop-opacity="1" stop-color="rgb(56.828308%, 42.591858%, 8.206177%)" offset="0.234375"/><stop stop-opacity="1" stop-color="rgb(57.023621%, 42.76886%, 8.258057%)" offset="0.242188"/><stop stop-opacity="1" stop-color="rgb(57.414246%, 43.125916%, 8.363342%)" offset="0.25"/><stop stop-opacity="1" stop-color="rgb(57.804871%, 43.481445%, 8.467102%)" offset="0.257812"/><stop stop-opacity="1" stop-color="rgb(58.195496%, 43.838501%, 8.570862%)" offset="0.261719"/><stop stop-opacity="1" stop-color="rgb(58.392334%, 44.017029%, 8.624268%)" offset="0.265625"/><stop stop-opacity="1" stop-color="rgb(58.587646%, 44.195557%, 8.676147%)" offset="0.273438"/><stop stop-opacity="1" stop-color="rgb(58.978271%, 44.551086%, 8.779907%)" offset="0.28125"/><stop stop-opacity="1" stop-color="rgb(59.368896%, 44.908142%, 8.885193%)" offset="0.285156"/><stop stop-opacity="1" stop-color="rgb(59.565735%, 45.08667%, 8.937073%)" offset="0.289062"/><stop stop-opacity="1" stop-color="rgb(59.761047%, 45.263672%, 8.988953%)" offset="0.296875"/><stop stop-opacity="1" stop-color="rgb(60.151672%, 45.620728%, 9.092712%)" offset="0.304688"/><stop stop-opacity="1" stop-color="rgb(60.542297%, 45.976257%, 9.197998%)" offset="0.308594"/><stop stop-opacity="1" stop-color="rgb(60.739136%, 46.154785%, 9.249878%)" offset="0.3125"/><stop stop-opacity="1" stop-color="rgb(60.934448%, 46.333313%, 9.301758%)" offset="0.320312"/><stop stop-opacity="1" stop-color="rgb(61.325073%, 46.688843%, 9.405518%)" offset="0.328125"/><stop stop-opacity="1" stop-color="rgb(61.715698%, 47.045898%, 9.510803%)" offset="0.332031"/><stop stop-opacity="1" stop-color="rgb(61.912537%, 47.224426%, 9.562683%)" offset="0.335938"/><stop stop-opacity="1" stop-color="rgb(62.107849%, 47.401428%, 9.614563%)" offset="0.34375"/><stop stop-opacity="1" stop-color="rgb(62.498474%, 47.758484%, 9.718323%)" offset="0.351562"/><stop stop-opacity="1" stop-color="rgb(62.889099%, 48.114014%, 9.823608%)" offset="0.355469"/><stop stop-opacity="1" stop-color="rgb(63.085938%, 48.292542%, 9.875488%)" offset="0.359375"/><stop stop-opacity="1" stop-color="rgb(63.28125%, 48.471069%, 9.927368%)" offset="0.367187"/><stop stop-opacity="1" stop-color="rgb(63.671875%, 48.826599%, 10.031128%)" offset="0.375"/><stop stop-opacity="1" stop-color="rgb(64.0625%, 49.183655%, 10.136414%)" offset="0.382813"/><stop stop-opacity="1" stop-color="rgb(64.794922%, 49.891663%, 10.357666%)" offset="0.386719"/><stop stop-opacity="1" stop-color="rgb(65.332031%, 50.421143%, 10.528564%)" offset="0.390625"/><stop stop-opacity="1" stop-color="rgb(65.907288%, 50.990295%, 10.71167%)" offset="0.394531"/><stop stop-opacity="1" stop-color="rgb(66.48407%, 51.560974%, 10.896301%)" offset="0.398438"/><stop stop-opacity="1" stop-color="rgb(67.059326%, 52.130127%, 11.079407%)" offset="0.402344"/><stop stop-opacity="1" stop-color="rgb(67.636108%, 52.700806%, 11.264038%)" offset="0.40625"/><stop stop-opacity="1" stop-color="rgb(68.211365%, 53.269958%, 11.447144%)" offset="0.410156"/><stop stop-opacity="1" stop-color="rgb(68.788147%, 53.840637%, 11.631775%)" offset="0.414063"/><stop stop-opacity="1" stop-color="rgb(69.364929%, 54.40979%, 11.81488%)" offset="0.417969"/><stop stop-opacity="1" stop-color="rgb(69.941711%, 54.980469%, 11.999512%)" offset="0.421875"/><stop stop-opacity="1" stop-color="rgb(70.516968%, 55.551147%, 12.182617%)" offset="0.425781"/><stop stop-opacity="1" stop-color="rgb(71.09375%, 56.121826%, 12.367249%)" offset="0.429688"/><stop stop-opacity="1" stop-color="rgb(71.669006%, 56.690979%, 12.550354%)" offset="0.433594"/><stop stop-opacity="1" stop-color="rgb(72.245789%, 57.261658%, 12.734985%)" offset="0.4375"/><stop stop-opacity="1" stop-color="rgb(72.821045%, 57.830811%, 12.918091%)" offset="0.441406"/><stop stop-opacity="1" stop-color="rgb(73.397827%, 58.401489%, 13.102722%)" offset="0.445313"/><stop stop-opacity="1" stop-color="rgb(73.974609%, 58.970642%, 13.285828%)" offset="0.449219"/><stop stop-opacity="1" stop-color="rgb(74.551392%, 59.541321%, 13.470459%)" offset="0.453125"/><stop stop-opacity="1" stop-color="rgb(75.126648%, 60.110474%, 13.653564%)" offset="0.457031"/><stop stop-opacity="1" stop-color="rgb(75.70343%, 60.681152%, 13.838196%)" offset="0.460938"/><stop stop-opacity="1" stop-color="rgb(76.278687%, 61.251831%, 14.021301%)" offset="0.464844"/><stop stop-opacity="1" stop-color="rgb(76.855469%, 61.82251%, 14.205933%)" offset="0.46875"/><stop stop-opacity="1" stop-color="rgb(77.430725%, 62.391663%, 14.389038%)" offset="0.472656"/><stop stop-opacity="1" stop-color="rgb(78.007507%, 62.962341%, 14.573669%)" offset="0.476562"/><stop stop-opacity="1" stop-color="rgb(78.58429%, 63.531494%, 14.756775%)" offset="0.480469"/><stop stop-opacity="1" stop-color="rgb(79.161072%, 64.102173%, 14.941406%)" offset="0.484375"/><stop stop-opacity="1" stop-color="rgb(79.736328%, 64.671326%, 15.126038%)" offset="0.488281"/><stop stop-opacity="1" stop-color="rgb(80.31311%, 65.242004%, 15.310669%)" offset="0.492188"/><stop stop-opacity="1" stop-color="rgb(80.888367%, 65.811157%, 15.493774%)" offset="0.496094"/><stop stop-opacity="1" stop-color="rgb(81.465149%, 66.381836%, 15.678406%)" offset="0.5"/><stop stop-opacity="1" stop-color="rgb(82.040405%, 66.952515%, 15.861511%)" offset="0.503906"/><stop stop-opacity="1" stop-color="rgb(82.617188%, 67.523193%, 16.046143%)" offset="0.507812"/><stop stop-opacity="1" stop-color="rgb(83.192444%, 68.092346%, 16.229248%)" offset="0.511719"/><stop stop-opacity="1" stop-color="rgb(83.769226%, 68.663025%, 16.413879%)" offset="0.515625"/><stop stop-opacity="1" stop-color="rgb(84.346008%, 69.232178%, 16.596985%)" offset="0.519531"/><stop stop-opacity="1" stop-color="rgb(84.922791%, 69.802856%, 16.781616%)" offset="0.523438"/><stop stop-opacity="1" stop-color="rgb(85.498047%, 70.372009%, 16.964722%)" offset="0.527344"/><stop stop-opacity="1" stop-color="rgb(86.074829%, 70.942688%, 17.149353%)" offset="0.53125"/><stop stop-opacity="1" stop-color="rgb(86.650085%, 71.511841%, 17.332458%)" offset="0.535156"/><stop stop-opacity="1" stop-color="rgb(87.226868%, 72.08252%, 17.51709%)" offset="0.539063"/><stop stop-opacity="1" stop-color="rgb(87.802124%, 72.653198%, 17.700195%)" offset="0.542969"/><stop stop-opacity="1" stop-color="rgb(88.378906%, 73.223877%, 17.884827%)" offset="0.546875"/><stop stop-opacity="1" stop-color="rgb(88.955688%, 73.79303%, 18.067932%)" offset="0.550781"/><stop stop-opacity="1" stop-color="rgb(89.532471%, 74.363708%, 18.252563%)" offset="0.554688"/><stop stop-opacity="1" stop-color="rgb(90.107727%, 74.932861%, 18.435669%)" offset="0.558594"/><stop stop-opacity="1" stop-color="rgb(90.684509%, 75.50354%, 18.6203%)" offset="0.5625"/><stop stop-opacity="1" stop-color="rgb(91.259766%, 76.072693%, 18.803406%)" offset="0.566406"/><stop stop-opacity="1" stop-color="rgb(91.836548%, 76.643372%, 18.988037%)" offset="0.570313"/><stop stop-opacity="1" stop-color="rgb(92.167664%, 76.971436%, 19.093323%)" offset="0.574219"/><stop stop-opacity="1" stop-color="rgb(92.498779%, 77.2995%, 19.198608%)" offset="0.578125"/><stop stop-opacity="1" stop-color="rgb(92.498779%, 77.2995%, 19.198608%)" offset="0.59375"/><stop stop-opacity="1" stop-color="rgb(92.498779%, 77.2995%, 19.198608%)" offset="0.625"/><stop stop-opacity="1" stop-color="rgb(92.498779%, 77.2995%, 19.198608%)" offset="0.75"/><stop stop-opacity="1" stop-color="rgb(92.498779%, 77.2995%, 19.198608%)" offset="1"/></linearGradient><clipPath id="d4f7979908"><path d="M 12.859375 23.628906 L 24.148438 23.628906 L 24.148438 24.789062 L 12.859375 24.789062 Z M 12.859375 23.628906 " clip-rule="nonzero"/></clipPath></defs><g clip-path="url(#eca4e163cc)"><g clip-path="url(#7169774bb0)"><g clip-path="url(#4df6c25144)"><g clip-path="url(#612c8933dc)"><path fill="url(#2d4b4c88ee)" d="M 18.8125 10.195312 L 14.9375 17.285156 L 22.457031 21.390625 L 26.328125 14.296875 Z M 18.8125 10.195312 " fill-rule="nonzero"/></g></g></g></g><g clip-path="url(#4a42ad62f0)"><g clip-path="url(#d248ad6e5d)"><g clip-path="url(#645fca078b)"><g clip-path="url(#0b8fc9bd4e)"><path fill="url(#1cad20141e)" d="M 9.953125 12.007812 L 4.9375 21.191406 L 15.035156 26.703125 L 20.050781 17.519531 Z M 9.953125 12.007812 " fill-rule="nonzero"/></g></g></g></g><g clip-path="url(#d4f7979908)"><path fill="#ecc531" d="M 12.859375 23.628906 L 24.144531 23.628906 L 24.144531 24.789062 L 12.859375 24.789062 Z M 12.859375 23.628906 " fill-opacity="1" fill-rule="nonzero"/></g><g fill="#ecc531" fill-opacity="1"><g transform="translate(9.927458, 22.159257)"><g><path d="M 0.109375 -2.765625 L 0.828125 -2.765625 L 0.828125 0 L 0.109375 0 Z M 1.984375 -2.765625 L 2.71875 -2.765625 L 2.71875 0.625 L 1.984375 0.625 L 1.984375 -0.953125 L 1 -0.953125 L 1 -1.578125 L 1.984375 -1.578125 Z M 1.984375 -2.765625 "/></g></g></g><g fill="#ecc531" fill-opacity="1"><g transform="translate(12.748631, 22.159257)"><g><path d="M 1.640625 -2.21875 C 1.484375 -2.21875 1.34375 -2.179688 1.21875 -2.109375 C 1.101562 -2.035156 1.007812 -1.929688 0.9375 -1.796875 C 0.875 -1.671875 0.84375 -1.53125 0.84375 -1.375 C 0.84375 -1.226562 0.875 -1.09375 0.9375 -0.96875 C 1.007812 -0.84375 1.101562 -0.738281 1.21875 -0.65625 C 1.34375 -0.582031 1.484375 -0.546875 1.640625 -0.546875 C 1.804688 -0.546875 1.945312 -0.578125 2.0625 -0.640625 C 2.1875 -0.710938 2.28125 -0.8125 2.34375 -0.9375 C 2.414062 -1.0625 2.453125 -1.207031 2.453125 -1.375 C 2.453125 -1.539062 2.414062 -1.6875 2.34375 -1.8125 C 2.28125 -1.9375 2.1875 -2.035156 2.0625 -2.109375 C 1.945312 -2.179688 1.804688 -2.21875 1.640625 -2.21875 Z M 1.640625 0.078125 C 1.429688 0.078125 1.226562 0.046875 1.03125 -0.015625 C 0.84375 -0.078125 0.675781 -0.171875 0.53125 -0.296875 C 0.382812 -0.421875 0.265625 -0.570312 0.171875 -0.75 C 0.0859375 -0.925781 0.046875 -1.132812 0.046875 -1.375 C 0.046875 -1.613281 0.0859375 -1.820312 0.171875 -2 C 0.265625 -2.175781 0.382812 -2.328125 0.53125 -2.453125 C 0.675781 -2.578125 0.84375 -2.671875 1.03125 -2.734375 C 1.226562 -2.804688 1.429688 -2.84375 1.640625 -2.84375 C 1.859375 -2.84375 2.0625 -2.804688 2.25 -2.734375 C 2.445312 -2.671875 2.617188 -2.578125 2.765625 -2.453125 C 2.910156 -2.328125 3.023438 -2.175781 3.109375 -2 C 3.203125 -1.820312 3.25 -1.613281 3.25 -1.375 C 3.25 -1.132812 3.203125 -0.921875 3.109375 -0.734375 C 3.023438 -0.554688 2.910156 -0.40625 2.765625 -0.28125 C 2.617188 -0.164062 2.445312 -0.078125 2.25 -0.015625 C 2.0625 0.046875 1.859375 0.078125 1.640625 0.078125 Z M 1.640625 0.078125 "/></g></g></g><g fill="#ecc531" fill-opacity="1"><g transform="translate(16.049265, 22.159257)"><g><path d="M 2.28125 -2.765625 L 3 -2.765625 L 3 -1.359375 C 3 -1.265625 3.015625 -1.164062 3.046875 -1.0625 C 3.085938 -0.96875 3.132812 -0.878906 3.1875 -0.796875 C 3.25 -0.722656 3.320312 -0.660156 3.40625 -0.609375 C 3.488281 -0.566406 3.582031 -0.546875 3.6875 -0.546875 C 3.8125 -0.546875 3.929688 -0.578125 4.046875 -0.640625 C 4.171875 -0.703125 4.265625 -0.789062 4.328125 -0.90625 C 4.398438 -1.03125 4.4375 -1.179688 4.4375 -1.359375 C 4.4375 -1.515625 4.398438 -1.648438 4.328125 -1.765625 C 4.265625 -1.878906 4.164062 -1.96875 4.03125 -2.03125 C 3.90625 -2.101562 3.75 -2.140625 3.5625 -2.140625 L 3.171875 -2.140625 L 3.171875 -2.765625 L 3.90625 -2.765625 C 4.09375 -2.765625 4.265625 -2.726562 4.421875 -2.65625 C 4.585938 -2.582031 4.726562 -2.476562 4.84375 -2.34375 C 4.96875 -2.21875 5.0625 -2.066406 5.125 -1.890625 C 5.195312 -1.722656 5.234375 -1.546875 5.234375 -1.359375 C 5.234375 -1.148438 5.195312 -0.957031 5.125 -0.78125 C 5.050781 -0.613281 4.945312 -0.460938 4.8125 -0.328125 C 4.6875 -0.203125 4.535156 -0.101562 4.359375 -0.03125 C 4.179688 0.0390625 3.992188 0.078125 3.796875 0.078125 C 3.660156 0.078125 3.519531 0.0546875 3.375 0.015625 C 3.226562 -0.015625 3.09375 -0.0664062 2.96875 -0.140625 C 2.84375 -0.222656 2.738281 -0.328125 2.65625 -0.453125 C 2.570312 -0.328125 2.46875 -0.222656 2.34375 -0.140625 C 2.21875 -0.0664062 2.082031 -0.015625 1.9375 0.015625 C 1.800781 0.0546875 1.660156 0.078125 1.515625 0.078125 C 1.316406 0.078125 1.128906 0.0390625 0.953125 -0.03125 C 0.773438 -0.101562 0.617188 -0.203125 0.484375 -0.328125 C 0.347656 -0.460938 0.238281 -0.613281 0.15625 -0.78125 C 0.0820312 -0.957031 0.046875 -1.148438 0.046875 -1.359375 C 0.046875 -1.546875 0.078125 -1.722656 0.140625 -1.890625 C 0.210938 -2.066406 0.304688 -2.21875 0.421875 -2.34375 C 0.546875 -2.476562 0.6875 -2.582031 0.84375 -2.65625 C 1 -2.726562 1.171875 -2.765625 1.359375 -2.765625 L 2.109375 -2.765625 L 2.109375 -2.140625 L 1.71875 -2.140625 C 1.539062 -2.140625 1.382812 -2.101562 1.25 -2.03125 C 1.125 -1.96875 1.023438 -1.878906 0.953125 -1.765625 C 0.878906 -1.648438 0.84375 -1.515625 0.84375 -1.359375 C 0.84375 -1.179688 0.875 -1.03125 0.9375 -0.90625 C 1.007812 -0.789062 1.097656 -0.703125 1.203125 -0.640625 C 1.316406 -0.578125 1.441406 -0.546875 1.578125 -0.546875 C 1.671875 -0.546875 1.757812 -0.566406 1.84375 -0.609375 C 1.9375 -0.660156 2.015625 -0.722656 2.078125 -0.796875 C 2.140625 -0.878906 2.1875 -0.96875 2.21875 -1.0625 C 2.257812 -1.164062 2.28125 -1.265625 2.28125 -1.359375 Z M 2.28125 -2.765625 "/></g></g></g><g fill="#ecc531" fill-opacity="1"><g transform="translate(21.347649, 22.159257)"><g><path d="M 0.03125 -2.765625 L 2.796875 -2.765625 L 2.796875 -2.140625 L 1.796875 -2.140625 L 1.796875 0 L 1.03125 0 L 1.03125 -2.140625 L 0.03125 -2.140625 Z M 0.03125 -2.765625 "/></g></g></g><g fill="#ecc531" fill-opacity="1"><g transform="translate(24.189669, 22.159257)"><g><path d="M 1.859375 -0.625 L 0.046875 -0.625 L 0.046875 -1.515625 C 0.046875 -1.703125 0.0820312 -1.875 0.15625 -2.03125 C 0.226562 -2.1875 0.328125 -2.320312 0.453125 -2.4375 C 0.578125 -2.5625 0.722656 -2.660156 0.890625 -2.734375 C 1.054688 -2.804688 1.234375 -2.84375 1.421875 -2.84375 C 1.609375 -2.84375 1.78125 -2.804688 1.9375 -2.734375 C 2.101562 -2.660156 2.25 -2.5625 2.375 -2.4375 C 2.5 -2.320312 2.597656 -2.1875 2.671875 -2.03125 C 2.742188 -1.875 2.78125 -1.703125 2.78125 -1.515625 L 2.78125 0.625 L 2.015625 0.625 L 2.015625 -1.546875 C 2.015625 -1.671875 1.988281 -1.78125 1.9375 -1.875 C 1.882812 -1.976562 1.8125 -2.0625 1.71875 -2.125 C 1.632812 -2.1875 1.535156 -2.21875 1.421875 -2.21875 C 1.304688 -2.21875 1.203125 -2.1875 1.109375 -2.125 C 1.015625 -2.070312 0.941406 -1.992188 0.890625 -1.890625 C 0.835938 -1.796875 0.8125 -1.691406 0.8125 -1.578125 L 0.8125 -1.25 L 1.859375 -1.25 Z M 1.859375 -0.625 "/></g></g></g><g fill="#000000" fill-opacity="1"><g transform="translate(16.325567, 24.461834)"><g><path d="M 0.03125 0 L 0.03125 -0.015625 L 0.109375 -0.03125 L 0.109375 -0.671875 L 0.03125 -0.671875 L 0.03125 -0.703125 L 0.5 -0.703125 L 0.5 -0.5 L 0.46875 -0.5 C 0.46875 -0.53125 0.460938 -0.550781 0.453125 -0.5625 C 0.453125 -0.582031 0.445312 -0.597656 0.4375 -0.609375 C 0.425781 -0.628906 0.410156 -0.644531 0.390625 -0.65625 C 0.367188 -0.664062 0.347656 -0.671875 0.328125 -0.671875 C 0.285156 -0.671875 0.253906 -0.671875 0.234375 -0.671875 L 0.234375 -0.359375 C 0.242188 -0.359375 0.25 -0.359375 0.25 -0.359375 C 0.269531 -0.359375 0.285156 -0.359375 0.296875 -0.359375 C 0.316406 -0.367188 0.332031 -0.375 0.34375 -0.375 C 0.351562 -0.382812 0.359375 -0.394531 0.359375 -0.40625 C 0.367188 -0.425781 0.375 -0.453125 0.375 -0.484375 L 0.390625 -0.484375 L 0.390625 -0.21875 L 0.375 -0.21875 C 0.375 -0.257812 0.363281 -0.289062 0.34375 -0.3125 C 0.332031 -0.332031 0.3125 -0.34375 0.28125 -0.34375 L 0.234375 -0.34375 L 0.234375 -0.03125 L 0.328125 -0.015625 L 0.328125 0 Z M 0.03125 0 "/></g></g></g><g fill="#000000" fill-opacity="1"><g transform="translate(17.030264, 24.461834)"><g><path d="M 0.046875 -0.34375 C 0.046875 -0.414062 0.0546875 -0.476562 0.078125 -0.53125 C 0.109375 -0.582031 0.144531 -0.625 0.1875 -0.65625 C 0.238281 -0.695312 0.289062 -0.71875 0.34375 -0.71875 C 0.4375 -0.71875 0.507812 -0.679688 0.5625 -0.609375 C 0.625 -0.546875 0.65625 -0.460938 0.65625 -0.359375 C 0.65625 -0.316406 0.648438 -0.28125 0.640625 -0.25 C 0.640625 -0.21875 0.628906 -0.179688 0.609375 -0.140625 C 0.585938 -0.109375 0.566406 -0.0820312 0.546875 -0.0625 C 0.523438 -0.0390625 0.492188 -0.0195312 0.453125 0 C 0.421875 0.0078125 0.390625 0.015625 0.359375 0.015625 C 0.253906 0.015625 0.175781 -0.015625 0.125 -0.078125 C 0.0703125 -0.148438 0.046875 -0.238281 0.046875 -0.34375 Z M 0.171875 -0.359375 C 0.171875 -0.296875 0.175781 -0.238281 0.1875 -0.1875 C 0.207031 -0.132812 0.226562 -0.09375 0.25 -0.0625 C 0.28125 -0.03125 0.3125 -0.015625 0.34375 -0.015625 C 0.40625 -0.015625 0.453125 -0.046875 0.484375 -0.109375 C 0.515625 -0.171875 0.53125 -0.253906 0.53125 -0.359375 C 0.53125 -0.460938 0.515625 -0.539062 0.484375 -0.59375 C 0.453125 -0.65625 0.410156 -0.6875 0.359375 -0.6875 C 0.335938 -0.6875 0.316406 -0.679688 0.296875 -0.671875 C 0.285156 -0.660156 0.269531 -0.644531 0.25 -0.625 C 0.238281 -0.613281 0.226562 -0.59375 0.21875 -0.5625 C 0.207031 -0.539062 0.195312 -0.507812 0.1875 -0.46875 C 0.175781 -0.4375 0.171875 -0.398438 0.171875 -0.359375 Z M 0.171875 -0.359375 "/></g></g></g><g fill="#000000" fill-opacity="1"><g transform="translate(17.911309, 24.461834)"><g><path d="M 0.03125 0 L 0.03125 -0.015625 L 0.109375 -0.03125 L 0.109375 -0.671875 L 0.03125 -0.671875 L 0.03125 -0.703125 L 0.296875 -0.703125 C 0.328125 -0.703125 0.359375 -0.695312 0.390625 -0.6875 C 0.421875 -0.675781 0.445312 -0.664062 0.46875 -0.65625 C 0.488281 -0.644531 0.503906 -0.628906 0.515625 -0.609375 C 0.535156 -0.585938 0.546875 -0.5625 0.546875 -0.53125 C 0.546875 -0.46875 0.523438 -0.421875 0.484375 -0.390625 C 0.453125 -0.359375 0.40625 -0.335938 0.34375 -0.328125 C 0.363281 -0.328125 0.382812 -0.320312 0.40625 -0.3125 C 0.425781 -0.3125 0.441406 -0.300781 0.453125 -0.28125 C 0.460938 -0.269531 0.472656 -0.253906 0.484375 -0.234375 C 0.492188 -0.222656 0.503906 -0.203125 0.515625 -0.171875 C 0.535156 -0.140625 0.550781 -0.113281 0.5625 -0.09375 C 0.570312 -0.0703125 0.582031 -0.0546875 0.59375 -0.046875 C 0.601562 -0.0351562 0.609375 -0.03125 0.609375 -0.03125 C 0.617188 -0.03125 0.628906 -0.03125 0.640625 -0.03125 L 0.640625 0 L 0.5625 0 C 0.539062 0 0.519531 0 0.5 0 C 0.488281 -0.0078125 0.472656 -0.0195312 0.453125 -0.03125 C 0.441406 -0.0390625 0.429688 -0.0546875 0.421875 -0.078125 C 0.410156 -0.0976562 0.394531 -0.140625 0.375 -0.203125 C 0.363281 -0.210938 0.351562 -0.222656 0.34375 -0.234375 C 0.34375 -0.253906 0.335938 -0.269531 0.328125 -0.28125 C 0.328125 -0.289062 0.320312 -0.296875 0.3125 -0.296875 C 0.300781 -0.304688 0.289062 -0.3125 0.28125 -0.3125 C 0.28125 -0.320312 0.273438 -0.328125 0.265625 -0.328125 C 0.253906 -0.328125 0.242188 -0.328125 0.234375 -0.328125 L 0.234375 -0.03125 L 0.3125 -0.015625 L 0.3125 0 Z M 0.234375 -0.359375 C 0.234375 -0.359375 0.238281 -0.359375 0.25 -0.359375 C 0.3125 -0.359375 0.351562 -0.367188 0.375 -0.390625 C 0.394531 -0.421875 0.40625 -0.460938 0.40625 -0.515625 C 0.40625 -0.546875 0.398438 -0.570312 0.390625 -0.59375 C 0.390625 -0.613281 0.382812 -0.628906 0.375 -0.640625 C 0.363281 -0.648438 0.347656 -0.65625 0.328125 -0.65625 C 0.316406 -0.664062 0.300781 -0.671875 0.28125 -0.671875 C 0.269531 -0.671875 0.253906 -0.671875 0.234375 -0.671875 Z M 0.234375 -0.359375 "/></g></g></g><g fill="#000000" fill-opacity="1"><g transform="translate(18.718102, 24.461834)"><g/></g></g><g fill="#000000" fill-opacity="1"><g transform="translate(19.121398, 24.461834)"><g><path d="M -0.015625 -0.671875 L -0.015625 -0.703125 L 0.265625 -0.703125 L 0.265625 -0.671875 L 0.1875 -0.671875 L 0.359375 -0.375 L 0.5 -0.671875 L 0.421875 -0.671875 L 0.421875 -0.703125 L 0.59375 -0.703125 L 0.59375 -0.671875 L 0.53125 -0.671875 L 0.375 -0.34375 L 0.375 -0.03125 L 0.453125 -0.015625 L 0.453125 0 L 0.171875 0 L 0.171875 -0.015625 L 0.25 -0.03125 L 0.25 -0.3125 L 0.046875 -0.671875 Z M -0.015625 -0.671875 "/></g></g></g><g fill="#000000" fill-opacity="1"><g transform="translate(19.893996, 24.461834)"><g><path d="M 0.046875 -0.34375 C 0.046875 -0.414062 0.0546875 -0.476562 0.078125 -0.53125 C 0.109375 -0.582031 0.144531 -0.625 0.1875 -0.65625 C 0.238281 -0.695312 0.289062 -0.71875 0.34375 -0.71875 C 0.4375 -0.71875 0.507812 -0.679688 0.5625 -0.609375 C 0.625 -0.546875 0.65625 -0.460938 0.65625 -0.359375 C 0.65625 -0.316406 0.648438 -0.28125 0.640625 -0.25 C 0.640625 -0.21875 0.628906 -0.179688 0.609375 -0.140625 C 0.585938 -0.109375 0.566406 -0.0820312 0.546875 -0.0625 C 0.523438 -0.0390625 0.492188 -0.0195312 0.453125 0 C 0.421875 0.0078125 0.390625 0.015625 0.359375 0.015625 C 0.253906 0.015625 0.175781 -0.015625 0.125 -0.078125 C 0.0703125 -0.148438 0.046875 -0.238281 0.046875 -0.34375 Z M 0.171875 -0.359375 C 0.171875 -0.296875 0.175781 -0.238281 0.1875 -0.1875 C 0.207031 -0.132812 0.226562 -0.09375 0.25 -0.0625 C 0.28125 -0.03125 0.3125 -0.015625 0.34375 -0.015625 C 0.40625 -0.015625 0.453125 -0.046875 0.484375 -0.109375 C 0.515625 -0.171875 0.53125 -0.253906 0.53125 -0.359375 C 0.53125 -0.460938 0.515625 -0.539062 0.484375 -0.59375 C 0.453125 -0.65625 0.410156 -0.6875 0.359375 -0.6875 C 0.335938 -0.6875 0.316406 -0.679688 0.296875 -0.671875 C 0.285156 -0.660156 0.269531 -0.644531 0.25 -0.625 C 0.238281 -0.613281 0.226562 -0.59375 0.21875 -0.5625 C 0.207031 -0.539062 0.195312 -0.507812 0.1875 -0.46875 C 0.175781 -0.4375 0.171875 -0.398438 0.171875 -0.359375 Z M 0.171875 -0.359375 "/></g></g></g><g fill="#000000" fill-opacity="1"><g transform="translate(20.77504, 24.461834)"><g><path d="M 0.03125 -0.671875 L 0.03125 -0.703125 L 0.296875 -0.703125 L 0.296875 -0.671875 L 0.21875 -0.671875 L 0.21875 -0.21875 C 0.21875 -0.195312 0.21875 -0.179688 0.21875 -0.171875 C 0.21875 -0.160156 0.21875 -0.148438 0.21875 -0.140625 C 0.226562 -0.128906 0.234375 -0.117188 0.234375 -0.109375 C 0.242188 -0.0976562 0.25 -0.0820312 0.25 -0.0625 C 0.257812 -0.0507812 0.269531 -0.0390625 0.28125 -0.03125 C 0.300781 -0.03125 0.316406 -0.0234375 0.328125 -0.015625 C 0.347656 -0.015625 0.367188 -0.015625 0.390625 -0.015625 C 0.421875 -0.015625 0.445312 -0.0195312 0.46875 -0.03125 C 0.488281 -0.0390625 0.503906 -0.0507812 0.515625 -0.0625 C 0.523438 -0.0703125 0.535156 -0.0859375 0.546875 -0.109375 C 0.554688 -0.128906 0.5625 -0.148438 0.5625 -0.171875 C 0.5625 -0.191406 0.5625 -0.210938 0.5625 -0.234375 L 0.5625 -0.671875 L 0.5 -0.671875 L 0.5 -0.703125 L 0.671875 -0.703125 L 0.671875 -0.671875 L 0.59375 -0.671875 L 0.59375 -0.21875 C 0.59375 -0.195312 0.59375 -0.175781 0.59375 -0.15625 C 0.59375 -0.132812 0.585938 -0.113281 0.578125 -0.09375 C 0.566406 -0.0703125 0.550781 -0.0507812 0.53125 -0.03125 C 0.519531 -0.0195312 0.5 -0.0078125 0.46875 0 C 0.445312 0.0078125 0.414062 0.015625 0.375 0.015625 C 0.34375 0.015625 0.3125 0.0078125 0.28125 0 C 0.25 0 0.222656 -0.00390625 0.203125 -0.015625 C 0.191406 -0.0234375 0.175781 -0.0351562 0.15625 -0.046875 C 0.144531 -0.0546875 0.132812 -0.0664062 0.125 -0.078125 C 0.113281 -0.0976562 0.109375 -0.113281 0.109375 -0.125 C 0.109375 -0.144531 0.101562 -0.160156 0.09375 -0.171875 C 0.09375 -0.191406 0.09375 -0.210938 0.09375 -0.234375 L 0.09375 -0.671875 Z M 0.03125 -0.671875 "/></g></g></g></svg>