<svg xmlns="http://www.w3.org/2000/svg" xmlns:xlink="http://www.w3.org/1999/xlink" width="500" zoomAndPan="magnify" viewBox="0 0 375 374.999991" height="500" preserveAspectRatio="xMidYMid meet" version="1.0"><defs><g/><clipPath id="66f0d02dcd"><path d="M 99 4 L 168 4 L 168 61 L 99 61 Z M 99 4 " clip-rule="nonzero"/></clipPath><clipPath id="405ca9d980"><path d="M 64.238281 -31.136719 L 168.898438 26.015625 L 100.960938 150.425781 L -3.699219 93.273438 Z M 64.238281 -31.136719 " clip-rule="nonzero"/></clipPath><clipPath id="4ce04df2d0"><path d="M 64.238281 -31.136719 L 168.898438 26.015625 L 100.960938 150.425781 L -3.699219 93.273438 Z M 64.238281 -31.136719 " clip-rule="nonzero"/></clipPath><clipPath id="09bbdd28ea"><path d="M 167.449219 26.949219 C 167.242188 25.117188 158.234375 24.804688 157.152344 24.765625 C 151.582031 24.570312 146.925781 25.324219 143.628906 26.085938 C 142.152344 23.921875 140.679688 21.757812 139.203125 19.589844 C 139.855469 19.488281 140.507812 19.386719 141.160156 19.285156 C 141.085938 18.804688 140.917969 18.105469 140.519531 17.347656 C 140.046875 16.445312 139.449219 15.851562 139.050781 15.511719 C 138.433594 15.652344 137.816406 15.796875 137.203125 15.9375 C 134.546875 12.246094 131.890625 8.554688 129.238281 4.863281 C 129.21875 4.851562 129.199219 4.839844 129.183594 4.828125 C 126.691406 4.394531 124.148438 4.429688 121.625 4.296875 C 124.65625 9.472656 127.683594 14.648438 130.714844 19.820312 L 129.515625 20.140625 C 129.667969 20.417969 129.816406 20.691406 129.964844 20.96875 C 130.453125 20.992188 130.941406 21.019531 131.429688 21.042969 C 132.511719 22.894531 133.597656 24.746094 134.679688 26.597656 L 109.089844 31.890625 C 107.640625 29.929688 106.1875 27.96875 104.738281 26.007812 C 102.90625 25.742188 101.078125 25.476562 99.246094 25.210938 L 104.085938 33.78125 C 103.3125 34.058594 102.539062 34.332031 101.761719 34.609375 C 101.789062 34.824219 101.816406 35.039062 101.84375 35.253906 C 102.617188 35.375 103.390625 35.496094 104.160156 35.617188 C 103.035156 38.476562 101.90625 41.335938 100.78125 44.191406 C 102.535156 43.695312 104.285156 43.203125 106.039062 42.707031 C 107.21875 40.449219 108.398438 38.1875 109.578125 35.929688 L 135.621094 34.992188 L 133.832031 40.476562 L 132.648438 40.804688 L 132.507812 41.367188 C 132.703125 41.5 132.898438 41.632812 133.097656 41.769531 C 130.789062 47.960938 128.480469 54.152344 126.171875 60.347656 C 127.089844 60.144531 127.835938 59.949219 128.339844 59.800781 C 129.984375 59.316406 131.613281 58.75 133.28125 58.347656 C 133.515625 58.292969 133.75 58.242188 133.988281 58.191406 C 136.152344 53.699219 138.316406 49.210938 140.480469 44.71875 C 141.117188 44.707031 141.753906 44.695312 142.386719 44.683594 C 142.714844 44.285156 143.183594 43.617188 143.484375 42.675781 C 143.726562 41.921875 143.773438 41.257812 143.773438 40.792969 C 143.132812 40.6875 142.492188 40.585938 141.851562 40.484375 C 142.808594 38.167969 143.765625 35.851562 144.722656 33.535156 C 148.476562 33.390625 153.644531 32.835938 159.503906 30.988281 C 161.960938 30.214844 167.621094 28.429688 167.449219 26.949219 Z M 167.449219 26.949219 " clip-rule="nonzero"/></clipPath><linearGradient x1="828.472639" gradientTransform="matrix(0.049009, 0.0267622, -0.0267622, 0.049009, 65.295497, -30.057039)" y1="449.21799" x2="2384.22464" gradientUnits="userSpaceOnUse" y2="449.21799" id="3a09776a36"><stop stop-opacity="1" stop-color="rgb(55.299377%, 41.19873%, 7.798767%)" offset="0"/><stop stop-opacity="1" stop-color="rgb(55.477905%, 41.360474%, 7.846069%)" offset="0.125"/><stop stop-opacity="1" stop-color="rgb(55.799866%, 41.654968%, 7.933044%)" offset="0.132813"/><stop stop-opacity="1" stop-color="rgb(56.089783%, 41.918945%, 8.009338%)" offset="0.140625"/><stop stop-opacity="1" stop-color="rgb(56.3797%, 42.182922%, 8.087158%)" offset="0.148438"/><stop stop-opacity="1" stop-color="rgb(56.669617%, 42.446899%, 8.163452%)" offset="0.15625"/><stop stop-opacity="1" stop-color="rgb(56.958008%, 42.710876%, 8.241272%)" offset="0.164063"/><stop stop-opacity="1" stop-color="rgb(57.247925%, 42.974854%, 8.319092%)" offset="0.171875"/><stop stop-opacity="1" stop-color="rgb(57.537842%, 43.237305%, 8.395386%)" offset="0.179688"/><stop stop-opacity="1" stop-color="rgb(57.826233%, 43.501282%, 8.473206%)" offset="0.1875"/><stop stop-opacity="1" stop-color="rgb(58.11615%, 43.765259%, 8.5495%)" offset="0.195313"/><stop stop-opacity="1" stop-color="rgb(58.406067%, 44.029236%, 8.627319%)" offset="0.203125"/><stop stop-opacity="1" stop-color="rgb(58.694458%, 44.293213%, 8.705139%)" offset="0.210938"/><stop stop-opacity="1" stop-color="rgb(58.984375%, 44.55719%, 8.781433%)" offset="0.21875"/><stop stop-opacity="1" stop-color="rgb(59.274292%, 44.819641%, 8.859253%)" offset="0.226563"/><stop stop-opacity="1" stop-color="rgb(59.564209%, 45.083618%, 8.935547%)" offset="0.234375"/><stop stop-opacity="1" stop-color="rgb(59.8526%, 45.347595%, 9.013367%)" offset="0.242188"/><stop stop-opacity="1" stop-color="rgb(60.142517%, 45.611572%, 9.089661%)" offset="0.25"/><stop stop-opacity="1" stop-color="rgb(60.432434%, 45.875549%, 9.16748%)" offset="0.257812"/><stop stop-opacity="1" stop-color="rgb(60.720825%, 46.139526%, 9.2453%)" offset="0.265625"/><stop stop-opacity="1" stop-color="rgb(61.010742%, 46.403503%, 9.321594%)" offset="0.273438"/><stop stop-opacity="1" stop-color="rgb(61.300659%, 46.665955%, 9.399414%)" offset="0.28125"/><stop stop-opacity="1" stop-color="rgb(61.590576%, 46.929932%, 9.475708%)" offset="0.289062"/><stop stop-opacity="1" stop-color="rgb(61.878967%, 47.193909%, 9.553528%)" offset="0.296875"/><stop stop-opacity="1" stop-color="rgb(62.168884%, 47.457886%, 9.631348%)" offset="0.304688"/><stop stop-opacity="1" stop-color="rgb(62.458801%, 47.721863%, 9.707642%)" offset="0.3125"/><stop stop-opacity="1" stop-color="rgb(62.747192%, 47.98584%, 9.785461%)" offset="0.320312"/><stop stop-opacity="1" stop-color="rgb(63.037109%, 48.248291%, 9.861755%)" offset="0.328125"/><stop stop-opacity="1" stop-color="rgb(63.327026%, 48.512268%, 9.939575%)" offset="0.335938"/><stop stop-opacity="1" stop-color="rgb(63.615417%, 48.776245%, 10.017395%)" offset="0.34375"/><stop stop-opacity="1" stop-color="rgb(63.905334%, 49.040222%, 10.093689%)" offset="0.351562"/><stop stop-opacity="1" stop-color="rgb(64.234924%, 49.345398%, 10.185242%)" offset="0.359375"/><stop stop-opacity="1" stop-color="rgb(64.845276%, 49.938965%, 10.372925%)" offset="0.363281"/><stop stop-opacity="1" stop-color="rgb(65.272522%, 50.361633%, 10.510254%)" offset="0.367188"/><stop stop-opacity="1" stop-color="rgb(65.698242%, 50.782776%, 10.646057%)" offset="0.371094"/><stop stop-opacity="1" stop-color="rgb(66.125488%, 51.205444%, 10.78186%)" offset="0.375"/><stop stop-opacity="1" stop-color="rgb(66.551208%, 51.626587%, 10.917664%)" offset="0.378906"/><stop stop-opacity="1" stop-color="rgb(66.978455%, 52.049255%, 11.054993%)" offset="0.382812"/><stop stop-opacity="1" stop-color="rgb(67.404175%, 52.470398%, 11.190796%)" offset="0.386719"/><stop stop-opacity="1" stop-color="rgb(67.831421%, 52.893066%, 11.326599%)" offset="0.390625"/><stop stop-opacity="1" stop-color="rgb(68.257141%, 53.314209%, 11.462402%)" offset="0.394531"/><stop stop-opacity="1" stop-color="rgb(68.684387%, 53.736877%, 11.598206%)" offset="0.398438"/><stop stop-opacity="1" stop-color="rgb(69.110107%, 54.15802%, 11.734009%)" offset="0.402344"/><stop stop-opacity="1" stop-color="rgb(69.537354%, 54.580688%, 11.871338%)" offset="0.40625"/><stop stop-opacity="1" stop-color="rgb(69.963074%, 55.001831%, 12.007141%)" offset="0.410156"/><stop stop-opacity="1" stop-color="rgb(70.39032%, 55.4245%, 12.142944%)" offset="0.414062"/><stop stop-opacity="1" stop-color="rgb(70.81604%, 55.847168%, 12.278748%)" offset="0.417969"/><stop stop-opacity="1" stop-color="rgb(71.243286%, 56.269836%, 12.416077%)" offset="0.421875"/><stop stop-opacity="1" stop-color="rgb(71.669006%, 56.690979%, 12.55188%)" offset="0.425781"/><stop stop-opacity="1" stop-color="rgb(72.096252%, 57.113647%, 12.687683%)" offset="0.429688"/><stop stop-opacity="1" stop-color="rgb(72.521973%, 57.53479%, 12.823486%)" offset="0.433594"/><stop stop-opacity="1" stop-color="rgb(72.949219%, 57.957458%, 12.95929%)" offset="0.4375"/><stop stop-opacity="1" stop-color="rgb(73.374939%, 58.378601%, 13.095093%)" offset="0.441406"/><stop stop-opacity="1" stop-color="rgb(73.802185%, 58.80127%, 13.232422%)" offset="0.445312"/><stop stop-opacity="1" stop-color="rgb(74.227905%, 59.222412%, 13.368225%)" offset="0.449219"/><stop stop-opacity="1" stop-color="rgb(74.655151%, 59.645081%, 13.504028%)" offset="0.453125"/><stop stop-opacity="1" stop-color="rgb(75.080872%, 60.066223%, 13.639832%)" offset="0.457031"/><stop stop-opacity="1" stop-color="rgb(75.508118%, 60.488892%, 13.775635%)" offset="0.460938"/><stop stop-opacity="1" stop-color="rgb(75.933838%, 60.910034%, 13.911438%)" offset="0.464844"/><stop stop-opacity="1" stop-color="rgb(76.361084%, 61.332703%, 14.048767%)" offset="0.46875"/><stop stop-opacity="1" stop-color="rgb(76.786804%, 61.753845%, 14.18457%)" offset="0.472656"/><stop stop-opacity="1" stop-color="rgb(77.21405%, 62.176514%, 14.320374%)" offset="0.476562"/><stop stop-opacity="1" stop-color="rgb(77.639771%, 62.597656%, 14.456177%)" offset="0.480469"/><stop stop-opacity="1" stop-color="rgb(78.067017%, 63.020325%, 14.593506%)" offset="0.484375"/><stop stop-opacity="1" stop-color="rgb(78.492737%, 63.441467%, 14.729309%)" offset="0.488281"/><stop stop-opacity="1" stop-color="rgb(78.919983%, 63.864136%, 14.865112%)" offset="0.492188"/><stop stop-opacity="1" stop-color="rgb(79.345703%, 64.285278%, 15.000916%)" offset="0.496094"/><stop stop-opacity="1" stop-color="rgb(79.772949%, 64.707947%, 15.136719%)" offset="0.5"/><stop stop-opacity="1" stop-color="rgb(80.198669%, 65.129089%, 15.272522%)" offset="0.503906"/><stop stop-opacity="1" stop-color="rgb(80.62439%, 65.551758%, 15.409851%)" offset="0.507812"/><stop stop-opacity="1" stop-color="rgb(81.05011%, 65.9729%, 15.545654%)" offset="0.511719"/><stop stop-opacity="1" stop-color="rgb(81.477356%, 66.395569%, 15.681458%)" offset="0.515625"/><stop stop-opacity="1" stop-color="rgb(81.903076%, 66.816711%, 15.817261%)" offset="0.519531"/><stop stop-opacity="1" stop-color="rgb(82.330322%, 67.23938%, 15.95459%)" offset="0.523438"/><stop stop-opacity="1" stop-color="rgb(82.756042%, 67.660522%, 16.090393%)" offset="0.527344"/><stop stop-opacity="1" stop-color="rgb(83.183289%, 68.083191%, 16.226196%)" offset="0.53125"/><stop stop-opacity="1" stop-color="rgb(83.609009%, 68.504333%, 16.362%)" offset="0.535156"/><stop stop-opacity="1" stop-color="rgb(84.036255%, 68.927002%, 16.497803%)" offset="0.539062"/><stop stop-opacity="1" stop-color="rgb(84.461975%, 69.348145%, 16.633606%)" offset="0.542969"/><stop stop-opacity="1" stop-color="rgb(84.889221%, 69.770813%, 16.770935%)" offset="0.546875"/><stop stop-opacity="1" stop-color="rgb(85.314941%, 70.191956%, 16.906738%)" offset="0.550781"/><stop stop-opacity="1" stop-color="rgb(85.742188%, 70.614624%, 17.042542%)" offset="0.554688"/><stop stop-opacity="1" stop-color="rgb(86.167908%, 71.035767%, 17.178345%)" offset="0.558594"/><stop stop-opacity="1" stop-color="rgb(86.595154%, 71.458435%, 17.315674%)" offset="0.5625"/><stop stop-opacity="1" stop-color="rgb(87.020874%, 71.879578%, 17.451477%)" offset="0.566406"/><stop stop-opacity="1" stop-color="rgb(87.44812%, 72.302246%, 17.58728%)" offset="0.570312"/><stop stop-opacity="1" stop-color="rgb(87.87384%, 72.723389%, 17.723083%)" offset="0.574219"/><stop stop-opacity="1" stop-color="rgb(88.301086%, 73.146057%, 17.858887%)" offset="0.578125"/><stop stop-opacity="1" stop-color="rgb(88.726807%, 73.5672%, 17.99469%)" offset="0.582031"/><stop stop-opacity="1" stop-color="rgb(89.154053%, 73.989868%, 18.132019%)" offset="0.585938"/><stop stop-opacity="1" stop-color="rgb(89.579773%, 74.411011%, 18.267822%)" offset="0.589844"/><stop stop-opacity="1" stop-color="rgb(90.007019%, 74.833679%, 18.403625%)" offset="0.59375"/><stop stop-opacity="1" stop-color="rgb(90.432739%, 75.254822%, 18.539429%)" offset="0.597656"/><stop stop-opacity="1" stop-color="rgb(90.859985%, 75.67749%, 18.676758%)" offset="0.601562"/><stop stop-opacity="1" stop-color="rgb(91.285706%, 76.098633%, 18.812561%)" offset="0.605469"/><stop stop-opacity="1" stop-color="rgb(91.712952%, 76.521301%, 18.948364%)" offset="0.609375"/><stop stop-opacity="1" stop-color="rgb(92.105103%, 76.9104%, 19.073486%)" offset="0.613281"/><stop stop-opacity="1" stop-color="rgb(92.498779%, 77.2995%, 19.198608%)" offset="0.617188"/><stop stop-opacity="1" stop-color="rgb(92.498779%, 77.2995%, 19.198608%)" offset="0.625"/><stop stop-opacity="1" stop-color="rgb(92.498779%, 77.2995%, 19.198608%)" offset="0.75"/><stop stop-opacity="1" stop-color="rgb(92.498779%, 77.2995%, 19.198608%)" offset="1"/></linearGradient><clipPath id="6f4a0f222e"><path d="M 3 35 L 99 35 L 99 103 L 3 103 Z M 3 35 " clip-rule="nonzero"/></clipPath><clipPath id="265a0ba11c"><path d="M 64.238281 -31.136719 L 168.898438 26.015625 L 100.960938 150.425781 L -3.699219 93.273438 Z M 64.238281 -31.136719 " clip-rule="nonzero"/></clipPath><clipPath id="0516701659"><path d="M 64.238281 -31.136719 L 168.898438 26.015625 L 100.960938 150.425781 L -3.699219 93.273438 Z M 64.238281 -31.136719 " clip-rule="nonzero"/></clipPath><clipPath id="83fae1328e"><path d="M 23.082031 58.648438 C 15.597656 64.535156 7.445312 72.867188 4.773438 82.21875 C 3.488281 86.402344 3.1875 91.234375 5.296875 95.214844 C 7.292969 99.113281 11.183594 101.691406 15.300781 102.875 C 10.335938 100.566406 6.175781 96.464844 5.867188 90.757812 C 5.699219 88.113281 6.335938 85.496094 7.253906 83.03125 C 10.6875 73.535156 20.613281 64.953125 28.757812 59.296875 C 37.238281 53.433594 46.511719 48.761719 56.132812 45.054688 C 64.851562 41.703125 73.855469 39.1875 83.046875 37.433594 C 88.179688 36.449219 93.375 35.730469 98.566406 35.167969 C 72.304688 34.039062 43.917969 42.492188 23.082031 58.648438 Z M 23.082031 58.648438 " clip-rule="nonzero"/></clipPath><linearGradient x1="-426.022315" gradientTransform="matrix(0.049009, 0.0267622, -0.0267622, 0.049009, 65.295497, -30.057039)" y1="1633.19897" x2="1663.900772" gradientUnits="userSpaceOnUse" y2="1633.19897" id="5f6271c295"><stop stop-opacity="1" stop-color="rgb(55.299377%, 41.19873%, 7.798767%)" offset="0"/><stop stop-opacity="1" stop-color="rgb(55.299377%, 41.19873%, 7.798767%)" offset="0.125"/><stop stop-opacity="1" stop-color="rgb(55.299377%, 41.19873%, 7.798767%)" offset="0.1875"/><stop stop-opacity="1" stop-color="rgb(55.299377%, 41.19873%, 7.798767%)" offset="0.203125"/><stop stop-opacity="1" stop-color="rgb(55.476379%, 41.360474%, 7.846069%)" offset="0.210937"/><stop stop-opacity="1" stop-color="rgb(55.85022%, 41.700745%, 7.945251%)" offset="0.21875"/><stop stop-opacity="1" stop-color="rgb(56.240845%, 42.056274%, 8.050537%)" offset="0.226563"/><stop stop-opacity="1" stop-color="rgb(56.63147%, 42.41333%, 8.154297%)" offset="0.230469"/><stop stop-opacity="1" stop-color="rgb(56.828308%, 42.591858%, 8.206177%)" offset="0.234375"/><stop stop-opacity="1" stop-color="rgb(57.023621%, 42.76886%, 8.258057%)" offset="0.242187"/><stop stop-opacity="1" stop-color="rgb(57.414246%, 43.125916%, 8.363342%)" offset="0.25"/><stop stop-opacity="1" stop-color="rgb(57.804871%, 43.481445%, 8.467102%)" offset="0.257812"/><stop stop-opacity="1" stop-color="rgb(58.195496%, 43.838501%, 8.570862%)" offset="0.261719"/><stop stop-opacity="1" stop-color="rgb(58.392334%, 44.017029%, 8.624268%)" offset="0.265625"/><stop stop-opacity="1" stop-color="rgb(58.587646%, 44.195557%, 8.676147%)" offset="0.273438"/><stop stop-opacity="1" stop-color="rgb(58.978271%, 44.551086%, 8.779907%)" offset="0.28125"/><stop stop-opacity="1" stop-color="rgb(59.368896%, 44.908142%, 8.885193%)" offset="0.285156"/><stop stop-opacity="1" stop-color="rgb(59.565735%, 45.08667%, 8.937073%)" offset="0.289062"/><stop stop-opacity="1" stop-color="rgb(59.761047%, 45.263672%, 8.988953%)" offset="0.296875"/><stop stop-opacity="1" stop-color="rgb(60.151672%, 45.620728%, 9.092712%)" offset="0.304688"/><stop stop-opacity="1" stop-color="rgb(60.542297%, 45.976257%, 9.197998%)" offset="0.308594"/><stop stop-opacity="1" stop-color="rgb(60.739136%, 46.154785%, 9.249878%)" offset="0.3125"/><stop stop-opacity="1" stop-color="rgb(60.934448%, 46.333313%, 9.301758%)" offset="0.320312"/><stop stop-opacity="1" stop-color="rgb(61.325073%, 46.688843%, 9.405518%)" offset="0.328125"/><stop stop-opacity="1" stop-color="rgb(61.715698%, 47.045898%, 9.510803%)" offset="0.332031"/><stop stop-opacity="1" stop-color="rgb(61.912537%, 47.224426%, 9.562683%)" offset="0.335938"/><stop stop-opacity="1" stop-color="rgb(62.107849%, 47.401428%, 9.614563%)" offset="0.34375"/><stop stop-opacity="1" stop-color="rgb(62.498474%, 47.758484%, 9.718323%)" offset="0.351562"/><stop stop-opacity="1" stop-color="rgb(62.889099%, 48.114014%, 9.823608%)" offset="0.355469"/><stop stop-opacity="1" stop-color="rgb(63.085938%, 48.292542%, 9.875488%)" offset="0.359375"/><stop stop-opacity="1" stop-color="rgb(63.28125%, 48.471069%, 9.927368%)" offset="0.367188"/><stop stop-opacity="1" stop-color="rgb(63.671875%, 48.826599%, 10.031128%)" offset="0.375"/><stop stop-opacity="1" stop-color="rgb(64.0625%, 49.183655%, 10.136414%)" offset="0.382812"/><stop stop-opacity="1" stop-color="rgb(64.794922%, 49.891663%, 10.357666%)" offset="0.386719"/><stop stop-opacity="1" stop-color="rgb(65.332031%, 50.421143%, 10.528564%)" offset="0.390625"/><stop stop-opacity="1" stop-color="rgb(65.907288%, 50.990295%, 10.71167%)" offset="0.394531"/><stop stop-opacity="1" stop-color="rgb(66.48407%, 51.560974%, 10.896301%)" offset="0.398438"/><stop stop-opacity="1" stop-color="rgb(67.059326%, 52.130127%, 11.079407%)" offset="0.402344"/><stop stop-opacity="1" stop-color="rgb(67.636108%, 52.700806%, 11.264038%)" offset="0.40625"/><stop stop-opacity="1" stop-color="rgb(68.211365%, 53.269958%, 11.447144%)" offset="0.410156"/><stop stop-opacity="1" stop-color="rgb(68.788147%, 53.840637%, 11.631775%)" offset="0.414062"/><stop stop-opacity="1" stop-color="rgb(69.364929%, 54.40979%, 11.81488%)" offset="0.417969"/><stop stop-opacity="1" stop-color="rgb(69.941711%, 54.980469%, 11.999512%)" offset="0.421875"/><stop stop-opacity="1" stop-color="rgb(70.516968%, 55.551147%, 12.182617%)" offset="0.425781"/><stop stop-opacity="1" stop-color="rgb(71.09375%, 56.121826%, 12.367249%)" offset="0.429688"/><stop stop-opacity="1" stop-color="rgb(71.669006%, 56.690979%, 12.550354%)" offset="0.433594"/><stop stop-opacity="1" stop-color="rgb(72.245789%, 57.261658%, 12.734985%)" offset="0.4375"/><stop stop-opacity="1" stop-color="rgb(72.821045%, 57.830811%, 12.918091%)" offset="0.441406"/><stop stop-opacity="1" stop-color="rgb(73.397827%, 58.401489%, 13.102722%)" offset="0.445312"/><stop stop-opacity="1" stop-color="rgb(73.974609%, 58.970642%, 13.285828%)" offset="0.449219"/><stop stop-opacity="1" stop-color="rgb(74.551392%, 59.541321%, 13.470459%)" offset="0.453125"/><stop stop-opacity="1" stop-color="rgb(75.126648%, 60.110474%, 13.653564%)" offset="0.457031"/><stop stop-opacity="1" stop-color="rgb(75.70343%, 60.681152%, 13.838196%)" offset="0.460938"/><stop stop-opacity="1" stop-color="rgb(76.278687%, 61.251831%, 14.021301%)" offset="0.464844"/><stop stop-opacity="1" stop-color="rgb(76.855469%, 61.82251%, 14.205933%)" offset="0.46875"/><stop stop-opacity="1" stop-color="rgb(77.430725%, 62.391663%, 14.389038%)" offset="0.472656"/><stop stop-opacity="1" stop-color="rgb(78.007507%, 62.962341%, 14.573669%)" offset="0.476562"/><stop stop-opacity="1" stop-color="rgb(78.58429%, 63.531494%, 14.756775%)" offset="0.480469"/><stop stop-opacity="1" stop-color="rgb(79.161072%, 64.102173%, 14.941406%)" offset="0.484375"/><stop stop-opacity="1" stop-color="rgb(79.736328%, 64.671326%, 15.126038%)" offset="0.488281"/><stop stop-opacity="1" stop-color="rgb(80.31311%, 65.242004%, 15.310669%)" offset="0.492188"/><stop stop-opacity="1" stop-color="rgb(80.888367%, 65.811157%, 15.493774%)" offset="0.496094"/><stop stop-opacity="1" stop-color="rgb(81.465149%, 66.381836%, 15.678406%)" offset="0.5"/><stop stop-opacity="1" stop-color="rgb(82.040405%, 66.952515%, 15.861511%)" offset="0.503906"/><stop stop-opacity="1" stop-color="rgb(82.617188%, 67.523193%, 16.046143%)" offset="0.507812"/><stop stop-opacity="1" stop-color="rgb(83.192444%, 68.092346%, 16.229248%)" offset="0.511719"/><stop stop-opacity="1" stop-color="rgb(83.769226%, 68.663025%, 16.413879%)" offset="0.515625"/><stop stop-opacity="1" stop-color="rgb(84.346008%, 69.232178%, 16.596985%)" offset="0.519531"/><stop stop-opacity="1" stop-color="rgb(84.922791%, 69.802856%, 16.781616%)" offset="0.523438"/><stop stop-opacity="1" stop-color="rgb(85.498047%, 70.372009%, 16.964722%)" offset="0.527344"/><stop stop-opacity="1" stop-color="rgb(86.074829%, 70.942688%, 17.149353%)" offset="0.53125"/><stop stop-opacity="1" stop-color="rgb(86.650085%, 71.511841%, 17.332458%)" offset="0.535156"/><stop stop-opacity="1" stop-color="rgb(87.226868%, 72.08252%, 17.51709%)" offset="0.539062"/><stop stop-opacity="1" stop-color="rgb(87.802124%, 72.653198%, 17.700195%)" offset="0.542969"/><stop stop-opacity="1" stop-color="rgb(88.378906%, 73.223877%, 17.884827%)" offset="0.546875"/><stop stop-opacity="1" stop-color="rgb(88.955688%, 73.79303%, 18.067932%)" offset="0.550781"/><stop stop-opacity="1" stop-color="rgb(89.532471%, 74.363708%, 18.252563%)" offset="0.554688"/><stop stop-opacity="1" stop-color="rgb(90.107727%, 74.932861%, 18.435669%)" offset="0.558594"/><stop stop-opacity="1" stop-color="rgb(90.684509%, 75.50354%, 18.6203%)" offset="0.5625"/><stop stop-opacity="1" stop-color="rgb(91.259766%, 76.072693%, 18.803406%)" offset="0.566406"/><stop stop-opacity="1" stop-color="rgb(91.836548%, 76.643372%, 18.988037%)" offset="0.570312"/><stop stop-opacity="1" stop-color="rgb(92.167664%, 76.971436%, 19.093323%)" offset="0.574219"/><stop stop-opacity="1" stop-color="rgb(92.498779%, 77.2995%, 19.198608%)" offset="0.578125"/><stop stop-opacity="1" stop-color="rgb(92.498779%, 77.2995%, 19.198608%)" offset="0.59375"/><stop stop-opacity="1" stop-color="rgb(92.498779%, 77.2995%, 19.198608%)" offset="0.625"/><stop stop-opacity="1" stop-color="rgb(92.498779%, 77.2995%, 19.198608%)" offset="0.75"/><stop stop-opacity="1" stop-color="rgb(92.498779%, 77.2995%, 19.198608%)" offset="1"/></linearGradient><clipPath id="43d5b28bb3"><path d="M 54.542969 111.695312 L 168.929688 111.695312 L 168.929688 123.484375 L 54.542969 123.484375 Z M 54.542969 111.695312 " clip-rule="nonzero"/></clipPath></defs><g clip-path="url(#66f0d02dcd)"><g clip-path="url(#405ca9d980)"><g clip-path="url(#4ce04df2d0)"><g clip-path="url(#09bbdd28ea)"><path fill="url(#3a09776a36)" d="M 114.949219 -24.464844 L 75.667969 47.472656 L 151.914062 89.109375 L 191.195312 17.171875 Z M 114.949219 -24.464844 " fill-rule="nonzero"/></g></g></g></g><g clip-path="url(#6f4a0f222e)"><g clip-path="url(#265a0ba11c)"><g clip-path="url(#0516701659)"><g clip-path="url(#83fae1328e)"><path fill="url(#5f6271c295)" d="M 25.097656 -6.078125 L -25.765625 87.0625 L 76.660156 142.996094 L 127.523438 49.851562 Z M 25.097656 -6.078125 " fill-rule="nonzero"/></g></g></g></g><g clip-path="url(#43d5b28bb3)"><path fill="#ecc531" d="M 54.542969 111.695312 L 168.914062 111.695312 L 168.914062 123.480469 L 54.542969 123.480469 Z M 54.542969 111.695312 " fill-opacity="1" fill-rule="nonzero"/></g><g fill="#ecc531" fill-opacity="1"><g transform="translate(42.794889, 96.817521)"><g><path d="M 11.3125 -28.0625 L 24.375 -28.0625 L 24.375 -21.734375 L 13.25 -21.734375 C 12.425781 -21.734375 11.664062 -21.5 10.96875 -21.03125 C 10.28125 -20.5625 9.734375 -19.929688 9.328125 -19.140625 C 8.929688 -18.359375 8.734375 -17.492188 8.734375 -16.546875 L 8.734375 -14.1875 L 24.34375 -14.1875 L 24.375 -7.859375 L 8.734375 -7.859375 L 8.734375 6.34375 L 1.0625 6.34375 L 1.0625 -16.96875 C 1.0625 -18.40625 1.3125 -19.785156 1.8125 -21.109375 C 2.320312 -22.441406 3.039062 -23.628906 3.96875 -24.671875 C 4.894531 -25.710938 5.976562 -26.535156 7.21875 -27.140625 C 8.46875 -27.753906 9.832031 -28.0625 11.3125 -28.0625 Z M 11.3125 -28.0625 "/></g></g></g><g fill="#ecc531" fill-opacity="1"><g transform="translate(68.002923, 96.817521)"><g><path d="M 16.734375 -22.46875 C 15.085938 -22.46875 13.648438 -22.097656 12.421875 -21.359375 C 11.203125 -20.617188 10.257812 -19.609375 9.59375 -18.328125 C 8.925781 -17.046875 8.59375 -15.597656 8.59375 -13.984375 C 8.59375 -12.484375 8.925781 -11.09375 9.59375 -9.8125 C 10.257812 -8.53125 11.203125 -7.503906 12.421875 -6.734375 C 13.648438 -5.972656 15.085938 -5.59375 16.734375 -5.59375 C 18.398438 -5.59375 19.835938 -5.929688 21.046875 -6.609375 C 22.253906 -7.296875 23.191406 -8.265625 23.859375 -9.515625 C 24.523438 -10.773438 24.859375 -12.265625 24.859375 -13.984375 C 24.859375 -15.628906 24.523438 -17.085938 23.859375 -18.359375 C 23.191406 -19.640625 22.242188 -20.644531 21.015625 -21.375 C 19.796875 -22.101562 18.367188 -22.46875 16.734375 -22.46875 Z M 16.734375 0.734375 C 14.597656 0.734375 12.550781 0.425781 10.59375 -0.1875 C 8.644531 -0.8125 6.914062 -1.742188 5.40625 -2.984375 C 3.894531 -4.234375 2.695312 -5.773438 1.8125 -7.609375 C 0.9375 -9.441406 0.5 -11.566406 0.5 -13.984375 C 0.5 -16.347656 0.9375 -18.453125 1.8125 -20.296875 C 2.695312 -22.140625 3.894531 -23.695312 5.40625 -24.96875 C 6.914062 -26.238281 8.644531 -27.195312 10.59375 -27.84375 C 12.550781 -28.488281 14.597656 -28.8125 16.734375 -28.8125 C 18.890625 -28.8125 20.941406 -28.488281 22.890625 -27.84375 C 24.835938 -27.195312 26.566406 -26.238281 28.078125 -24.96875 C 29.597656 -23.695312 30.789062 -22.140625 31.65625 -20.296875 C 32.53125 -18.453125 32.96875 -16.347656 32.96875 -13.984375 C 32.96875 -11.566406 32.53125 -9.4375 31.65625 -7.59375 C 30.789062 -5.75 29.59375 -4.207031 28.0625 -2.96875 C 26.539062 -1.738281 24.8125 -0.8125 22.875 -0.1875 C 20.9375 0.425781 18.890625 0.734375 16.734375 0.734375 Z M 16.734375 0.734375 "/></g></g></g><g fill="#ecc531" fill-opacity="1"><g transform="translate(101.44934, 96.817521)"><g><path d="M 1.0625 -28.0625 L 19.609375 -28.0625 C 20.992188 -28.0625 22.28125 -27.769531 23.46875 -27.1875 C 24.65625 -26.601562 25.703125 -25.820312 26.609375 -24.84375 C 27.515625 -23.875 28.21875 -22.773438 28.71875 -21.546875 C 29.226562 -20.328125 29.484375 -19.085938 29.484375 -17.828125 C 29.484375 -16.578125 29.242188 -15.328125 28.765625 -14.078125 C 28.296875 -12.835938 27.628906 -11.753906 26.765625 -10.828125 C 25.898438 -9.898438 24.867188 -9.273438 23.671875 -8.953125 C 25.398438 -8.148438 26.585938 -7.113281 27.234375 -5.84375 C 27.878906 -4.570312 28.203125 -3.175781 28.203125 -1.65625 L 28.203125 6.34375 L 20.53125 6.34375 L 20.53125 -1.09375 C 20.53125 -4.519531 19.003906 -6.234375 15.953125 -6.234375 L 10.421875 -6.234375 L 10.421875 -12.578125 L 17.015625 -12.578125 C 17.742188 -12.578125 18.441406 -12.78125 19.109375 -13.1875 C 19.773438 -13.601562 20.316406 -14.148438 20.734375 -14.828125 C 21.160156 -15.503906 21.375 -16.265625 21.375 -17.109375 C 21.375 -18.054688 21.148438 -18.875 20.703125 -19.5625 C 20.265625 -20.257812 19.691406 -20.796875 18.984375 -21.171875 C 18.273438 -21.546875 17.523438 -21.734375 16.734375 -21.734375 L 8.734375 -21.734375 L 8.734375 0 L 1.0625 0 Z M 1.0625 -28.0625 "/></g></g></g><g fill="#ecc531" fill-opacity="1"><g transform="translate(131.410284, 96.817521)"><g><path d="M 1.96875 -28.0625 L 9.6875 -28.0625 C 9.519531 -27.6875 9.40625 -27.34375 9.34375 -27.03125 C 9.289062 -26.71875 9.265625 -26.40625 9.265625 -26.09375 C 9.265625 -25.300781 9.507812 -24.582031 10 -23.9375 C 10.488281 -23.289062 11.117188 -22.65625 11.890625 -22.03125 C 12.671875 -21.40625 13.492188 -20.738281 14.359375 -20.03125 C 15.234375 -19.332031 16.0625 -18.519531 16.84375 -17.59375 C 17.632812 -16.664062 18.273438 -15.566406 18.765625 -14.296875 C 19.265625 -13.023438 19.515625 -11.523438 19.515625 -9.796875 C 19.515625 -8.429688 19.210938 -7.15625 18.609375 -5.96875 C 18.015625 -4.78125 17.21875 -3.738281 16.21875 -2.84375 C 15.21875 -1.957031 14.113281 -1.257812 12.90625 -0.75 C 11.695312 -0.25 10.484375 0 9.265625 0 L 0.5625 0 L 0.5625 -6.34375 L 6.6875 -6.34375 C 7.300781 -6.34375 7.976562 -6.476562 8.71875 -6.75 C 9.457031 -7.019531 10.085938 -7.40625 10.609375 -7.90625 C 11.140625 -8.40625 11.40625 -9 11.40625 -9.6875 C 11.40625 -10.769531 11.164062 -11.707031 10.6875 -12.5 C 10.207031 -13.300781 9.59375 -14.023438 8.84375 -14.671875 C 8.09375 -15.316406 7.289062 -15.960938 6.4375 -16.609375 C 5.59375 -17.253906 4.796875 -17.953125 4.046875 -18.703125 C 3.296875 -19.453125 2.679688 -20.328125 2.203125 -21.328125 C 1.722656 -22.328125 1.484375 -23.503906 1.484375 -24.859375 C 1.484375 -25.796875 1.644531 -26.863281 1.96875 -28.0625 Z M 1.96875 -28.0625 "/></g></g></g><g fill="#ecc531" fill-opacity="1"><g transform="translate(151.407722, 96.817521)"><g><path d="M 18.84375 -6.34375 L 0.5 -6.34375 L 0.5 -15.421875 C 0.5 -17.273438 0.851562 -19.007812 1.5625 -20.625 C 2.28125 -22.25 3.28125 -23.671875 4.5625 -24.890625 C 5.84375 -26.117188 7.320312 -27.078125 9 -27.765625 C 10.675781 -28.460938 12.476562 -28.8125 14.40625 -28.8125 C 16.300781 -28.8125 18.082031 -28.460938 19.75 -27.765625 C 21.425781 -27.078125 22.894531 -26.113281 24.15625 -24.875 C 25.425781 -23.644531 26.414062 -22.21875 27.125 -20.59375 C 27.84375 -18.976562 28.203125 -17.242188 28.203125 -15.390625 L 28.203125 6.34375 L 20.53125 6.34375 L 20.53125 -15.78125 C 20.53125 -17.019531 20.253906 -18.144531 19.703125 -19.15625 C 19.148438 -20.164062 18.414062 -20.96875 17.5 -21.5625 C 16.582031 -22.164062 15.5625 -22.46875 14.4375 -22.46875 C 13.289062 -22.46875 12.238281 -22.171875 11.28125 -21.578125 C 10.332031 -20.992188 9.578125 -20.207031 9.015625 -19.21875 C 8.453125 -18.238281 8.171875 -17.148438 8.171875 -15.953125 L 8.171875 -12.671875 L 18.84375 -12.671875 Z M 18.84375 -6.34375 "/></g></g></g><g fill="#000000" fill-opacity="1"><g transform="translate(89.670277, 120.150264)"><g><path d="M 0.359375 0 L 0.359375 -0.21875 L 1.125 -0.265625 L 1.125 -6.796875 L 0.359375 -6.84375 L 0.359375 -7.0625 L 5.046875 -7.0625 L 5.09375 -5.046875 L 4.8125 -5.046875 C 4.789062 -5.328125 4.75 -5.566406 4.6875 -5.765625 C 4.632812 -5.960938 4.550781 -6.140625 4.4375 -6.296875 C 4.320312 -6.460938 4.164062 -6.585938 3.96875 -6.671875 C 3.769531 -6.753906 3.53125 -6.796875 3.25 -6.796875 C 2.863281 -6.796875 2.578125 -6.78125 2.390625 -6.75 L 2.390625 -3.6875 C 2.472656 -3.6875 2.519531 -3.6875 2.53125 -3.6875 C 2.769531 -3.6875 2.957031 -3.695312 3.09375 -3.71875 C 3.226562 -3.75 3.347656 -3.800781 3.453125 -3.875 C 3.566406 -3.957031 3.644531 -4.078125 3.6875 -4.234375 C 3.726562 -4.398438 3.75 -4.613281 3.75 -4.875 L 4.015625 -4.875 L 4.015625 -2.21875 L 3.75 -2.21875 C 3.75 -2.664062 3.671875 -2.976562 3.515625 -3.15625 C 3.367188 -3.332031 3.125 -3.421875 2.78125 -3.421875 L 2.390625 -3.421875 L 2.390625 -0.265625 L 3.359375 -0.21875 L 3.359375 0 Z M 0.359375 0 "/></g></g></g><g fill="#000000" fill-opacity="1"><g transform="translate(96.811207, 120.150264)"><g><path d="M 0.46875 -3.515625 C 0.46875 -4.191406 0.585938 -4.8125 0.828125 -5.375 C 1.078125 -5.9375 1.4375 -6.382812 1.90625 -6.71875 C 2.382812 -7.0625 2.9375 -7.234375 3.5625 -7.234375 C 4.488281 -7.234375 5.234375 -6.90625 5.796875 -6.25 C 6.367188 -5.59375 6.65625 -4.734375 6.65625 -3.671875 C 6.65625 -3.273438 6.613281 -2.894531 6.53125 -2.53125 C 6.457031 -2.164062 6.335938 -1.816406 6.171875 -1.484375 C 6.015625 -1.160156 5.816406 -0.875 5.578125 -0.625 C 5.335938 -0.382812 5.046875 -0.191406 4.703125 -0.046875 C 4.359375 0.0976562 3.984375 0.171875 3.578125 0.171875 C 2.617188 0.171875 1.859375 -0.160156 1.296875 -0.828125 C 0.742188 -1.503906 0.46875 -2.398438 0.46875 -3.515625 Z M 1.796875 -3.625 C 1.796875 -2.96875 1.859375 -2.378906 1.984375 -1.859375 C 2.117188 -1.335938 2.320312 -0.910156 2.59375 -0.578125 C 2.863281 -0.253906 3.1875 -0.09375 3.5625 -0.09375 C 4.113281 -0.09375 4.546875 -0.414062 4.859375 -1.0625 C 5.171875 -1.707031 5.328125 -2.5625 5.328125 -3.625 C 5.328125 -4.738281 5.171875 -5.570312 4.859375 -6.125 C 4.554688 -6.6875 4.128906 -6.96875 3.578125 -6.96875 C 3.390625 -6.96875 3.207031 -6.925781 3.03125 -6.84375 C 2.863281 -6.769531 2.703125 -6.644531 2.546875 -6.46875 C 2.398438 -6.289062 2.269531 -6.070312 2.15625 -5.8125 C 2.050781 -5.5625 1.960938 -5.25 1.890625 -4.875 C 1.828125 -4.5 1.796875 -4.082031 1.796875 -3.625 Z M 1.796875 -3.625 "/></g></g></g><g fill="#000000" fill-opacity="1"><g transform="translate(105.739121, 120.150264)"><g><path d="M 0.359375 0 L 0.359375 -0.21875 L 1.125 -0.265625 L 1.125 -6.796875 L 0.359375 -6.84375 L 0.359375 -7.0625 L 3 -7.0625 C 3.363281 -7.0625 3.691406 -7.03125 3.984375 -6.96875 C 4.285156 -6.90625 4.550781 -6.804688 4.78125 -6.671875 C 5.019531 -6.535156 5.203125 -6.351562 5.328125 -6.125 C 5.453125 -5.894531 5.515625 -5.625 5.515625 -5.3125 C 5.515625 -4.75 5.320312 -4.304688 4.9375 -3.984375 C 4.5625 -3.671875 4.050781 -3.46875 3.40625 -3.375 C 3.6875 -3.363281 3.925781 -3.316406 4.125 -3.234375 C 4.332031 -3.148438 4.492188 -3.039062 4.609375 -2.90625 C 4.734375 -2.769531 4.847656 -2.597656 4.953125 -2.390625 C 5.023438 -2.242188 5.128906 -2.019531 5.265625 -1.71875 C 5.398438 -1.425781 5.535156 -1.164062 5.671875 -0.9375 C 5.773438 -0.75 5.882812 -0.601562 6 -0.5 C 6.113281 -0.394531 6.207031 -0.328125 6.28125 -0.296875 C 6.363281 -0.273438 6.457031 -0.265625 6.5625 -0.265625 L 6.5625 0 L 5.734375 0 C 5.484375 0 5.285156 -0.015625 5.140625 -0.046875 C 4.992188 -0.078125 4.847656 -0.148438 4.703125 -0.265625 C 4.566406 -0.390625 4.441406 -0.554688 4.328125 -0.765625 C 4.210938 -0.972656 4.019531 -1.410156 3.75 -2.078125 C 3.707031 -2.179688 3.648438 -2.3125 3.578125 -2.46875 C 3.503906 -2.625 3.441406 -2.738281 3.390625 -2.8125 C 3.335938 -2.894531 3.269531 -2.976562 3.1875 -3.0625 C 3.113281 -3.15625 3.039062 -3.222656 2.96875 -3.265625 C 2.894531 -3.304688 2.8125 -3.328125 2.71875 -3.328125 C 2.570312 -3.328125 2.460938 -3.320312 2.390625 -3.3125 L 2.390625 -0.265625 L 3.15625 -0.21875 L 3.15625 0 Z M 2.390625 -3.59375 C 2.429688 -3.59375 2.5 -3.59375 2.59375 -3.59375 C 3.175781 -3.59375 3.585938 -3.734375 3.828125 -4.015625 C 4.066406 -4.304688 4.1875 -4.734375 4.1875 -5.296875 C 4.1875 -5.585938 4.148438 -5.832031 4.078125 -6.03125 C 4.015625 -6.226562 3.921875 -6.378906 3.796875 -6.484375 C 3.671875 -6.597656 3.53125 -6.675781 3.375 -6.71875 C 3.226562 -6.757812 3.054688 -6.78125 2.859375 -6.78125 C 2.734375 -6.78125 2.578125 -6.769531 2.390625 -6.75 Z M 2.390625 -3.59375 "/></g></g></g><g fill="#000000" fill-opacity="1"><g transform="translate(113.914623, 120.150264)"><g/></g></g><g fill="#000000" fill-opacity="1"><g transform="translate(118.001358, 120.150264)"><g><path d="M -0.1875 -6.84375 L -0.1875 -7.0625 L 2.71875 -7.0625 L 2.71875 -6.84375 L 1.953125 -6.796875 L 3.625 -3.78125 L 3.65625 -3.78125 L 5.046875 -6.796875 L 4.34375 -6.84375 L 4.34375 -7.0625 L 6 -7.0625 L 6 -6.84375 L 5.375 -6.796875 L 3.84375 -3.484375 L 3.84375 -0.265625 L 4.59375 -0.21875 L 4.59375 0 L 1.8125 0 L 1.8125 -0.21875 L 2.5625 -0.265625 L 2.5625 -3.1875 L 0.484375 -6.796875 Z M -0.1875 -6.84375 "/></g></g></g><g fill="#000000" fill-opacity="1"><g transform="translate(125.830352, 120.150264)"><g><path d="M 0.46875 -3.515625 C 0.46875 -4.191406 0.585938 -4.8125 0.828125 -5.375 C 1.078125 -5.9375 1.4375 -6.382812 1.90625 -6.71875 C 2.382812 -7.0625 2.9375 -7.234375 3.5625 -7.234375 C 4.488281 -7.234375 5.234375 -6.90625 5.796875 -6.25 C 6.367188 -5.59375 6.65625 -4.734375 6.65625 -3.671875 C 6.65625 -3.273438 6.613281 -2.894531 6.53125 -2.53125 C 6.457031 -2.164062 6.335938 -1.816406 6.171875 -1.484375 C 6.015625 -1.160156 5.816406 -0.875 5.578125 -0.625 C 5.335938 -0.382812 5.046875 -0.191406 4.703125 -0.046875 C 4.359375 0.0976562 3.984375 0.171875 3.578125 0.171875 C 2.617188 0.171875 1.859375 -0.160156 1.296875 -0.828125 C 0.742188 -1.503906 0.46875 -2.398438 0.46875 -3.515625 Z M 1.796875 -3.625 C 1.796875 -2.96875 1.859375 -2.378906 1.984375 -1.859375 C 2.117188 -1.335938 2.320312 -0.910156 2.59375 -0.578125 C 2.863281 -0.253906 3.1875 -0.09375 3.5625 -0.09375 C 4.113281 -0.09375 4.546875 -0.414062 4.859375 -1.0625 C 5.171875 -1.707031 5.328125 -2.5625 5.328125 -3.625 C 5.328125 -4.738281 5.171875 -5.570312 4.859375 -6.125 C 4.554688 -6.6875 4.128906 -6.96875 3.578125 -6.96875 C 3.390625 -6.96875 3.207031 -6.925781 3.03125 -6.84375 C 2.863281 -6.769531 2.703125 -6.644531 2.546875 -6.46875 C 2.398438 -6.289062 2.269531 -6.070312 2.15625 -5.8125 C 2.050781 -5.5625 1.960938 -5.25 1.890625 -4.875 C 1.828125 -4.5 1.796875 -4.082031 1.796875 -3.625 Z M 1.796875 -3.625 "/></g></g></g><g fill="#000000" fill-opacity="1"><g transform="translate(134.758264, 120.150264)"><g><path d="M 0.25 -6.84375 L 0.25 -7.0625 L 3.03125 -7.0625 L 3.03125 -6.84375 L 2.265625 -6.796875 L 2.265625 -2.171875 C 2.265625 -2.035156 2.265625 -1.914062 2.265625 -1.8125 C 2.273438 -1.707031 2.289062 -1.578125 2.3125 -1.421875 C 2.34375 -1.273438 2.378906 -1.144531 2.421875 -1.03125 C 2.472656 -0.925781 2.539062 -0.816406 2.625 -0.703125 C 2.71875 -0.585938 2.820312 -0.492188 2.9375 -0.421875 C 3.050781 -0.347656 3.195312 -0.285156 3.375 -0.234375 C 3.5625 -0.191406 3.765625 -0.171875 3.984375 -0.171875 C 4.253906 -0.171875 4.492188 -0.210938 4.703125 -0.296875 C 4.921875 -0.378906 5.09375 -0.488281 5.21875 -0.625 C 5.351562 -0.757812 5.460938 -0.921875 5.546875 -1.109375 C 5.628906 -1.304688 5.6875 -1.503906 5.71875 -1.703125 C 5.75 -1.910156 5.765625 -2.128906 5.765625 -2.359375 L 5.765625 -6.796875 L 5.015625 -6.84375 L 5.015625 -7.0625 L 6.84375 -7.0625 L 6.84375 -6.84375 L 6.078125 -6.796875 L 6.078125 -2.265625 C 6.078125 -2.023438 6.054688 -1.796875 6.015625 -1.578125 C 5.984375 -1.367188 5.914062 -1.148438 5.8125 -0.921875 C 5.71875 -0.703125 5.585938 -0.515625 5.421875 -0.359375 C 5.253906 -0.203125 5.035156 -0.078125 4.765625 0.015625 C 4.492188 0.117188 4.179688 0.171875 3.828125 0.171875 C 3.460938 0.171875 3.132812 0.144531 2.84375 0.09375 C 2.5625 0.0390625 2.320312 -0.0234375 2.125 -0.109375 C 1.925781 -0.203125 1.753906 -0.316406 1.609375 -0.453125 C 1.472656 -0.585938 1.363281 -0.71875 1.28125 -0.84375 C 1.207031 -0.976562 1.144531 -1.140625 1.09375 -1.328125 C 1.050781 -1.515625 1.023438 -1.679688 1.015625 -1.828125 C 1.003906 -1.984375 1 -2.164062 1 -2.375 L 1 -6.796875 Z M 0.25 -6.84375 "/></g></g></g>
</svg>