<svg xmlns="http://www.w3.org/2000/svg" xmlns:xlink="http://www.w3.org/1999/xlink" width="500" zoomAndPan="magnify" viewBox="0 0 375 374.999991" height="500" preserveAspectRatio="xMidYMid meet" version="1.0"><defs><g/><clipPath id="fe2006b9e7"><path d="M 205 4 L 339 4 L 339 113 L 205 113 Z M 205 4 " clip-rule="nonzero"/></clipPath><clipPath id="d2e0e2e44b"><path d="M 137.78125 -64.6875 L 341.183594 46.382812 L 208.902344 288.621094 L 5.503906 177.550781 Z M 137.78125 -64.6875 " clip-rule="nonzero"/></clipPath><clipPath id="3bff898684"><path d="M 137.78125 -64.6875 L 341.183594 46.382812 L 208.902344 288.621094 L 5.503906 177.550781 Z M 137.78125 -64.6875 " clip-rule="nonzero"/></clipPath><clipPath id="0d33bfe6d0"><path d="M 338.203125 48.113281 C 337.796875 44.554688 320.304688 43.945312 318.207031 43.871094 C 307.386719 43.496094 298.347656 44.953125 291.945312 46.441406 C 289.078125 42.234375 286.214844 38.03125 283.351562 33.824219 C 284.617188 33.625 285.882812 33.425781 287.148438 33.226562 C 287.003906 32.296875 286.679688 30.9375 285.90625 29.464844 C 284.988281 27.71875 283.828125 26.5625 283.054688 25.902344 C 281.859375 26.179688 280.660156 26.457031 279.460938 26.730469 C 274.308594 19.5625 269.152344 12.390625 264 5.222656 C 263.960938 5.203125 263.925781 5.179688 263.890625 5.160156 C 259.054688 4.316406 254.117188 4.386719 249.214844 4.125 C 255.097656 14.175781 260.984375 24.226562 266.867188 34.273438 L 264.542969 34.890625 C 264.832031 35.425781 265.121094 35.960938 265.410156 36.5 C 266.355469 36.546875 267.304688 36.597656 268.253906 36.644531 C 270.359375 40.242188 272.464844 43.835938 274.570312 47.429688 L 224.875 57.707031 C 222.058594 53.898438 219.242188 50.09375 216.421875 46.285156 C 212.867188 45.769531 209.3125 45.253906 205.757812 44.734375 L 215.15625 61.378906 C 213.65625 61.914062 212.152344 62.449219 210.648438 62.984375 C 210.699219 63.402344 210.753906 63.820312 210.808594 64.238281 C 212.304688 64.472656 213.804688 64.710938 215.304688 64.949219 C 213.117188 70.496094 210.929688 76.046875 208.742188 81.597656 C 212.144531 80.636719 215.546875 79.671875 218.949219 78.710938 C 221.242188 74.324219 223.53125 69.9375 225.824219 65.550781 L 276.394531 63.734375 L 272.921875 74.378906 L 270.625 75.015625 L 270.347656 76.113281 C 270.726562 76.371094 271.109375 76.628906 271.492188 76.886719 C 267.011719 88.914062 262.527344 100.941406 258.046875 112.96875 C 259.832031 112.570312 261.277344 112.195312 262.257812 111.902344 C 265.449219 110.960938 268.609375 109.863281 271.847656 109.085938 C 272.304688 108.976562 272.765625 108.875 273.222656 108.78125 C 277.425781 100.0625 281.628906 91.339844 285.832031 82.621094 C 287.066406 82.597656 288.300781 82.574219 289.535156 82.550781 C 290.167969 81.777344 291.078125 80.476562 291.660156 78.652344 C 292.132812 77.1875 292.226562 75.894531 292.222656 74.992188 C 290.980469 74.792969 289.734375 74.59375 288.492188 74.394531 C 290.351562 69.894531 292.210938 65.398438 294.070312 60.898438 C 301.359375 60.621094 311.390625 59.542969 322.769531 55.957031 C 327.539062 54.453125 338.53125 50.988281 338.203125 48.113281 Z M 338.203125 48.113281 " clip-rule="nonzero"/></clipPath><linearGradient x1="828.472676" gradientTransform="matrix(0.0951676, 0.0519679, -0.0519679, 0.0951676, 139.833024, -62.583738)" y1="449.21799" x2="2384.224678" gradientUnits="userSpaceOnUse" y2="449.21799" id="030f916cf2"><stop stop-opacity="1" stop-color="rgb(55.299377%, 41.19873%, 7.798767%)" offset="0"/><stop stop-opacity="1" stop-color="rgb(55.477905%, 41.360474%, 7.846069%)" offset="0.125"/><stop stop-opacity="1" stop-color="rgb(55.799866%, 41.654968%, 7.933044%)" offset="0.132812"/><stop stop-opacity="1" stop-color="rgb(56.089783%, 41.918945%, 8.009338%)" offset="0.140625"/><stop stop-opacity="1" stop-color="rgb(56.3797%, 42.182922%, 8.087158%)" offset="0.148438"/><stop stop-opacity="1" stop-color="rgb(56.669617%, 42.446899%, 8.163452%)" offset="0.15625"/><stop stop-opacity="1" stop-color="rgb(56.958008%, 42.710876%, 8.241272%)" offset="0.164062"/><stop stop-opacity="1" stop-color="rgb(57.247925%, 42.974854%, 8.319092%)" offset="0.171875"/><stop stop-opacity="1" stop-color="rgb(57.537842%, 43.237305%, 8.395386%)" offset="0.179688"/><stop stop-opacity="1" stop-color="rgb(57.826233%, 43.501282%, 8.473206%)" offset="0.1875"/><stop stop-opacity="1" stop-color="rgb(58.11615%, 43.765259%, 8.5495%)" offset="0.195312"/><stop stop-opacity="1" stop-color="rgb(58.406067%, 44.029236%, 8.627319%)" offset="0.203125"/><stop stop-opacity="1" stop-color="rgb(58.694458%, 44.293213%, 8.705139%)" offset="0.210938"/><stop stop-opacity="1" stop-color="rgb(58.984375%, 44.55719%, 8.781433%)" offset="0.21875"/><stop stop-opacity="1" stop-color="rgb(59.274292%, 44.819641%, 8.859253%)" offset="0.226562"/><stop stop-opacity="1" stop-color="rgb(59.564209%, 45.083618%, 8.935547%)" offset="0.234375"/><stop stop-opacity="1" stop-color="rgb(59.8526%, 45.347595%, 9.013367%)" offset="0.242187"/><stop stop-opacity="1" stop-color="rgb(60.142517%, 45.611572%, 9.089661%)" offset="0.25"/><stop stop-opacity="1" stop-color="rgb(60.432434%, 45.875549%, 9.16748%)" offset="0.257812"/><stop stop-opacity="1" stop-color="rgb(60.720825%, 46.139526%, 9.2453%)" offset="0.265625"/><stop stop-opacity="1" stop-color="rgb(61.010742%, 46.403503%, 9.321594%)" offset="0.273438"/><stop stop-opacity="1" stop-color="rgb(61.300659%, 46.665955%, 9.399414%)" offset="0.28125"/><stop stop-opacity="1" stop-color="rgb(61.590576%, 46.929932%, 9.475708%)" offset="0.289062"/><stop stop-opacity="1" stop-color="rgb(61.878967%, 47.193909%, 9.553528%)" offset="0.296875"/><stop stop-opacity="1" stop-color="rgb(62.168884%, 47.457886%, 9.631348%)" offset="0.304688"/><stop stop-opacity="1" stop-color="rgb(62.458801%, 47.721863%, 9.707642%)" offset="0.3125"/><stop stop-opacity="1" stop-color="rgb(62.747192%, 47.98584%, 9.785461%)" offset="0.320312"/><stop stop-opacity="1" stop-color="rgb(63.037109%, 48.248291%, 9.861755%)" offset="0.328125"/><stop stop-opacity="1" stop-color="rgb(63.327026%, 48.512268%, 9.939575%)" offset="0.335938"/><stop stop-opacity="1" stop-color="rgb(63.615417%, 48.776245%, 10.017395%)" offset="0.34375"/><stop stop-opacity="1" stop-color="rgb(63.905334%, 49.040222%, 10.093689%)" offset="0.351562"/><stop stop-opacity="1" stop-color="rgb(64.234924%, 49.345398%, 10.185242%)" offset="0.359375"/><stop stop-opacity="1" stop-color="rgb(64.845276%, 49.938965%, 10.372925%)" offset="0.363281"/><stop stop-opacity="1" stop-color="rgb(65.272522%, 50.361633%, 10.510254%)" offset="0.367188"/><stop stop-opacity="1" stop-color="rgb(65.698242%, 50.782776%, 10.646057%)" offset="0.371094"/><stop stop-opacity="1" stop-color="rgb(66.125488%, 51.205444%, 10.78186%)" offset="0.375"/><stop stop-opacity="1" stop-color="rgb(66.551208%, 51.626587%, 10.917664%)" offset="0.378906"/><stop stop-opacity="1" stop-color="rgb(66.978455%, 52.049255%, 11.054993%)" offset="0.382812"/><stop stop-opacity="1" stop-color="rgb(67.404175%, 52.470398%, 11.190796%)" offset="0.386719"/><stop stop-opacity="1" stop-color="rgb(67.831421%, 52.893066%, 11.326599%)" offset="0.390625"/><stop stop-opacity="1" stop-color="rgb(68.257141%, 53.314209%, 11.462402%)" offset="0.394531"/><stop stop-opacity="1" stop-color="rgb(68.684387%, 53.736877%, 11.598206%)" offset="0.398438"/><stop stop-opacity="1" stop-color="rgb(69.110107%, 54.15802%, 11.734009%)" offset="0.402344"/><stop stop-opacity="1" stop-color="rgb(69.537354%, 54.580688%, 11.871338%)" offset="0.40625"/><stop stop-opacity="1" stop-color="rgb(69.963074%, 55.001831%, 12.007141%)" offset="0.410156"/><stop stop-opacity="1" stop-color="rgb(70.39032%, 55.4245%, 12.142944%)" offset="0.414062"/><stop stop-opacity="1" stop-color="rgb(70.81604%, 55.847168%, 12.278748%)" offset="0.417969"/><stop stop-opacity="1" stop-color="rgb(71.243286%, 56.269836%, 12.416077%)" offset="0.421875"/><stop stop-opacity="1" stop-color="rgb(71.669006%, 56.690979%, 12.55188%)" offset="0.425781"/><stop stop-opacity="1" stop-color="rgb(72.096252%, 57.113647%, 12.687683%)" offset="0.429688"/><stop stop-opacity="1" stop-color="rgb(72.521973%, 57.53479%, 12.823486%)" offset="0.433594"/><stop stop-opacity="1" stop-color="rgb(72.949219%, 57.957458%, 12.95929%)" offset="0.4375"/><stop stop-opacity="1" stop-color="rgb(73.374939%, 58.378601%, 13.095093%)" offset="0.441406"/><stop stop-opacity="1" stop-color="rgb(73.802185%, 58.80127%, 13.232422%)" offset="0.445313"/><stop stop-opacity="1" stop-color="rgb(74.227905%, 59.222412%, 13.368225%)" offset="0.449219"/><stop stop-opacity="1" stop-color="rgb(74.655151%, 59.645081%, 13.504028%)" offset="0.453125"/><stop stop-opacity="1" stop-color="rgb(75.080872%, 60.066223%, 13.639832%)" offset="0.457031"/><stop stop-opacity="1" stop-color="rgb(75.508118%, 60.488892%, 13.775635%)" offset="0.460938"/><stop stop-opacity="1" stop-color="rgb(75.933838%, 60.910034%, 13.911438%)" offset="0.464844"/><stop stop-opacity="1" stop-color="rgb(76.361084%, 61.332703%, 14.048767%)" offset="0.46875"/><stop stop-opacity="1" stop-color="rgb(76.786804%, 61.753845%, 14.18457%)" offset="0.472656"/><stop stop-opacity="1" stop-color="rgb(77.21405%, 62.176514%, 14.320374%)" offset="0.476562"/><stop stop-opacity="1" stop-color="rgb(77.639771%, 62.597656%, 14.456177%)" offset="0.480469"/><stop stop-opacity="1" stop-color="rgb(78.067017%, 63.020325%, 14.593506%)" offset="0.484375"/><stop stop-opacity="1" stop-color="rgb(78.492737%, 63.441467%, 14.729309%)" offset="0.488281"/><stop stop-opacity="1" stop-color="rgb(78.919983%, 63.864136%, 14.865112%)" offset="0.492187"/><stop stop-opacity="1" stop-color="rgb(79.345703%, 64.285278%, 15.000916%)" offset="0.496094"/><stop stop-opacity="1" stop-color="rgb(79.772949%, 64.707947%, 15.136719%)" offset="0.5"/><stop stop-opacity="1" stop-color="rgb(80.198669%, 65.129089%, 15.272522%)" offset="0.503906"/><stop stop-opacity="1" stop-color="rgb(80.62439%, 65.551758%, 15.409851%)" offset="0.507813"/><stop stop-opacity="1" stop-color="rgb(81.05011%, 65.9729%, 15.545654%)" offset="0.511719"/><stop stop-opacity="1" stop-color="rgb(81.477356%, 66.395569%, 15.681458%)" offset="0.515625"/><stop stop-opacity="1" stop-color="rgb(81.903076%, 66.816711%, 15.817261%)" offset="0.519531"/><stop stop-opacity="1" stop-color="rgb(82.330322%, 67.23938%, 15.95459%)" offset="0.523438"/><stop stop-opacity="1" stop-color="rgb(82.756042%, 67.660522%, 16.090393%)" offset="0.527344"/><stop stop-opacity="1" stop-color="rgb(83.183289%, 68.083191%, 16.226196%)" offset="0.53125"/><stop stop-opacity="1" stop-color="rgb(83.609009%, 68.504333%, 16.362%)" offset="0.535156"/><stop stop-opacity="1" stop-color="rgb(84.036255%, 68.927002%, 16.497803%)" offset="0.539062"/><stop stop-opacity="1" stop-color="rgb(84.461975%, 69.348145%, 16.633606%)" offset="0.542969"/><stop stop-opacity="1" stop-color="rgb(84.889221%, 69.770813%, 16.770935%)" offset="0.546875"/><stop stop-opacity="1" stop-color="rgb(85.314941%, 70.191956%, 16.906738%)" offset="0.550781"/><stop stop-opacity="1" stop-color="rgb(85.742188%, 70.614624%, 17.042542%)" offset="0.554688"/><stop stop-opacity="1" stop-color="rgb(86.167908%, 71.035767%, 17.178345%)" offset="0.558594"/><stop stop-opacity="1" stop-color="rgb(86.595154%, 71.458435%, 17.315674%)" offset="0.5625"/><stop stop-opacity="1" stop-color="rgb(87.020874%, 71.879578%, 17.451477%)" offset="0.566406"/><stop stop-opacity="1" stop-color="rgb(87.44812%, 72.302246%, 17.58728%)" offset="0.570312"/><stop stop-opacity="1" stop-color="rgb(87.87384%, 72.723389%, 17.723083%)" offset="0.574219"/><stop stop-opacity="1" stop-color="rgb(88.301086%, 73.146057%, 17.858887%)" offset="0.578125"/><stop stop-opacity="1" stop-color="rgb(88.726807%, 73.5672%, 17.99469%)" offset="0.582031"/><stop stop-opacity="1" stop-color="rgb(89.154053%, 73.989868%, 18.132019%)" offset="0.585937"/><stop stop-opacity="1" stop-color="rgb(89.579773%, 74.411011%, 18.267822%)" offset="0.589844"/><stop stop-opacity="1" stop-color="rgb(90.007019%, 74.833679%, 18.403625%)" offset="0.59375"/><stop stop-opacity="1" stop-color="rgb(90.432739%, 75.254822%, 18.539429%)" offset="0.597656"/><stop stop-opacity="1" stop-color="rgb(90.859985%, 75.67749%, 18.676758%)" offset="0.601562"/><stop stop-opacity="1" stop-color="rgb(91.285706%, 76.098633%, 18.812561%)" offset="0.605469"/><stop stop-opacity="1" stop-color="rgb(91.712952%, 76.521301%, 18.948364%)" offset="0.609375"/><stop stop-opacity="1" stop-color="rgb(92.105103%, 76.9104%, 19.073486%)" offset="0.613281"/><stop stop-opacity="1" stop-color="rgb(92.498779%, 77.2995%, 19.198608%)" offset="0.617188"/><stop stop-opacity="1" stop-color="rgb(92.498779%, 77.2995%, 19.198608%)" offset="0.625"/><stop stop-opacity="1" stop-color="rgb(92.498779%, 77.2995%, 19.198608%)" offset="0.75"/><stop stop-opacity="1" stop-color="rgb(92.498779%, 77.2995%, 19.198608%)" offset="1"/></linearGradient><clipPath id="9446a5dfa1"><path d="M 20 63 L 205 63 L 205 196 L 20 196 Z M 20 63 " clip-rule="nonzero"/></clipPath><clipPath id="41a785519b"><path d="M 137.78125 -64.6875 L 341.183594 46.382812 L 208.902344 288.621094 L 5.503906 177.550781 Z M 137.78125 -64.6875 " clip-rule="nonzero"/></clipPath><clipPath id="e6afb4a8d1"><path d="M 137.78125 -64.6875 L 341.183594 46.382812 L 208.902344 288.621094 L 5.503906 177.550781 Z M 137.78125 -64.6875 " clip-rule="nonzero"/></clipPath><clipPath id="0ec4d36eda"><path d="M 57.859375 109.667969 C 43.328125 121.097656 27.496094 137.273438 22.3125 155.4375 C 19.8125 163.558594 19.234375 172.941406 23.320312 180.675781 C 27.199219 188.246094 34.757812 193.25 42.75 195.550781 C 33.109375 191.066406 25.035156 183.101562 24.433594 172.019531 C 24.101562 166.886719 25.339844 161.800781 27.128906 157.011719 C 33.792969 138.578125 53.070312 121.910156 68.886719 110.925781 C 85.347656 99.546875 103.359375 90.46875 122.039062 83.273438 C 138.972656 76.761719 156.457031 71.878906 174.304688 68.476562 C 184.265625 66.5625 194.359375 65.164062 204.441406 64.074219 C 153.441406 61.882812 98.324219 78.296875 57.859375 109.667969 Z M 57.859375 109.667969 " clip-rule="nonzero"/></clipPath><linearGradient x1="-426.022264" gradientTransform="matrix(0.0951676, 0.0519679, -0.0519679, 0.0951676, 139.833024, -62.583738)" y1="1633.19897" x2="1663.90082" gradientUnits="userSpaceOnUse" y2="1633.19897" id="d35cfa1406"><stop stop-opacity="1" stop-color="rgb(55.299377%, 41.19873%, 7.798767%)" offset="0"/><stop stop-opacity="1" stop-color="rgb(55.299377%, 41.19873%, 7.798767%)" offset="0.125"/><stop stop-opacity="1" stop-color="rgb(55.299377%, 41.19873%, 7.798767%)" offset="0.1875"/><stop stop-opacity="1" stop-color="rgb(55.299377%, 41.19873%, 7.798767%)" offset="0.203125"/><stop stop-opacity="1" stop-color="rgb(55.476379%, 41.360474%, 7.846069%)" offset="0.210938"/><stop stop-opacity="1" stop-color="rgb(55.85022%, 41.700745%, 7.945251%)" offset="0.21875"/><stop stop-opacity="1" stop-color="rgb(56.240845%, 42.056274%, 8.050537%)" offset="0.226563"/><stop stop-opacity="1" stop-color="rgb(56.63147%, 42.41333%, 8.154297%)" offset="0.230469"/><stop stop-opacity="1" stop-color="rgb(56.828308%, 42.591858%, 8.206177%)" offset="0.234375"/><stop stop-opacity="1" stop-color="rgb(57.023621%, 42.76886%, 8.258057%)" offset="0.242188"/><stop stop-opacity="1" stop-color="rgb(57.414246%, 43.125916%, 8.363342%)" offset="0.25"/><stop stop-opacity="1" stop-color="rgb(57.804871%, 43.481445%, 8.467102%)" offset="0.257813"/><stop stop-opacity="1" stop-color="rgb(58.195496%, 43.838501%, 8.570862%)" offset="0.261719"/><stop stop-opacity="1" stop-color="rgb(58.392334%, 44.017029%, 8.624268%)" offset="0.265625"/><stop stop-opacity="1" stop-color="rgb(58.587646%, 44.195557%, 8.676147%)" offset="0.273438"/><stop stop-opacity="1" stop-color="rgb(58.978271%, 44.551086%, 8.779907%)" offset="0.28125"/><stop stop-opacity="1" stop-color="rgb(59.368896%, 44.908142%, 8.885193%)" offset="0.285156"/><stop stop-opacity="1" stop-color="rgb(59.565735%, 45.08667%, 8.937073%)" offset="0.289063"/><stop stop-opacity="1" stop-color="rgb(59.761047%, 45.263672%, 8.988953%)" offset="0.296875"/><stop stop-opacity="1" stop-color="rgb(60.151672%, 45.620728%, 9.092712%)" offset="0.304688"/><stop stop-opacity="1" stop-color="rgb(60.542297%, 45.976257%, 9.197998%)" offset="0.308594"/><stop stop-opacity="1" stop-color="rgb(60.739136%, 46.154785%, 9.249878%)" offset="0.3125"/><stop stop-opacity="1" stop-color="rgb(60.934448%, 46.333313%, 9.301758%)" offset="0.320313"/><stop stop-opacity="1" stop-color="rgb(61.325073%, 46.688843%, 9.405518%)" offset="0.328125"/><stop stop-opacity="1" stop-color="rgb(61.715698%, 47.045898%, 9.510803%)" offset="0.332031"/><stop stop-opacity="1" stop-color="rgb(61.912537%, 47.224426%, 9.562683%)" offset="0.335938"/><stop stop-opacity="1" stop-color="rgb(62.107849%, 47.401428%, 9.614563%)" offset="0.34375"/><stop stop-opacity="1" stop-color="rgb(62.498474%, 47.758484%, 9.718323%)" offset="0.351563"/><stop stop-opacity="1" stop-color="rgb(62.889099%, 48.114014%, 9.823608%)" offset="0.355469"/><stop stop-opacity="1" stop-color="rgb(63.085938%, 48.292542%, 9.875488%)" offset="0.359375"/><stop stop-opacity="1" stop-color="rgb(63.28125%, 48.471069%, 9.927368%)" offset="0.367188"/><stop stop-opacity="1" stop-color="rgb(63.671875%, 48.826599%, 10.031128%)" offset="0.375"/><stop stop-opacity="1" stop-color="rgb(64.0625%, 49.183655%, 10.136414%)" offset="0.382813"/><stop stop-opacity="1" stop-color="rgb(64.794922%, 49.891663%, 10.357666%)" offset="0.386719"/><stop stop-opacity="1" stop-color="rgb(65.332031%, 50.421143%, 10.528564%)" offset="0.390625"/><stop stop-opacity="1" stop-color="rgb(65.907288%, 50.990295%, 10.71167%)" offset="0.394531"/><stop stop-opacity="1" stop-color="rgb(66.48407%, 51.560974%, 10.896301%)" offset="0.398438"/><stop stop-opacity="1" stop-color="rgb(67.059326%, 52.130127%, 11.079407%)" offset="0.402344"/><stop stop-opacity="1" stop-color="rgb(67.636108%, 52.700806%, 11.264038%)" offset="0.40625"/><stop stop-opacity="1" stop-color="rgb(68.211365%, 53.269958%, 11.447144%)" offset="0.410156"/><stop stop-opacity="1" stop-color="rgb(68.788147%, 53.840637%, 11.631775%)" offset="0.414063"/><stop stop-opacity="1" stop-color="rgb(69.364929%, 54.40979%, 11.81488%)" offset="0.417969"/><stop stop-opacity="1" stop-color="rgb(69.941711%, 54.980469%, 11.999512%)" offset="0.421875"/><stop stop-opacity="1" stop-color="rgb(70.516968%, 55.551147%, 12.182617%)" offset="0.425781"/><stop stop-opacity="1" stop-color="rgb(71.09375%, 56.121826%, 12.367249%)" offset="0.429688"/><stop stop-opacity="1" stop-color="rgb(71.669006%, 56.690979%, 12.550354%)" offset="0.433594"/><stop stop-opacity="1" stop-color="rgb(72.245789%, 57.261658%, 12.734985%)" offset="0.4375"/><stop stop-opacity="1" stop-color="rgb(72.821045%, 57.830811%, 12.918091%)" offset="0.441406"/><stop stop-opacity="1" stop-color="rgb(73.397827%, 58.401489%, 13.102722%)" offset="0.445313"/><stop stop-opacity="1" stop-color="rgb(73.974609%, 58.970642%, 13.285828%)" offset="0.449219"/><stop stop-opacity="1" stop-color="rgb(74.551392%, 59.541321%, 13.470459%)" offset="0.453125"/><stop stop-opacity="1" stop-color="rgb(75.126648%, 60.110474%, 13.653564%)" offset="0.457031"/><stop stop-opacity="1" stop-color="rgb(75.70343%, 60.681152%, 13.838196%)" offset="0.460938"/><stop stop-opacity="1" stop-color="rgb(76.278687%, 61.251831%, 14.021301%)" offset="0.464844"/><stop stop-opacity="1" stop-color="rgb(76.855469%, 61.82251%, 14.205933%)" offset="0.46875"/><stop stop-opacity="1" stop-color="rgb(77.430725%, 62.391663%, 14.389038%)" offset="0.472656"/><stop stop-opacity="1" stop-color="rgb(78.007507%, 62.962341%, 14.573669%)" offset="0.476563"/><stop stop-opacity="1" stop-color="rgb(78.58429%, 63.531494%, 14.756775%)" offset="0.480469"/><stop stop-opacity="1" stop-color="rgb(79.161072%, 64.102173%, 14.941406%)" offset="0.484375"/><stop stop-opacity="1" stop-color="rgb(79.736328%, 64.671326%, 15.126038%)" offset="0.488281"/><stop stop-opacity="1" stop-color="rgb(80.31311%, 65.242004%, 15.310669%)" offset="0.492188"/><stop stop-opacity="1" stop-color="rgb(80.888367%, 65.811157%, 15.493774%)" offset="0.496094"/><stop stop-opacity="1" stop-color="rgb(81.465149%, 66.381836%, 15.678406%)" offset="0.5"/><stop stop-opacity="1" stop-color="rgb(82.040405%, 66.952515%, 15.861511%)" offset="0.503906"/><stop stop-opacity="1" stop-color="rgb(82.617188%, 67.523193%, 16.046143%)" offset="0.507813"/><stop stop-opacity="1" stop-color="rgb(83.192444%, 68.092346%, 16.229248%)" offset="0.511719"/><stop stop-opacity="1" stop-color="rgb(83.769226%, 68.663025%, 16.413879%)" offset="0.515625"/><stop stop-opacity="1" stop-color="rgb(84.346008%, 69.232178%, 16.596985%)" offset="0.519531"/><stop stop-opacity="1" stop-color="rgb(84.922791%, 69.802856%, 16.781616%)" offset="0.523438"/><stop stop-opacity="1" stop-color="rgb(85.498047%, 70.372009%, 16.964722%)" offset="0.527344"/><stop stop-opacity="1" stop-color="rgb(86.074829%, 70.942688%, 17.149353%)" offset="0.53125"/><stop stop-opacity="1" stop-color="rgb(86.650085%, 71.511841%, 17.332458%)" offset="0.535156"/><stop stop-opacity="1" stop-color="rgb(87.226868%, 72.08252%, 17.51709%)" offset="0.539063"/><stop stop-opacity="1" stop-color="rgb(87.802124%, 72.653198%, 17.700195%)" offset="0.542969"/><stop stop-opacity="1" stop-color="rgb(88.378906%, 73.223877%, 17.884827%)" offset="0.546875"/><stop stop-opacity="1" stop-color="rgb(88.955688%, 73.79303%, 18.067932%)" offset="0.550781"/><stop stop-opacity="1" stop-color="rgb(89.532471%, 74.363708%, 18.252563%)" offset="0.554688"/><stop stop-opacity="1" stop-color="rgb(90.107727%, 74.932861%, 18.435669%)" offset="0.558594"/><stop stop-opacity="1" stop-color="rgb(90.684509%, 75.50354%, 18.6203%)" offset="0.5625"/><stop stop-opacity="1" stop-color="rgb(91.259766%, 76.072693%, 18.803406%)" offset="0.566406"/><stop stop-opacity="1" stop-color="rgb(91.836548%, 76.643372%, 18.988037%)" offset="0.570313"/><stop stop-opacity="1" stop-color="rgb(92.167664%, 76.971436%, 19.093323%)" offset="0.574219"/><stop stop-opacity="1" stop-color="rgb(92.498779%, 77.2995%, 19.198608%)" offset="0.578125"/><stop stop-opacity="1" stop-color="rgb(92.498779%, 77.2995%, 19.198608%)" offset="0.59375"/><stop stop-opacity="1" stop-color="rgb(92.498779%, 77.2995%, 19.198608%)" offset="0.625"/><stop stop-opacity="1" stop-color="rgb(92.498779%, 77.2995%, 19.198608%)" offset="0.75"/><stop stop-opacity="1" stop-color="rgb(92.498779%, 77.2995%, 19.198608%)" offset="1"/></linearGradient><clipPath id="429652bb7b"><path d="M 99.773438 207.476562 L 310.460938 207.476562 L 310.460938 229.1875 L 99.773438 229.1875 Z M 99.773438 207.476562 " clip-rule="nonzero"/></clipPath></defs><g clip-path="url(#fe2006b9e7)"><g clip-path="url(#d2e0e2e44b)"><g clip-path="url(#3bff898684)"><g clip-path="url(#0d33bfe6d0)"><path fill="url(#030f916cf2)" d="M 236.257812 -51.722656 L 159.976562 87.96875 L 308.035156 168.816406 L 384.3125 29.128906 Z M 236.257812 -51.722656 " fill-rule="nonzero"/></g></g></g></g><g clip-path="url(#9446a5dfa1)"><g clip-path="url(#41a785519b)"><g clip-path="url(#e6afb4a8d1)"><g clip-path="url(#0ec4d36eda)"><path fill="url(#d35cfa1406)" d="M 61.773438 -16.023438 L -36.992188 164.847656 L 161.902344 273.457031 L 260.667969 92.585938 Z M 61.773438 -16.023438 " fill-rule="nonzero"/></g></g></g></g><g fill="#ecc531" fill-opacity="1"><g transform="translate(36.359353, 191.397102)"><g><path d="M 2.046875 -54.5 L 16.40625 -54.5 L 16.40625 0 L 2.046875 0 Z M 39.109375 -54.5 L 53.46875 -54.5 L 53.46875 12.3125 L 39.109375 12.3125 L 39.109375 -18.671875 L 19.6875 -18.671875 L 19.6875 -30.96875 L 39.109375 -30.96875 Z M 39.109375 -54.5 "/></g></g></g><g fill="#ecc531" fill-opacity="1"><g transform="translate(91.875185, 191.397102)"><g><path d="M 32.484375 -43.625 C 29.285156 -43.625 26.5 -42.90625 24.125 -41.46875 C 21.757812 -40.03125 19.925781 -38.066406 18.625 -35.578125 C 17.332031 -33.097656 16.6875 -30.285156 16.6875 -27.140625 C 16.6875 -24.222656 17.332031 -21.519531 18.625 -19.03125 C 19.925781 -16.550781 21.757812 -14.570312 24.125 -13.09375 C 26.5 -11.613281 29.285156 -10.875 32.484375 -10.875 C 35.710938 -10.875 38.5 -11.535156 40.84375 -12.859375 C 43.195312 -14.179688 45.019531 -16.0625 46.3125 -18.5 C 47.613281 -20.9375 48.265625 -23.816406 48.265625 -27.140625 C 48.265625 -30.335938 47.613281 -33.175781 46.3125 -35.65625 C 45.019531 -38.144531 43.1875 -40.09375 40.8125 -41.5 C 38.445312 -42.914062 35.671875 -43.625 32.484375 -43.625 Z M 32.484375 1.4375 C 28.328125 1.4375 24.359375 0.832031 20.578125 -0.375 C 16.796875 -1.582031 13.429688 -3.394531 10.484375 -5.8125 C 7.546875 -8.226562 5.222656 -11.210938 3.515625 -14.765625 C 1.804688 -18.328125 0.953125 -22.453125 0.953125 -27.140625 C 0.953125 -31.742188 1.804688 -35.832031 3.515625 -39.40625 C 5.222656 -42.988281 7.546875 -46.007812 10.484375 -48.46875 C 13.429688 -50.9375 16.796875 -52.796875 20.578125 -54.046875 C 24.359375 -55.304688 28.328125 -55.9375 32.484375 -55.9375 C 36.671875 -55.9375 40.65625 -55.304688 44.4375 -54.046875 C 48.226562 -52.796875 51.59375 -50.9375 54.53125 -48.46875 C 57.46875 -46.007812 59.78125 -42.988281 61.46875 -39.40625 C 63.15625 -35.832031 64 -31.742188 64 -27.140625 C 64 -22.453125 63.15625 -18.316406 61.46875 -14.734375 C 59.78125 -11.160156 57.453125 -8.175781 54.484375 -5.78125 C 51.523438 -3.382812 48.164062 -1.582031 44.40625 -0.375 C 40.644531 0.832031 36.671875 1.4375 32.484375 1.4375 Z M 32.484375 1.4375 "/></g></g></g><g fill="#ecc531" fill-opacity="1"><g transform="translate(156.825969, 191.397102)"><g><path d="M 44.859375 -54.5 L 59.21875 -54.5 L 59.21875 -26.875 C 59.21875 -24.957031 59.546875 -23.050781 60.203125 -21.15625 C 60.867188 -19.269531 61.800781 -17.550781 63 -16 C 64.207031 -14.445312 65.617188 -13.203125 67.234375 -12.265625 C 68.859375 -11.335938 70.628906 -10.875 72.546875 -10.875 C 75.191406 -10.875 77.648438 -11.460938 79.921875 -12.640625 C 82.203125 -13.828125 84.050781 -15.601562 85.46875 -17.96875 C 86.882812 -20.34375 87.59375 -23.3125 87.59375 -26.875 C 87.59375 -29.832031 86.894531 -32.460938 85.5 -34.765625 C 84.113281 -37.066406 82.128906 -38.878906 79.546875 -40.203125 C 76.972656 -41.523438 73.890625 -42.1875 70.296875 -42.1875 L 62.5 -42.1875 L 62.5 -54.5 L 77.125 -54.5 C 80.820312 -54.5 84.253906 -53.753906 87.421875 -52.265625 C 90.585938 -50.785156 93.351562 -48.769531 95.71875 -46.21875 C 98.09375 -43.664062 99.953125 -40.722656 101.296875 -37.390625 C 102.640625 -34.066406 103.3125 -30.5625 103.3125 -26.875 C 103.3125 -22.769531 102.582031 -18.992188 101.125 -15.546875 C 99.664062 -12.109375 97.632812 -9.125 95.03125 -6.59375 C 92.4375 -4.0625 89.414062 -2.085938 85.96875 -0.671875 C 82.53125 0.734375 78.804688 1.4375 74.796875 1.4375 C 72.066406 1.4375 69.273438 1.09375 66.421875 0.40625 C 63.578125 -0.269531 60.910156 -1.375 58.421875 -2.90625 C 55.941406 -4.4375 53.878906 -6.453125 52.234375 -8.953125 C 50.640625 -6.453125 48.625 -4.425781 46.1875 -2.875 C 43.75 -1.320312 41.128906 -0.191406 38.328125 0.515625 C 35.523438 1.222656 32.734375 1.578125 29.953125 1.578125 C 25.941406 1.578125 22.179688 0.867188 18.671875 -0.546875 C 15.160156 -1.960938 12.082031 -3.957031 9.4375 -6.53125 C 6.789062 -9.101562 4.710938 -12.109375 3.203125 -15.546875 C 1.703125 -18.992188 0.953125 -22.769531 0.953125 -26.875 C 0.953125 -30.5625 1.613281 -34.066406 2.9375 -37.390625 C 4.257812 -40.722656 6.09375 -43.664062 8.4375 -46.21875 C 10.789062 -48.769531 13.539062 -50.785156 16.6875 -52.265625 C 19.832031 -53.753906 23.25 -54.5 26.9375 -54.5 L 41.578125 -54.5 L 41.578125 -42.1875 L 33.78125 -42.1875 C 30.3125 -42.1875 27.289062 -41.523438 24.71875 -40.203125 C 22.144531 -38.878906 20.160156 -37.066406 18.765625 -34.765625 C 17.378906 -32.460938 16.6875 -29.832031 16.6875 -26.875 C 16.6875 -23.3125 17.332031 -20.34375 18.625 -17.96875 C 19.925781 -15.601562 21.671875 -13.828125 23.859375 -12.640625 C 26.046875 -11.460938 28.441406 -10.875 31.046875 -10.875 C 32.953125 -10.875 34.75 -11.335938 36.4375 -12.265625 C 38.125 -13.203125 39.59375 -14.445312 40.84375 -16 C 42.101562 -17.550781 43.085938 -19.269531 43.796875 -21.15625 C 44.503906 -23.050781 44.859375 -24.957031 44.859375 -26.875 Z M 44.859375 -54.5 "/></g></g></g><g fill="#ecc531" fill-opacity="1"><g transform="translate(261.089068, 191.397102)"><g><path d="M 0.6875 -54.5 L 55.25 -54.5 L 55.25 -42.1875 L 35.484375 -42.1875 L 35.484375 0 L 20.4375 0 L 20.4375 -42.1875 L 0.6875 -42.1875 Z M 0.6875 -54.5 "/></g></g></g><g fill="#ecc531" fill-opacity="1"><g transform="translate(317.015113, 191.397102)"><g><path d="M 36.578125 -12.3125 L 0.953125 -12.3125 L 0.953125 -29.953125 C 0.953125 -33.546875 1.644531 -36.914062 3.03125 -40.0625 C 4.425781 -43.207031 6.363281 -45.960938 8.84375 -48.328125 C 11.332031 -50.703125 14.207031 -52.5625 17.46875 -53.90625 C 20.726562 -55.257812 24.226562 -55.9375 27.96875 -55.9375 C 31.65625 -55.9375 35.117188 -55.257812 38.359375 -53.90625 C 41.597656 -52.5625 44.445312 -50.691406 46.90625 -48.296875 C 49.363281 -45.910156 51.285156 -43.144531 52.671875 -40 C 54.066406 -36.851562 54.765625 -33.476562 54.765625 -29.875 L 54.765625 12.3125 L 39.859375 12.3125 L 39.859375 -30.625 C 39.859375 -33.039062 39.320312 -35.226562 38.25 -37.1875 C 37.1875 -39.15625 35.765625 -40.71875 33.984375 -41.875 C 32.203125 -43.039062 30.21875 -43.625 28.03125 -43.625 C 25.800781 -43.625 23.757812 -43.050781 21.90625 -41.90625 C 20.0625 -40.769531 18.59375 -39.242188 17.5 -37.328125 C 16.40625 -35.421875 15.859375 -33.300781 15.859375 -30.96875 L 15.859375 -24.609375 L 36.578125 -24.609375 Z M 36.578125 -12.3125 "/></g></g></g><g clip-path="url(#429652bb7b)"><path fill="#ecc531" d="M 99.773438 207.476562 L 310.433594 207.476562 L 310.433594 229.1875 L 99.773438 229.1875 Z M 99.773438 207.476562 " fill-opacity="1" fill-rule="nonzero"/></g><g fill="#000000" fill-opacity="1"><g transform="translate(164.470536, 223.050563)"><g><path d="M 0.671875 0 L 0.671875 -0.40625 L 2.0625 -0.5 L 2.0625 -12.515625 L 0.671875 -12.59375 L 0.671875 -13.015625 L 9.28125 -13.015625 L 9.375 -9.296875 L 8.859375 -9.296875 C 8.816406 -9.804688 8.742188 -10.242188 8.640625 -10.609375 C 8.535156 -10.972656 8.378906 -11.300781 8.171875 -11.59375 C 7.960938 -11.894531 7.675781 -12.125 7.3125 -12.28125 C 6.945312 -12.4375 6.503906 -12.515625 5.984375 -12.515625 C 5.285156 -12.515625 4.757812 -12.484375 4.40625 -12.421875 L 4.40625 -6.796875 C 4.550781 -6.796875 4.640625 -6.796875 4.671875 -6.796875 C 5.097656 -6.796875 5.4375 -6.816406 5.6875 -6.859375 C 5.9375 -6.898438 6.160156 -6.992188 6.359375 -7.140625 C 6.566406 -7.296875 6.707031 -7.519531 6.78125 -7.8125 C 6.863281 -8.101562 6.90625 -8.492188 6.90625 -8.984375 L 7.40625 -8.984375 L 7.40625 -4.078125 L 6.90625 -4.078125 C 6.90625 -4.910156 6.765625 -5.488281 6.484375 -5.8125 C 6.210938 -6.132812 5.757812 -6.296875 5.125 -6.296875 L 4.40625 -6.296875 L 4.40625 -0.5 L 6.171875 -0.40625 L 6.171875 0 Z M 0.671875 0 "/></g></g></g><g fill="#000000" fill-opacity="1"><g transform="translate(177.623459, 223.050563)"><g><path d="M 0.875 -6.46875 C 0.875 -7.71875 1.097656 -8.859375 1.546875 -9.890625 C 1.992188 -10.921875 2.65625 -11.75 3.53125 -12.375 C 4.40625 -13.007812 5.410156 -13.328125 6.546875 -13.328125 C 8.253906 -13.328125 9.632812 -12.722656 10.6875 -11.515625 C 11.738281 -10.304688 12.265625 -8.71875 12.265625 -6.75 C 12.265625 -6.039062 12.191406 -5.347656 12.046875 -4.671875 C 11.898438 -3.992188 11.675781 -3.351562 11.375 -2.75 C 11.070312 -2.144531 10.703125 -1.613281 10.265625 -1.15625 C 9.835938 -0.707031 9.304688 -0.347656 8.671875 -0.078125 C 8.035156 0.179688 7.34375 0.3125 6.59375 0.3125 C 4.8125 0.3125 3.410156 -0.304688 2.390625 -1.546875 C 1.378906 -2.785156 0.875 -4.425781 0.875 -6.46875 Z M 3.3125 -6.671875 C 3.3125 -5.472656 3.429688 -4.390625 3.671875 -3.421875 C 3.910156 -2.460938 4.273438 -1.679688 4.765625 -1.078125 C 5.265625 -0.484375 5.859375 -0.1875 6.546875 -0.1875 C 7.566406 -0.1875 8.363281 -0.773438 8.9375 -1.953125 C 9.519531 -3.140625 9.8125 -4.71875 9.8125 -6.6875 C 9.8125 -8.726562 9.523438 -10.257812 8.953125 -11.28125 C 8.390625 -12.3125 7.601562 -12.828125 6.59375 -12.828125 C 6.25 -12.828125 5.914062 -12.753906 5.59375 -12.609375 C 5.269531 -12.460938 4.96875 -12.226562 4.6875 -11.90625 C 4.414062 -11.582031 4.175781 -11.1875 3.96875 -10.71875 C 3.769531 -10.25 3.609375 -9.664062 3.484375 -8.96875 C 3.367188 -8.28125 3.3125 -7.515625 3.3125 -6.671875 Z M 3.3125 -6.671875 "/></g></g></g><g fill="#000000" fill-opacity="1"><g transform="translate(194.067838, 223.050563)"><g><path d="M 0.671875 0 L 0.671875 -0.40625 L 2.0625 -0.5 L 2.0625 -12.515625 L 0.671875 -12.59375 L 0.671875 -13.015625 L 5.53125 -13.015625 C 6.195312 -13.015625 6.800781 -12.953125 7.34375 -12.828125 C 7.894531 -12.710938 8.382812 -12.53125 8.8125 -12.28125 C 9.238281 -12.039062 9.566406 -11.707031 9.796875 -11.28125 C 10.035156 -10.863281 10.15625 -10.363281 10.15625 -9.78125 C 10.15625 -8.738281 9.804688 -7.925781 9.109375 -7.34375 C 8.410156 -6.769531 7.460938 -6.398438 6.265625 -6.234375 L 6.265625 -6.203125 C 6.773438 -6.203125 7.21875 -6.117188 7.59375 -5.953125 C 7.96875 -5.796875 8.265625 -5.59375 8.484375 -5.34375 C 8.710938 -5.101562 8.925781 -4.789062 9.125 -4.40625 C 9.257812 -4.132812 9.445312 -3.722656 9.6875 -3.171875 C 9.9375 -2.628906 10.1875 -2.144531 10.4375 -1.71875 C 10.625 -1.363281 10.820312 -1.09375 11.03125 -0.90625 C 11.25 -0.71875 11.429688 -0.601562 11.578125 -0.5625 C 11.722656 -0.519531 11.890625 -0.5 12.078125 -0.5 L 12.078125 0 L 10.5625 0 C 10.101562 0 9.738281 -0.0234375 9.46875 -0.078125 C 9.207031 -0.140625 8.941406 -0.28125 8.671875 -0.5 C 8.410156 -0.71875 8.175781 -1.019531 7.96875 -1.40625 C 7.757812 -1.789062 7.40625 -2.597656 6.90625 -3.828125 C 6.832031 -4.015625 6.726562 -4.25 6.59375 -4.53125 C 6.457031 -4.820312 6.335938 -5.039062 6.234375 -5.1875 C 6.140625 -5.34375 6.023438 -5.5 5.890625 -5.65625 C 5.753906 -5.820312 5.613281 -5.941406 5.46875 -6.015625 C 5.320312 -6.085938 5.171875 -6.125 5.015625 -6.125 C 4.742188 -6.125 4.539062 -6.117188 4.40625 -6.109375 L 4.40625 -0.5 L 5.8125 -0.40625 L 5.8125 0 Z M 4.40625 -6.625 C 4.46875 -6.625 4.59375 -6.625 4.78125 -6.625 C 5.863281 -6.625 6.625 -6.882812 7.0625 -7.40625 C 7.5 -7.9375 7.71875 -8.722656 7.71875 -9.765625 C 7.71875 -10.285156 7.65625 -10.726562 7.53125 -11.09375 C 7.40625 -11.457031 7.226562 -11.738281 7 -11.9375 C 6.769531 -12.144531 6.515625 -12.289062 6.234375 -12.375 C 5.953125 -12.457031 5.632812 -12.5 5.28125 -12.5 C 5.039062 -12.5 4.75 -12.472656 4.40625 -12.421875 Z M 4.40625 -6.625 "/></g></g></g><g fill="#000000" fill-opacity="1"><g transform="translate(209.126347, 223.050563)"><g/></g></g><g fill="#000000" fill-opacity="1"><g transform="translate(216.653728, 223.050563)"><g><path d="M -0.34375 -12.59375 L -0.34375 -13.015625 L 5.015625 -13.015625 L 5.015625 -12.59375 L 3.59375 -12.515625 L 6.671875 -6.96875 L 6.71875 -6.96875 L 9.296875 -12.515625 L 8 -12.59375 L 8 -13.015625 L 11.046875 -13.015625 L 11.046875 -12.59375 L 9.90625 -12.515625 L 7.0625 -6.40625 L 7.0625 -0.5 L 8.46875 -0.40625 L 8.46875 0 L 3.34375 0 L 3.34375 -0.40625 L 4.734375 -0.5 L 4.734375 -5.875 L 0.890625 -12.515625 Z M -0.34375 -12.59375 "/></g></g></g><g fill="#000000" fill-opacity="1"><g transform="translate(231.074001, 223.050563)"><g><path d="M 0.875 -6.46875 C 0.875 -7.71875 1.097656 -8.859375 1.546875 -9.890625 C 1.992188 -10.921875 2.65625 -11.75 3.53125 -12.375 C 4.40625 -13.007812 5.410156 -13.328125 6.546875 -13.328125 C 8.253906 -13.328125 9.632812 -12.722656 10.6875 -11.515625 C 11.738281 -10.304688 12.265625 -8.71875 12.265625 -6.75 C 12.265625 -6.039062 12.191406 -5.347656 12.046875 -4.671875 C 11.898438 -3.992188 11.675781 -3.351562 11.375 -2.75 C 11.070312 -2.144531 10.703125 -1.613281 10.265625 -1.15625 C 9.835938 -0.707031 9.304688 -0.347656 8.671875 -0.078125 C 8.035156 0.179688 7.34375 0.3125 6.59375 0.3125 C 4.8125 0.3125 3.410156 -0.304688 2.390625 -1.546875 C 1.378906 -2.785156 0.875 -4.425781 0.875 -6.46875 Z M 3.3125 -6.671875 C 3.3125 -5.472656 3.429688 -4.390625 3.671875 -3.421875 C 3.910156 -2.460938 4.273438 -1.679688 4.765625 -1.078125 C 5.265625 -0.484375 5.859375 -0.1875 6.546875 -0.1875 C 7.566406 -0.1875 8.363281 -0.773438 8.9375 -1.953125 C 9.519531 -3.140625 9.8125 -4.71875 9.8125 -6.6875 C 9.8125 -8.726562 9.523438 -10.257812 8.953125 -11.28125 C 8.390625 -12.3125 7.601562 -12.828125 6.59375 -12.828125 C 6.25 -12.828125 5.914062 -12.753906 5.59375 -12.609375 C 5.269531 -12.460938 4.96875 -12.226562 4.6875 -11.90625 C 4.414062 -11.582031 4.175781 -11.1875 3.96875 -10.71875 C 3.769531 -10.25 3.609375 -9.664062 3.484375 -8.96875 C 3.367188 -8.28125 3.3125 -7.515625 3.3125 -6.671875 Z M 3.3125 -6.671875 "/></g></g></g><g fill="#000000" fill-opacity="1"><g transform="translate(247.518378, 223.050563)"><g><path d="M 0.453125 -12.59375 L 0.453125 -13.015625 L 5.59375 -13.015625 L 5.59375 -12.59375 L 4.171875 -12.515625 L 4.171875 -4 C 4.171875 -3.75 4.175781 -3.523438 4.1875 -3.328125 C 4.207031 -3.128906 4.238281 -2.894531 4.28125 -2.625 C 4.320312 -2.351562 4.382812 -2.117188 4.46875 -1.921875 C 4.5625 -1.722656 4.6875 -1.515625 4.84375 -1.296875 C 5 -1.085938 5.1875 -0.914062 5.40625 -0.78125 C 5.625 -0.644531 5.898438 -0.53125 6.234375 -0.4375 C 6.566406 -0.351562 6.9375 -0.3125 7.34375 -0.3125 C 7.84375 -0.3125 8.285156 -0.390625 8.671875 -0.546875 C 9.054688 -0.703125 9.367188 -0.898438 9.609375 -1.140625 C 9.847656 -1.390625 10.046875 -1.691406 10.203125 -2.046875 C 10.359375 -2.410156 10.46875 -2.773438 10.53125 -3.140625 C 10.59375 -3.515625 10.625 -3.921875 10.625 -4.359375 L 10.625 -12.515625 L 9.21875 -12.59375 L 9.21875 -13.015625 L 12.59375 -13.015625 L 12.59375 -12.59375 L 11.203125 -12.515625 L 11.203125 -4.15625 C 11.203125 -3.71875 11.164062 -3.300781 11.09375 -2.90625 C 11.03125 -2.519531 10.90625 -2.125 10.71875 -1.71875 C 10.53125 -1.3125 10.285156 -0.960938 9.984375 -0.671875 C 9.679688 -0.378906 9.28125 -0.144531 8.78125 0.03125 C 8.28125 0.21875 7.707031 0.3125 7.0625 0.3125 C 6.382812 0.3125 5.78125 0.265625 5.25 0.171875 C 4.71875 0.078125 4.269531 -0.046875 3.90625 -0.203125 C 3.539062 -0.367188 3.226562 -0.570312 2.96875 -0.8125 C 2.71875 -1.0625 2.519531 -1.3125 2.375 -1.5625 C 2.226562 -1.8125 2.113281 -2.109375 2.03125 -2.453125 C 1.945312 -2.796875 1.894531 -3.109375 1.875 -3.390625 C 1.851562 -3.671875 1.84375 -3.992188 1.84375 -4.359375 L 1.84375 -12.515625 Z M 0.453125 -12.59375 "/></g></g></g></svg>